<?xml version="1.0" encoding="UTF-8" standalone="no"?>
<!-- Created with Inkscape (http://www.inkscape.org/) -->

<svg
   xmlns:dc="http://purl.org/dc/elements/1.1/"
   xmlns:cc="http://creativecommons.org/ns#"
   xmlns:rdf="http://www.w3.org/1999/02/22-rdf-syntax-ns#"
   xmlns:svg="http://www.w3.org/2000/svg"
   xmlns="http://www.w3.org/2000/svg"
   xmlns:sodipodi="http://sodipodi.sourceforge.net/DTD/sodipodi-0.dtd"
   xmlns:inkscape="http://www.inkscape.org/namespaces/inkscape"
   width="210mm"
   height="297mm"
   viewBox="0 0 210 297"
   version="1.1"
   id="svg1121"
   inkscape:version="0.92.4 5da689c313, 2019-01-14"
   sodipodi:docname="drawing.svg.2019_11_17_19_08_07.0.svg">
  <defs
     id="defs1115" />
  <sodipodi:namedview
     id="base"
     pagecolor="#ffffff"
     bordercolor="#666666"
     borderopacity="1.0"
     inkscape:pageopacity="0.0"
     inkscape:pageshadow="2"
     inkscape:zoom="0.35"
     inkscape:cx="-661.42857"
     inkscape:cy="674.28571"
     inkscape:document-units="mm"
     inkscape:current-layer="layer1"
     showgrid="false"
     inkscape:window-width="3840"
     inkscape:window-height="2025"
     inkscape:window-x="0"
     inkscape:window-y="0"
     inkscape:window-maximized="1" />
  <metadata
     id="metadata1118">
    <rdf:RDF>
      <cc:Work
         rdf:about="">
        <dc:format>image/svg+xml</dc:format>
        <dc:type
           rdf:resource="http://purl.org/dc/dcmitype/StillImage" />
        <dc:title />
      </cc:Work>
    </rdf:RDF>
  </metadata>
  <g
     inkscape:label="Layer 1"
     inkscape:groupmode="layer"
     id="layer1">
    <rect
       style="opacity:1;fill:#020202;fill-opacity:1;stroke:#ffffff;stroke-width:0.54780912;stroke-miterlimit:4;stroke-dasharray:none;stroke-dashoffset:0;stroke-opacity:1"
       id="rect859-1"
       width="570.12726"
       height="496.49667"
       x="-165.28323"
       y="-68.028473"
       transform="rotate(0.108)" />
    <g
       id="g1816"
       transform="matrix(0.26458333,0,0,0.26458333,151.87406,-162.38984)"
       style="fill:none">
      <path
         transform="rotate(0.10082353,-512.98334,902.72559)"
         style="opacity:1;fill:none;fill-opacity:1;stroke:#ffffff;stroke-width:5;stroke-miterlimit:4;stroke-dasharray:5, 20;stroke-dashoffset:0;stroke-opacity:1"
         d="M -563.27539 819.33984 C -578.95052 845.47461 -594.62565 871.60937 -610.30078 897.74414 C -597.14193 922.90755 -583.98307 948.07096 -570.82422 973.23438 C -541.5638 971.60221 -512.30339 969.97005 -483.04297 968.33789 C -465.54102 941.13867 -448.03906 913.93945 -430.53711 886.74023 C -444.82422 862.87956 -459.11133 839.01888 -473.39844 815.1582 C -503.35742 816.55208 -533.31641 817.94596 -563.27539 819.33984 z "
         id="path867" />
      <path
         transform="rotate(0.09203895,-379.14935,979.99462)"
         style="opacity:1;fill:none;fill-opacity:1;stroke:#ffffff;stroke-width:5;stroke-miterlimit:4;stroke-dasharray:5, 20;stroke-dashoffset:0;stroke-opacity:1"
         d="M -430.50195 886.73242 C -448.01367 913.92969 -465.52539 941.12695 -483.03711 968.32422 C -468.57813 995.20703 -454.11914 1022.0898 -439.66016 1048.9727 C -407.80013 1045.5846 -375.9401 1042.1966 -344.08008 1038.8086 C -326.33854 1011.9948 -308.59701 985.18099 -290.85547 958.36719 C -305.41732 933.9362 -319.97917 909.50521 -334.54102 885.07422 C -366.52799 885.62695 -398.51497 886.17969 -430.50195 886.73242 z "
         id="path867-0" />
      <path
         transform="rotate(0.07687252,-379.14935,825.45656)"
         style="opacity:1;fill:none;fill-opacity:1;stroke:#ffffff;stroke-width:5;stroke-miterlimit:4;stroke-dasharray:5, 20;stroke-dashoffset:0;stroke-opacity:1"
         d="M -425.32031 740.28711 C -441.3444 765.24805 -457.36849 790.20898 -473.39258 815.16992 C -459.10742 839.02799 -444.82227 862.88607 -430.53711 886.74414 C -398.53971 886.19076 -366.54232 885.63737 -334.54492 885.08398 C -319.3457 860.85612 -304.14648 836.62826 -288.94727 812.40039 C -304.07878 788.13086 -319.21029 763.86133 -334.3418 739.5918 C -364.66797 739.82357 -394.99414 740.05534 -425.32031 740.28711 z "
         id="path867-8" />
      <path
         transform="rotate(0.108,-512.98334,1057.2637)"
         style="opacity:1;fill:none;fill-opacity:1;stroke:#ffffff;stroke-width:5;stroke-miterlimit:4;stroke-dasharray:5, 20;stroke-dashoffset:0;stroke-opacity:1"
         d="M -570.8418 973.23242 C -585.73307 999.69792 -600.62435 1026.1634 -615.51562 1052.6289 C -601.79167 1077.9941 -588.06771 1103.3594 -574.34375 1128.7246 C -545.45247 1128.3294 -516.5612 1127.9342 -487.66992 1127.5391 C -471.67383 1101.3561 -455.67773 1075.1732 -439.68164 1048.9902 C -454.13802 1022.1016 -468.5944 995.21289 -483.05078 968.32422 C -512.31445 969.96029 -541.57812 971.59635 -570.8418 973.23242 z "
         id="path867-85" />
      <path
         transform="rotate(0.08581722,-379.14935,1134.5327)"
         style="opacity:1;fill:none;fill-opacity:1;stroke:#ffffff;stroke-width:5;stroke-miterlimit:4;stroke-dasharray:5, 20;stroke-dashoffset:0;stroke-opacity:1"
         d="M -439.65234 1048.9668 C -455.6569 1075.1576 -471.66146 1101.3483 -487.66602 1127.5391 C -473.44401 1152.8255 -459.22201 1178.112 -445 1203.3984 C -415.92188 1202.8704 -386.84375 1202.3424 -357.76562 1201.8145 C -340.6263 1173.347 -323.48698 1144.8796 -306.34766 1116.4121 C -318.91471 1090.5371 -331.48177 1064.6621 -344.04883 1038.7871 C -375.91667 1042.1803 -407.78451 1045.5736 -439.65234 1048.9668 z "
         id="path867-09" />
      <path
         transform="rotate(0.0643696,-245.31537,1057.2637)"
         style="opacity:1;fill:none;fill-opacity:1;stroke:#ffffff;stroke-width:5;stroke-miterlimit:4;stroke-dasharray:5, 20;stroke-dashoffset:0;stroke-opacity:1"
         d="M -290.83984 958.36914 C -308.56966 985.18034 -326.29948 1011.9915 -344.0293 1038.8027 C -331.4694 1064.6706 -318.90951 1090.5384 -306.34961 1116.4062 C -274.25195 1112.998 -242.1543 1109.5898 -210.05664 1106.1816 C -193.5026 1079.7129 -176.94857 1053.2441 -160.39453 1026.7754 C -174.48242 1002.8971 -188.57031 979.01888 -202.6582 955.14062 C -232.05208 956.2168 -261.44596 957.29297 -290.83984 958.36914 z "
         id="path867-6" />
      <path
         transform="rotate(0.06059901,-245.31537,902.7256)"
         style="opacity:1;fill:none;fill-opacity:1;stroke:#ffffff;stroke-width:5;stroke-miterlimit:4;stroke-dasharray:5, 20;stroke-dashoffset:0;stroke-opacity:1"
         d="M -288.94336 812.41211 C -304.14258 836.63737 -319.3418 860.86263 -334.54102 885.08789 C -319.97721 909.51432 -305.41341 933.94076 -290.84961 958.36719 C -261.45052 957.29557 -232.05143 956.22396 -202.65234 955.15234 C -186.95768 931.35091 -171.26302 907.54948 -155.56836 883.74805 C -170.26107 859.87565 -184.95378 836.00326 -199.64648 812.13086 C -229.41211 812.22461 -259.17773 812.31836 -288.94336 812.41211 z "
         id="path867-3" />
      <path
         transform="rotate(0.04200416,-245.31537,748.18744)"
         style="opacity:1;fill:none;fill-opacity:1;stroke:#ffffff;stroke-width:5;stroke-miterlimit:4;stroke-dasharray:5, 20;stroke-dashoffset:0;stroke-opacity:1"
         d="M -334.3418 739.59375 C -319.21094 763.86523 -304.08008 788.13672 -288.94922 812.4082 C -259.18034 812.31771 -229.41146 812.22721 -199.64258 812.13672 C -184.80664 788.25065 -169.9707 764.36458 -155.13477 740.47852 C -170.12826 716.01758 -185.12174 691.55664 -200.11523 667.0957 C -229.92122 666.89909 -259.72721 666.70247 -289.5332 666.50586 C -304.4694 690.86849 -319.4056 715.23112 -334.3418 739.59375 z "
         id="path867-856" />
      <path
         transform="rotate(0.02579175,-111.48139,825.45642)"
         style="opacity:1;fill:none;fill-opacity:1;stroke:#ffffff;stroke-width:5;stroke-miterlimit:4;stroke-dasharray:5, 20;stroke-dashoffset:0;stroke-opacity:1"
         d="M -199.64453 812.14258 C -184.95378 836.01172 -170.26302 859.88086 -155.57227 883.75 C -125.5013 883.58008 -95.430339 883.41016 -65.359375 883.24023 C -50.940755 859.83333 -36.522135 836.42643 -22.103516 813.01953 C -36.943359 789.00586 -51.783203 764.99219 -66.623047 740.97852 C -96.126302 740.81576 -125.62956 740.65299 -155.13281 740.49023 C -169.97005 764.37435 -184.80729 788.25846 -199.64453 812.14258 z "
         id="path867-1" />
      <path
         transform="rotate(0.03360149,-111.48139,979.99459)"
         style="opacity:1;fill:none;fill-opacity:1;stroke:#ffffff;stroke-width:5;stroke-miterlimit:4;stroke-dasharray:5, 20;stroke-dashoffset:0;stroke-opacity:1"
         d="M -155.55859 883.75391 C -171.25911 907.55404 -186.95964 931.35417 -202.66016 955.1543 C -188.57422 979.0293 -174.48828 1002.9043 -160.40234 1026.7793 C -127.45443 1026.4219 -94.50651 1026.0645 -61.558594 1025.707 C -47.541016 1001.9831 -33.523437 978.25911 -19.505859 954.53516 C -34.789714 930.76693 -50.073568 906.9987 -65.357422 883.23047 C -95.424479 883.40495 -125.49154 883.57943 -155.55859 883.75391 z "
         id="path867-15" />
      <path
         transform="rotate(0.06109013,-379.14941,1289.0708)"
         style="opacity:1;fill:none;fill-opacity:1;stroke:#ffffff;stroke-width:5;stroke-miterlimit:4;stroke-dasharray:5, 20;stroke-dashoffset:0;stroke-opacity:1"
         d="M -444.99609 1203.3926 C -459.34701 1232.9909 -473.69792 1262.5892 -488.04883 1292.1875 C -473.35872 1320.9486 -458.66862 1349.7096 -443.97852 1378.4707 C -416.00326 1379.3008 -388.02799 1380.1309 -360.05273 1380.9609 C -345.17839 1350.0007 -330.30404 1319.0404 -315.42969 1288.0801 C -329.54102 1259.3223 -343.65234 1230.5645 -357.76367 1201.8066 C -386.84115 1202.3353 -415.91862 1202.8639 -444.99609 1203.3926 z "
         id="path867-857" />
      <path
         transform="rotate(0.0283208,-245.31544,1366.3397)"
         style="opacity:1;fill:none;fill-opacity:1;stroke:#ffffff;stroke-width:5;stroke-miterlimit:4;stroke-dasharray:5, 20;stroke-dashoffset:0;stroke-opacity:1"
         d="M -315.43164 1288.0605 C -330.30339 1319.0286 -345.17513 1349.9967 -360.04688 1380.9648 C -343.71419 1408.7207 -327.38151 1436.4766 -311.04883 1464.2324 C -278.74609 1466.4687 -246.44336 1468.7051 -214.14062 1470.9414 C -199.07292 1444.4805 -184.00521 1418.0195 -168.9375 1391.5586 C -186.83984 1356.5443 -204.74219 1321.5299 -222.64453 1286.5156 C -253.57357 1287.0306 -284.5026 1287.5456 -315.43164 1288.0605 z "
         id="path867-0-4" />
      <path
         transform="rotate(0.05138715,-245.31544,1211.8018)"
         style="opacity:1;fill:none;fill-opacity:1;stroke:#ffffff;stroke-width:5;stroke-miterlimit:4;stroke-dasharray:5, 20;stroke-dashoffset:0;stroke-opacity:1"
         d="M -306.3125 1116.3945 C -323.46224 1144.8633 -340.61198 1173.332 -357.76172 1201.8008 C -343.65234 1230.554 -329.54297 1259.3073 -315.43359 1288.0605 C -284.50651 1287.5495 -253.57943 1287.0384 -222.65234 1286.5273 C -203.46289 1253.7943 -184.27344 1221.0612 -165.08398 1188.3281 C -180.07292 1160.9408 -195.06185 1133.5534 -210.05078 1106.166 C -242.13802 1109.5755 -274.22526 1112.985 -306.3125 1116.3945 z "
         id="path867-8-1" />
      <path
         transform="rotate(0.02935243,-379.14941,1443.6088)"
         style="opacity:1;fill:none;fill-opacity:1;stroke:#ffffff;stroke-width:5;stroke-miterlimit:4;stroke-dasharray:5, 20;stroke-dashoffset:0;stroke-opacity:1"
         d="M -483.72461 1454.8926 C -468.4362 1481.4844 -453.14779 1508.0762 -437.85938 1534.668 C -409.16276 1535.8652 -380.46615 1537.0625 -351.76953 1538.2598 C -338.18945 1513.582 -324.60937 1488.9043 -311.0293 1464.2266 C -327.37044 1436.474 -343.71159 1408.7214 -360.05273 1380.9688 C -388.02604 1380.1374 -415.99935 1379.306 -443.97266 1378.4746 C -457.22331 1403.9473 -470.47396 1429.4199 -483.72461 1454.8926 z "
         id="path867-85-8" />
      <path
         transform="rotate(0.00729628,-245.31544,1520.8887)"
         style="opacity:1;fill:none;fill-opacity:1;stroke:#ffffff;stroke-width:5;stroke-miterlimit:4;stroke-dasharray:5, 20;stroke-dashoffset:0;stroke-opacity:1"
         d="M -351.77734 1538.2695 C -333.83789 1564.918 -315.89844 1591.5664 -297.95898 1618.2148 C -266.58073 1619.6113 -235.20247 1621.0078 -203.82422 1622.4043 C -188.61328 1598.8828 -173.40234 1575.3613 -158.19141 1551.8398 C -176.83659 1524.8783 -195.48177 1497.9167 -214.12695 1470.9551 C -246.43099 1468.7161 -278.73503 1466.4772 -311.03906 1464.2383 C -324.61849 1488.9154 -338.19792 1513.5924 -351.77734 1538.2695 z "
         id="path867-09-5" />
      <path
         transform="rotate(0.00475143,-111.48144,1443.6043)"
         style="opacity:1;fill:none;fill-opacity:1;stroke:#ffffff;stroke-width:5;stroke-miterlimit:4;stroke-dasharray:5, 20;stroke-dashoffset:0;stroke-opacity:1"
         d="M -168.94727 1391.5488 C -184.01042 1418.0163 -199.07357 1444.4837 -214.13672 1470.9512 C -195.48763 1497.9141 -176.83854 1524.877 -158.18945 1551.8398 C -124.58919 1551.3281 -90.988932 1550.8164 -57.388672 1550.3047 C -40.392578 1524.7155 -23.396484 1499.1263 -6.4003906 1473.5371 C -21.039714 1446.1517 -35.679036 1418.7663 -50.318359 1391.3809 C -89.861328 1391.4368 -129.4043 1391.4928 -168.94727 1391.5488 z "
         id="path867-6-9" />
      <path
         transform="rotate(0.01808555,-111.48144,1289.0705)"
         style="opacity:1;fill:none;fill-opacity:1;stroke:#ffffff;stroke-width:5;stroke-miterlimit:4;stroke-dasharray:5, 20;stroke-dashoffset:0;stroke-opacity:1"
         d="M -222.64453 1286.5078 C -204.7474 1321.5176 -186.85026 1356.5273 -168.95312 1391.5371 C -129.41081 1391.4863 -89.86849 1391.4355 -50.326172 1391.3848 C -31.409505 1357.3861 -12.492839 1323.3874 6.4238281 1289.3887 C -13.582031 1256.14 -33.587891 1222.8913 -53.59375 1189.6426 C -90.755859 1189.1973 -127.91797 1188.752 -165.08008 1188.3066 C -184.26823 1221.0404 -203.45638 1253.7741 -222.64453 1286.5078 z "
         id="path867-3-7" />
      <path
         transform="rotate(0.03035668,-111.48144,1134.5326)"
         style="opacity:1;fill:none;fill-opacity:1;stroke:#ffffff;stroke-width:5;stroke-miterlimit:4;stroke-dasharray:5, 20;stroke-dashoffset:0;stroke-opacity:1"
         d="M -160.38672 1026.7617 C -176.94206 1053.2298 -193.4974 1079.6979 -210.05273 1106.166 C -195.0599 1133.5495 -180.06706 1160.9329 -165.07422 1188.3164 C -127.92122 1188.7493 -90.768229 1189.1823 -53.615234 1189.6152 C -39.048828 1162.2005 -24.482422 1134.7858 -9.9160156 1107.3711 C -27.128906 1080.1543 -44.341797 1052.9375 -61.554688 1025.7207 C -94.498698 1026.0677 -127.44271 1026.4147 -160.38672 1026.7617 z "
         id="path867-856-5" />
      <path
         transform="rotate(0.00548697,22.352512,1211.8028)"
         style="opacity:1;fill:none;fill-opacity:1;stroke:#ffffff;stroke-width:5;stroke-miterlimit:4;stroke-dasharray:5, 20;stroke-dashoffset:0;stroke-opacity:1"
         d="M -53.605469 1189.6211 C -33.598307 1222.8737 -13.591146 1256.1263 6.4160156 1289.3789 C 36.811198 1290.1172 67.20638 1290.8555 97.601562 1291.5938 C 111.63346 1263.4714 125.66536 1235.349 139.69727 1207.2266 C 121.62109 1177.6139 103.54492 1148.0013 85.46875 1118.3887 C 53.673177 1114.7148 21.877604 1111.041 -9.9179688 1107.3672 C -24.480469 1134.7852 -39.042969 1162.2031 -53.605469 1189.6211 z "
         id="path867-1-3" />
      <path
         transform="rotate(7.2251636e-4,22.352512,1366.338)"
         style="opacity:1;fill:none;fill-opacity:1;stroke:#ffffff;stroke-width:5;stroke-miterlimit:4;stroke-dasharray:5, 20;stroke-dashoffset:0;stroke-opacity:1"
         d="M -50.316406 1391.3809 C -35.677734 1418.7656 -21.039063 1446.1504 -6.4003906 1473.5352 C 25.279948 1470.5208 56.960286 1467.5065 88.640625 1464.4922 C 105.99609 1435.1549 123.35156 1405.8177 140.70703 1376.4805 C 126.33919 1348.1855 111.97135 1319.8906 97.603516 1291.5957 C 67.208333 1290.8568 36.813151 1290.1178 6.4179688 1289.3789 C -12.49349 1323.3796 -31.404948 1357.3802 -50.316406 1391.3809 z "
         id="path867-15-8" />
      <path
         transform="rotate(0.00808004,22.352535,902.72539)"
         style="opacity:1;fill:none;fill-opacity:1;stroke:#ffffff;stroke-width:5;stroke-miterlimit:4;stroke-dasharray:5, 20;stroke-dashoffset:0;stroke-opacity:1"
         d="M -65.357422 883.23633 C -50.07487 907.0026 -34.792318 930.76888 -19.509766 954.53516 C 10.472005 955.77474 40.453776 957.01432 70.435547 958.25391 C 84.839193 934.19336 99.242839 910.13281 113.64648 886.07227 C 98.090495 861.8737 82.534505 837.67513 66.978516 813.47656 C 37.285156 813.32617 7.5917969 813.17578 -22.101562 813.02539 C -36.520182 836.42904 -50.938802 859.83268 -65.357422 883.23633 z "
         id="path867-83" />
      <path
         style="opacity:1;fill:none;fill-opacity:1;stroke:#ffffff;stroke-width:5;stroke-miterlimit:4;stroke-dasharray:5, 20;stroke-dashoffset:0;stroke-opacity:1"
         d="M 70.435547 958.25391 C 88.486979 984.9349 106.53841 1011.6159 124.58984 1038.2969 C 156.32227 1042.0352 188.05469 1045.7734 219.78711 1049.5117 C 232.93685 1023.7188 246.08659 997.92578 259.23633 972.13281 C 241.80469 944.52083 224.37305 916.90885 206.94141 889.29688 C 175.8444 888.2207 144.7474 887.14453 113.65039 886.06836 C 99.245443 910.13021 84.840495 934.19206 70.435547 958.25391 z "
         id="path867-0-1" />
      <path
         style="opacity:1;fill:none;fill-opacity:1;stroke:#ffffff;stroke-width:5;stroke-miterlimit:4;stroke-dasharray:5, 20;stroke-dashoffset:0;stroke-opacity:1"
         d="M 66.980469 813.47656 C 82.537109 837.67383 98.09375 861.87109 113.65039 886.06836 C 144.7474 887.14453 175.8444 888.2207 206.94141 889.29688 C 221.15169 865.25456 235.36198 841.21224 249.57227 817.16992 C 233.73828 792.14909 217.9043 767.12826 202.07031 742.10742 C 171.97005 741.78581 141.86979 741.46419 111.76953 741.14258 C 96.839844 765.25391 81.910156 789.36523 66.980469 813.47656 z "
         id="path867-8-8" />
      <path
         transform="rotate(0.00922011,22.352535,1057.263)"
         style="opacity:1;fill:none;fill-opacity:1;stroke:#ffffff;stroke-width:5;stroke-miterlimit:4;stroke-dasharray:5, 20;stroke-dashoffset:0;stroke-opacity:1"
         d="M -61.556641 1025.7148 C -44.342448 1052.9323 -27.128255 1080.1497 -9.9140625 1107.3672 C 21.878906 1111.0397 53.671875 1114.7122 85.464844 1118.3848 C 98.50651 1091.6921 111.54818 1064.9993 124.58984 1038.3066 C 106.53711 1011.6224 88.484375 984.93815 70.431641 958.25391 C 40.451823 957.01432 10.472005 955.77474 -19.507812 954.53516 C -33.524089 978.26172 -47.540365 1001.9883 -61.556641 1025.7148 z "
         id="path867-85-9" />
      <path
         style="opacity:1;fill:none;fill-opacity:1;stroke:#ffffff;stroke-width:5;stroke-miterlimit:4;stroke-dasharray:5, 20;stroke-dashoffset:0;stroke-opacity:1"
         d="M 85.46875 1118.3887 C 103.54492 1148.0026 121.62109 1177.6165 139.69727 1207.2305 C 168.4974 1207.7122 197.29753 1208.194 226.09766 1208.6758 C 239.24479 1182.6328 252.39193 1156.5898 265.53906 1130.5469 C 250.28841 1103.5352 235.03776 1076.5234 219.78711 1049.5117 C 188.05469 1045.7734 156.32227 1042.0352 124.58984 1038.2969 C 111.54948 1064.9941 98.509115 1091.6914 85.46875 1118.3887 z "
         id="path867-09-6" />
      <path
         style="opacity:1;fill:none;fill-opacity:1;stroke:#ffffff;stroke-width:5;stroke-miterlimit:4;stroke-dasharray:5, 20;stroke-dashoffset:0;stroke-opacity:1"
         d="M 219.78906 1049.5117 C 235.03971 1076.5234 250.29036 1103.5352 265.54102 1130.5469 C 293.18555 1131.1432 320.83008 1131.7396 348.47461 1132.3359 C 362.0612 1106.6257 375.64779 1080.9154 389.23438 1055.2051 C 374.57096 1028.776 359.90755 1002.347 345.24414 975.91797 C 316.57552 974.65625 287.9069 973.39453 259.23828 972.13281 C 246.08854 997.92578 232.9388 1023.7188 219.78906 1049.5117 z "
         id="path867-6-4" />
      <path
         style="opacity:1;fill:none;fill-opacity:1;stroke:#ffffff;stroke-width:5;stroke-miterlimit:4;stroke-dasharray:5, 20;stroke-dashoffset:0;stroke-opacity:1"
         d="M 206.94336 889.29883 C 224.375 916.91016 241.80664 944.52148 259.23828 972.13281 C 287.9069 973.39453 316.57552 974.65625 345.24414 975.91797 C 358.67643 950.41406 372.10872 924.91016 385.54102 899.40625 C 370.05273 873.24154 354.56445 847.07682 339.07617 820.91211 C 309.24219 819.66471 279.4082 818.41732 249.57422 817.16992 C 235.36393 841.21289 221.15365 865.25586 206.94336 889.29883 z "
         id="path867-3-3" />
      <path
         style="opacity:1;fill:none;fill-opacity:1;stroke:#ffffff;stroke-width:5;stroke-miterlimit:4;stroke-dasharray:5, 20;stroke-dashoffset:0;stroke-opacity:1"
         d="M 202.07227 742.10742 C 217.90625 767.12826 233.74023 792.14909 249.57422 817.16992 C 279.4082 818.41732 309.24219 819.66471 339.07617 820.91211 C 353.11784 795.92708 367.15951 770.94206 381.20117 745.95703 C 365.9668 720.36328 350.73242 694.76953 335.49805 669.17578 C 305.67969 668.8457 275.86133 668.51562 246.04297 668.18555 C 231.38607 692.82617 216.72917 717.4668 202.07227 742.10742 z "
         id="path867-856-3" />
      <path
         style="opacity:1;fill:none;fill-opacity:1;stroke:#ffffff;stroke-width:5;stroke-miterlimit:4;stroke-dasharray:5, 20;stroke-dashoffset:0;stroke-opacity:1"
         d="M 339.07812 820.91211 C 354.56576 847.07617 370.05339 873.24023 385.54102 899.4043 C 414.29102 900.11784 443.04102 900.83138 471.79102 901.54492 C 486.00326 875.98958 500.21549 850.43424 514.42773 824.87891 C 499.48372 799.02604 484.53971 773.17318 469.5957 747.32031 C 440.13086 746.86589 410.66602 746.41146 381.20117 745.95703 C 367.16016 770.94206 353.11914 795.92708 339.07812 820.91211 z "
         id="path867-1-38" />
      <path
         style="opacity:1;fill:none;fill-opacity:1;stroke:#ffffff;stroke-width:5;stroke-miterlimit:4;stroke-dasharray:5, 20;stroke-dashoffset:0;stroke-opacity:1"
         d="M 345.24609 975.91797 C 359.90885 1002.347 374.57161 1028.776 389.23438 1055.2051 C 417.42839 1055.5625 445.6224 1055.9199 473.81641 1056.2773 C 487.84375 1030.64 501.87109 1005.0026 515.89844 979.36523 C 501.19596 953.42513 486.49349 927.48503 471.79102 901.54492 C 443.04102 900.83138 414.29102 900.11784 385.54102 899.4043 C 372.10937 924.90885 358.67773 950.41341 345.24609 975.91797 z "
         id="path867-15-6" />
      <path
         style="opacity:1;fill:none;fill-opacity:1;stroke:#ffffff;stroke-width:5;stroke-miterlimit:4;stroke-dasharray:5, 20;stroke-dashoffset:0;stroke-opacity:1"
         d="M 97.605469 1291.5957 C 111.97331 1319.8913 126.34115 1348.1868 140.70898 1376.4824 C 168.20964 1375.5677 195.71029 1374.653 223.21094 1373.7383 C 237.5319 1346.2057 251.85286 1318.6732 266.17383 1291.1406 C 252.8151 1263.6523 239.45638 1236.1641 226.09766 1208.6758 C 197.29753 1208.1927 168.4974 1207.7096 139.69727 1207.2266 C 125.66667 1235.3496 111.63607 1263.4727 97.605469 1291.5957 z "
         id="path867-2" />
      <path
         style="opacity:1;fill:none;fill-opacity:1;stroke:#ffffff;stroke-width:5;stroke-miterlimit:4;stroke-dasharray:5, 20;stroke-dashoffset:0;stroke-opacity:1"
         d="M 266.17578 1291.1406 C 251.85482 1318.6732 237.53385 1346.2057 223.21289 1373.7383 C 235.83529 1398.9147 248.45768 1424.0911 261.08008 1449.2676 C 289.15625 1448.0859 317.23242 1446.9043 345.30859 1445.7227 C 360.05339 1419.7747 374.79818 1393.8268 389.54297 1367.8789 C 376.17253 1342.1719 362.80208 1316.4648 349.43164 1290.7578 C 321.67969 1290.8854 293.92773 1291.013 266.17578 1291.1406 z "
         id="path867-0-5" />
      <path
         style="opacity:1;fill:none;fill-opacity:1;stroke:#ffffff;stroke-width:5;stroke-miterlimit:4;stroke-dasharray:5, 20;stroke-dashoffset:0;stroke-opacity:1"
         d="M 226.09961 1208.6758 C 239.45833 1236.1641 252.81706 1263.6523 266.17578 1291.1406 C 293.92773 1291.013 321.67969 1290.8854 349.43164 1290.7578 C 363.31641 1264.028 377.20117 1237.2982 391.08594 1210.5684 C 376.88216 1184.4909 362.67839 1158.4134 348.47461 1132.3359 C 320.83008 1131.7396 293.18555 1131.1432 265.54102 1130.5469 C 252.39388 1156.5898 239.24674 1182.6328 226.09961 1208.6758 z "
         id="path867-8-4" />
      <path
         style="opacity:1;fill:none;fill-opacity:1;stroke:#ffffff;stroke-width:5;stroke-miterlimit:4;stroke-dasharray:5, 20;stroke-dashoffset:0;stroke-opacity:1"
         d="M 140.70898 1376.4824 C 123.35352 1405.819 105.99805 1435.1556 88.642578 1464.4922 C 100.92969 1489.2747 113.2168 1514.0573 125.50391 1538.8398 C 155.00065 1535.9707 184.4974 1533.1016 213.99414 1530.2324 C 229.6888 1503.2441 245.38346 1476.2559 261.07812 1449.2676 C 248.45573 1424.0911 235.83333 1398.9147 223.21094 1373.7383 C 195.71029 1374.653 168.20964 1375.5677 140.70898 1376.4824 z "
         id="path867-85-0" />
      <path
         style="opacity:1;fill:none;fill-opacity:1;stroke:#ffffff;stroke-width:5;stroke-miterlimit:4;stroke-dasharray:5, 20;stroke-dashoffset:0;stroke-opacity:1"
         d="M 261.08008 1449.2676 C 245.38542 1476.2559 229.69076 1503.2441 213.99609 1530.2324 C 226.86003 1554.9766 239.72396 1579.7207 252.58789 1604.4648 C 282.15951 1603.653 311.73112 1602.8411 341.30273 1602.0293 C 356.61393 1575.5247 371.92513 1549.0202 387.23633 1522.5156 C 373.26042 1496.918 359.28451 1471.3203 345.30859 1445.7227 C 317.23242 1446.9043 289.15625 1448.0859 261.08008 1449.2676 z "
         id="path867-09-59" />
      <path
         style="opacity:1;fill:none;fill-opacity:1;stroke:#ffffff;stroke-width:5;stroke-miterlimit:4;stroke-dasharray:5, 20;stroke-dashoffset:0;stroke-opacity:1"
         d="M 389.54492 1367.8809 C 374.80013 1393.8281 360.05534 1419.7754 345.31055 1445.7227 C 359.28646 1471.3203 373.26237 1496.918 387.23828 1522.5156 C 415.93034 1522.1921 444.6224 1521.8685 473.31445 1521.5449 C 487.82682 1495.653 502.33919 1469.7611 516.85156 1443.8691 C 502.62565 1418.1263 488.39974 1392.3835 474.17383 1366.6406 C 445.96419 1367.054 417.75456 1367.4674 389.54492 1367.8809 z "
         id="path867-6-46" />
      <path
         style="opacity:1;fill:none;fill-opacity:1;stroke:#ffffff;stroke-width:5;stroke-miterlimit:4;stroke-dasharray:5, 20;stroke-dashoffset:0;stroke-opacity:1"
         d="M 349.43359 1290.7578 C 362.80404 1316.4655 376.17448 1342.1732 389.54492 1367.8809 C 417.75456 1367.4674 445.96419 1367.054 474.17383 1366.6406 C 488.49805 1340.7279 502.82227 1314.8151 517.14648 1288.9023 C 503.00456 1263 488.86263 1237.0977 474.7207 1211.1953 C 446.84375 1210.9863 418.9668 1210.7773 391.08984 1210.5684 C 377.20443 1237.2982 363.31901 1264.028 349.43359 1290.7578 z "
         id="path867-3-9" />
      <path
         style="opacity:1;fill:none;fill-opacity:1;stroke:#ffffff;stroke-width:5;stroke-miterlimit:4;stroke-dasharray:5, 20;stroke-dashoffset:0;stroke-opacity:1"
         d="M 348.47656 1132.3359 C 362.68099 1158.4134 376.88542 1184.4909 391.08984 1210.5684 C 418.9668 1210.7773 446.84375 1210.9863 474.7207 1211.1953 C 488.78255 1185.4219 502.8444 1159.6484 516.90625 1133.875 C 502.54362 1108.0091 488.18099 1082.1432 473.81836 1056.2773 C 445.62435 1055.9199 417.43034 1055.5625 389.23633 1055.2051 C 375.64974 1080.9154 362.06315 1106.6257 348.47656 1132.3359 z "
         id="path867-856-2" />
      <path
         style="opacity:1;fill:none;fill-opacity:1;stroke:#ffffff;stroke-width:5;stroke-miterlimit:4;stroke-dasharray:5, 20;stroke-dashoffset:0;stroke-opacity:1"
         d="M 474.7207 1211.1953 C 488.86328 1237.0977 503.00586 1263 517.14844 1288.9023 C 546.08073 1288.9154 575.01302 1288.9284 603.94531 1288.9414 C 618.5319 1263.1732 633.11849 1237.4049 647.70508 1211.6367 C 632.96875 1185.8275 618.23242 1160.0182 603.49609 1134.209 C 574.63346 1134.0977 545.77083 1133.9863 516.9082 1133.875 C 502.8457 1159.6484 488.7832 1185.4219 474.7207 1211.1953 z "
         id="path867-1-2" />
      <path
         style="opacity:1;fill:none;fill-opacity:1;stroke:#ffffff;stroke-width:5;stroke-miterlimit:4;stroke-dasharray:5, 20;stroke-dashoffset:0;stroke-opacity:1"
         d="M 474.17383 1366.6406 C 488.40039 1392.3835 502.62695 1418.1263 516.85352 1443.8691 C 545.87435 1443.8138 574.89518 1443.7585 603.91602 1443.7031 C 618.57747 1417.9264 633.23893 1392.1497 647.90039 1366.373 C 633.2487 1340.5625 618.59701 1314.752 603.94531 1288.9414 C 575.01302 1288.9284 546.08073 1288.9154 517.14844 1288.9023 C 502.82357 1314.8151 488.4987 1340.7279 474.17383 1366.6406 z "
         id="path867-15-4" />
      <path
         style="opacity:1;fill:none;fill-opacity:1;stroke:#ffffff;stroke-width:5;stroke-miterlimit:4;stroke-dasharray:5, 20;stroke-dashoffset:0;stroke-opacity:1"
         d="M -340.14258 1690.877 C -324.11979 1715.3711 -308.09701 1739.8652 -292.07422 1764.3594 C -261.83789 1764.7402 -231.60156 1765.1211 -201.36523 1765.502 C -186.70638 1741.9342 -172.04753 1718.3665 -157.38867 1694.7988 C -172.86654 1670.6667 -188.3444 1646.5345 -203.82227 1622.4023 C -235.20117 1621.0065 -266.58008 1619.6107 -297.95898 1618.2148 C -312.02018 1642.4355 -326.08138 1666.6563 -340.14258 1690.877 z "
         id="path867-7" />
      <path
         style="opacity:1;fill:none;fill-opacity:1;stroke:#ffffff;stroke-width:5;stroke-miterlimit:4;stroke-dasharray:5, 20;stroke-dashoffset:0;stroke-opacity:1"
         d="M -157.38672 1694.7988 C -172.04557 1718.3665 -186.70443 1741.9342 -201.36328 1765.502 C -186.12956 1789.651 -170.89583 1813.8001 -155.66211 1837.9492 C -125.63216 1837.7728 -95.602214 1837.5964 -65.572266 1837.4199 C -50.113281 1813.0527 -34.654297 1788.6855 -19.195312 1764.3184 C -33.192708 1741.0573 -47.190104 1717.7962 -61.1875 1694.5352 C -93.253906 1694.623 -125.32031 1694.7109 -157.38672 1694.7988 z "
         id="path867-0-7" />
      <path
         style="opacity:1;fill:none;fill-opacity:1;stroke:#ffffff;stroke-width:5;stroke-miterlimit:4;stroke-dasharray:5, 20;stroke-dashoffset:0;stroke-opacity:1"
         d="M -158.18945 1551.8379 C -173.39974 1575.3594 -188.61003 1598.8809 -203.82031 1622.4023 C -188.34245 1646.5345 -172.86458 1670.6667 -157.38672 1694.7988 C -125.32031 1694.7109 -93.253906 1694.623 -61.1875 1694.5352 C -45.322266 1669.8776 -29.457031 1645.2201 -13.591797 1620.5625 C -28.190104 1597.1426 -42.788411 1573.7227 -57.386719 1550.3027 C -90.98763 1550.8145 -124.58854 1551.3262 -158.18945 1551.8379 z "
         id="path867-8-5" />
      <path
         style="opacity:1;fill:none;fill-opacity:1;stroke:#ffffff;stroke-width:5;stroke-miterlimit:4;stroke-dasharray:5, 20;stroke-dashoffset:0;stroke-opacity:1"
         d="M -336.24414 1836.8164 C -320.98112 1861.6419 -305.7181 1886.4674 -290.45508 1911.293 C -260.52344 1911.3796 -230.5918 1911.4661 -200.66016 1911.5527 C -185.66146 1887.0182 -170.66276 1862.4837 -155.66406 1837.9492 C -170.89779 1813.8001 -186.13151 1789.651 -201.36523 1765.502 C -231.60156 1765.1211 -261.83789 1764.7402 -292.07422 1764.3594 C -306.79753 1788.5117 -321.52083 1812.6641 -336.24414 1836.8164 z "
         id="path867-85-4" />
      <path
         style="opacity:1;fill:none;fill-opacity:1;stroke:#ffffff;stroke-width:5;stroke-miterlimit:4;stroke-dasharray:5, 20;stroke-dashoffset:0;stroke-opacity:1"
         d="M -155.66211 1837.9492 C -170.66081 1862.4837 -185.65951 1887.0182 -200.6582 1911.5527 C -185.77083 1936.4674 -170.88346 1961.3822 -155.99609 1986.2969 C -126.22656 1986.2096 -96.457031 1986.1224 -66.6875 1986.0352 C -51.697266 1960.9154 -36.707031 1935.7956 -21.716797 1910.6758 C -36.335286 1886.2572 -50.953776 1861.8385 -65.572266 1837.4199 C -95.602214 1837.5964 -125.63216 1837.7728 -155.66211 1837.9492 z "
         id="path867-09-8" />
      <path
         style="opacity:1;fill:none;fill-opacity:1;stroke:#ffffff;stroke-width:5;stroke-miterlimit:4;stroke-dasharray:5, 20;stroke-dashoffset:0;stroke-opacity:1"
         d="M -19.193359 1764.3184 C -34.652344 1788.6855 -50.111328 1813.0527 -65.570312 1837.4199 C -50.951823 1861.8385 -36.333333 1886.2572 -21.714844 1910.6758 C 7.9700521 1910.4915 37.654948 1910.3073 67.339844 1910.123 C 82.338542 1885.0944 97.33724 1860.0658 112.33594 1835.0371 C 97.98112 1810.6517 83.626302 1786.2663 69.271484 1761.8809 C 39.783203 1762.6934 10.294922 1763.5059 -19.193359 1764.3184 z "
         id="path867-6-1" />
      <path
         style="opacity:1;fill:none;fill-opacity:1;stroke:#ffffff;stroke-width:5;stroke-miterlimit:4;stroke-dasharray:5, 20;stroke-dashoffset:0;stroke-opacity:1"
         d="M -13.589844 1620.5625 C -29.455078 1645.2201 -45.320312 1669.8776 -61.185547 1694.5352 C -47.188151 1717.7962 -33.190755 1741.0573 -19.193359 1764.3184 C 10.294922 1763.5059 39.783203 1762.6934 69.271484 1761.8809 C 84.645833 1737.0866 100.02018 1712.2923 115.39453 1687.498 C 101.88281 1663.8483 88.371094 1640.1986 74.859375 1616.5488 C 45.376302 1617.8867 15.893229 1619.2246 -13.589844 1620.5625 z "
         id="path867-3-2" />
      <path
         style="opacity:1;fill:none;fill-opacity:1;stroke:#ffffff;stroke-width:5;stroke-miterlimit:4;stroke-dasharray:5, 20;stroke-dashoffset:0;stroke-opacity:1"
         d="M -6.3984375 1473.5352 C -23.39388 1499.1237 -40.389323 1524.7122 -57.384766 1550.3008 C -42.786458 1573.7214 -28.188151 1597.1419 -13.589844 1620.5625 C 15.893229 1619.2246 45.376302 1617.8867 74.859375 1616.5488 C 91.740234 1590.6458 108.62109 1564.7428 125.50195 1538.8398 C 113.21549 1514.0573 100.92904 1489.2747 88.642578 1464.4922 C 56.96224 1467.5065 25.281901 1470.5208 -6.3984375 1473.5352 z "
         id="path867-856-8" />
      <path
         style="opacity:1;fill:none;fill-opacity:1;stroke:#ffffff;stroke-width:5;stroke-miterlimit:4;stroke-dasharray:5, 20;stroke-dashoffset:0;stroke-opacity:1"
         d="M 125.50391 1538.8398 C 108.6224 1564.7428 91.740885 1590.6458 74.859375 1616.5488 C 88.371745 1640.1986 101.88411 1663.8483 115.39648 1687.498 C 145.23242 1686.3724 175.06836 1685.2467 204.9043 1684.1211 C 220.79818 1657.5684 236.69206 1631.0156 252.58594 1604.4629 C 239.72201 1579.7194 226.85807 1554.9759 213.99414 1530.2324 C 184.4974 1533.1016 155.00065 1535.9707 125.50391 1538.8398 z "
         id="path867-1-9" />
      <path
         style="opacity:1;fill:none;fill-opacity:1;stroke:#ffffff;stroke-width:5;stroke-miterlimit:4;stroke-dasharray:5, 20;stroke-dashoffset:0;stroke-opacity:1"
         d="M 115.39648 1687.498 C 100.02148 1712.2923 84.646484 1737.0866 69.271484 1761.8809 C 83.626953 1786.2663 97.982422 1810.6517 112.33789 1835.0371 C 142.06576 1834.7904 171.79362 1834.5436 201.52148 1834.2969 C 216.76823 1809.0404 232.01497 1783.7839 247.26172 1758.5273 C 233.14258 1733.7253 219.02344 1708.9232 204.9043 1684.1211 C 175.06836 1685.2467 145.23242 1686.3724 115.39648 1687.498 z "
         id="path867-15-3" />
      <path
         transform="rotate(0.03197677,-914.48529,1289.0701)"
         style="opacity:1;fill:none;fill-opacity:1;stroke:#ffffff;stroke-width:5;stroke-miterlimit:4;stroke-dasharray:5, 20;stroke-dashoffset:0;stroke-opacity:1"
         d="M -959.53516 1211.7148 C -974.31445 1237.4987 -989.09375 1263.2826 -1003.873 1289.0664 C -989.12565 1314.8451 -974.37826 1340.6237 -959.63086 1366.4023 C -930.53385 1366.4714 -901.43685 1366.5404 -872.33984 1366.6094 C -858.04167 1340.6764 -843.74349 1314.7435 -829.44531 1288.8105 C -843.63997 1262.9798 -857.83464 1237.1491 -872.0293 1211.3184 C -901.19792 1211.4505 -930.36654 1211.5827 -959.53516 1211.7148 z "
         id="path867-68" />
      <path
         transform="rotate(0.03956803,-780.65131,1366.3396)"
         style="opacity:1;fill:none;fill-opacity:1;stroke:#ffffff;stroke-width:5;stroke-miterlimit:4;stroke-dasharray:5, 20;stroke-dashoffset:0;stroke-opacity:1"
         d="M -829.45312 1288.8105 C -843.75 1314.7441 -858.04687 1340.6777 -872.34375 1366.6113 C -857.72852 1392.6107 -843.11328 1418.61 -828.49805 1444.6094 C -799.86458 1445.1367 -771.23112 1445.6641 -742.59766 1446.1914 C -729.12565 1420.362 -715.65365 1394.5326 -702.18164 1368.7031 C -716.41992 1342.0378 -730.6582 1315.3724 -744.89648 1288.707 C -773.08203 1288.7415 -801.26758 1288.776 -829.45312 1288.8105 z "
         id="path867-0-0" />
      <path
         transform="rotate(0.06740038,-780.65131,1211.8017)"
         style="opacity:1;fill:none;fill-opacity:1;stroke:#ffffff;stroke-width:5;stroke-miterlimit:4;stroke-dasharray:5, 20;stroke-dashoffset:0;stroke-opacity:1"
         d="M -828.16992 1133.5801 C -842.78971 1159.4928 -857.40951 1185.4056 -872.0293 1211.3184 C -857.83464 1237.1497 -843.63997 1262.9811 -829.44531 1288.8125 C -801.26042 1288.7773 -773.07552 1288.7422 -744.89062 1288.707 C -730.83333 1262.2448 -716.77604 1235.7826 -702.71875 1209.3203 C -716.19531 1183.6667 -729.67188 1158.013 -743.14844 1132.3594 C -771.48893 1132.7663 -799.82943 1133.1732 -828.16992 1133.5801 z "
         id="path867-8-2" />
      <path
         transform="rotate(0.01191307,-914.48529,1443.6041)"
         style="opacity:1;fill:none;fill-opacity:1;stroke:#ffffff;stroke-width:5;stroke-miterlimit:4;stroke-dasharray:5, 20;stroke-dashoffset:0;stroke-opacity:1"
         d="M -1003.7793 1443.6289 C -988.95313 1469.3984 -974.12695 1495.168 -959.30078 1520.9375 C -929.92122 1521.0859 -900.54167 1521.2344 -871.16211 1521.3828 C -856.94141 1495.7917 -842.7207 1470.2005 -828.5 1444.6094 C -843.11458 1418.61 -857.72917 1392.6107 -872.34375 1366.6113 C -901.43945 1366.5417 -930.53516 1366.472 -959.63086 1366.4023 C -974.34701 1392.1445 -989.06315 1417.8867 -1003.7793 1443.6289 z "
         id="path867-85-1" />
      <path
         transform="rotate(0.01268976,-780.65131,1520.8711)"
         style="opacity:1;fill:none;fill-opacity:1;stroke:#ffffff;stroke-width:5;stroke-miterlimit:4;stroke-dasharray:5, 20;stroke-dashoffset:0;stroke-opacity:1"
         d="M -871.16211 1521.3828 C -856.27018 1547.2057 -841.37826 1573.0286 -826.48633 1598.8516 C -797.33138 1599.3008 -768.17643 1599.75 -739.02148 1600.1992 C -725.28841 1575.0534 -711.55534 1549.9076 -697.82227 1524.7617 C -712.74805 1498.5723 -727.67383 1472.3828 -742.59961 1446.1934 C -771.23307 1445.6654 -799.86654 1445.1374 -828.5 1444.6094 C -842.7207 1470.2005 -856.94141 1495.7917 -871.16211 1521.3828 z "
         id="path867-09-0" />
      <path
         transform="rotate(0.03480105,-646.81732,1443.6085)"
         style="opacity:1;fill:none;fill-opacity:1;stroke:#ffffff;stroke-width:5;stroke-miterlimit:4;stroke-dasharray:5, 20;stroke-dashoffset:0;stroke-opacity:1"
         d="M -742.60156 1446.1914 C -727.67448 1472.3815 -712.7474 1498.5716 -697.82031 1524.7617 C -669.26758 1525.821 -640.71484 1526.8802 -612.16211 1527.9395 C -598.76042 1502.5495 -585.35872 1477.1595 -571.95703 1451.7695 C -587.43945 1425.1165 -602.92187 1398.4635 -618.4043 1371.8105 C -646.33073 1370.7747 -674.25716 1369.7389 -702.18359 1368.7031 C -715.65625 1394.5326 -729.12891 1420.362 -742.60156 1446.1914 z "
         id="path867-6-5" />
      <path
         transform="rotate(0.0696246,-646.81732,1289.0707)"
         style="opacity:1;fill:none;fill-opacity:1;stroke:#ffffff;stroke-width:5;stroke-miterlimit:4;stroke-dasharray:5, 20;stroke-dashoffset:0;stroke-opacity:1"
         d="M -702.71875 1209.3164 C -716.77669 1235.776 -730.83464 1262.2357 -744.89258 1288.6953 C -730.65365 1315.3626 -716.41471 1342.0299 -702.17578 1368.6973 C -674.25195 1369.7331 -646.32812 1370.7689 -618.4043 1371.8047 C -605.11003 1344.6185 -591.81576 1317.4323 -578.52148 1290.2461 C -592.0931 1262.5345 -605.66471 1234.8229 -619.23633 1207.1113 C -647.0638 1207.8464 -674.89128 1208.5814 -702.71875 1209.3164 z "
         id="path867-3-1" />
      <path
         transform="rotate(0.0964172,-646.81732,1134.5326)"
         style="opacity:1;fill:none;fill-opacity:1;stroke:#ffffff;stroke-width:5;stroke-miterlimit:4;stroke-dasharray:5, 20;stroke-dashoffset:0;stroke-opacity:1"
         d="M -699.67578 1054.5898 C -714.16536 1080.5137 -728.65495 1106.4375 -743.14453 1132.3613 C -729.66341 1158.0156 -716.18229 1183.6699 -702.70117 1209.3242 C -674.87174 1208.5879 -647.04232 1207.8516 -619.21289 1207.1152 C -604.25716 1180.9824 -589.30143 1154.8496 -574.3457 1128.7168 C -588.07161 1103.3542 -601.79753 1077.9915 -615.52344 1052.6289 C -643.57422 1053.2826 -671.625 1053.9362 -699.67578 1054.5898 z "
         id="path867-856-1" />
      <path
         transform="rotate(0.08789207,-512.98334,1211.8018)"
         style="opacity:1;fill:none;fill-opacity:1;stroke:#ffffff;stroke-width:5;stroke-miterlimit:4;stroke-dasharray:5, 20;stroke-dashoffset:0;stroke-opacity:1"
         d="M -574.3457 1128.7129 C -589.30534 1154.8444 -604.26497 1180.9759 -619.22461 1207.1074 C -605.65039 1234.8027 -592.07617 1262.498 -578.50195 1290.1934 C -548.35221 1290.8789 -518.20247 1291.5645 -488.05273 1292.25 C -473.70117 1262.6328 -459.34961 1233.0156 -444.99805 1203.3984 C -459.21354 1178.11 -473.42904 1152.8216 -487.64453 1127.5332 C -516.54492 1127.9264 -545.44531 1128.3197 -574.3457 1128.7129 z "
         id="path867-1-0" />
      <path
         transform="rotate(0.0543985,-512.98334,1366.3398)"
         style="opacity:1;fill:none;fill-opacity:1;stroke:#ffffff;stroke-width:5;stroke-miterlimit:4;stroke-dasharray:5, 20;stroke-dashoffset:0;stroke-opacity:1"
         d="M -618.41016 1371.8066 C -602.92839 1398.459 -587.44661 1425.1113 -571.96484 1451.7637 C -542.55013 1452.8073 -513.13542 1453.8509 -483.7207 1454.8945 C -470.4694 1429.4232 -457.2181 1403.9518 -443.9668 1378.4805 C -458.66797 1349.7305 -473.36914 1320.9805 -488.07031 1292.2305 C -518.22201 1291.5553 -548.3737 1290.8802 -578.52539 1290.2051 C -591.82031 1317.4056 -605.11523 1344.6061 -618.41016 1371.8066 z "
         id="path867-15-85" />
      <path
         transform="rotate(1.1793321e-4,-780.65137,1675.3838)"
         style="opacity:1;fill:none;fill-opacity:1;stroke:#ffffff;stroke-width:5;stroke-miterlimit:4;stroke-dasharray:5, 20;stroke-dashoffset:0;stroke-opacity:1"
         d="M -870.17188 1675.584 C -855.2819 1701.3457 -840.39193 1727.1074 -825.50195 1752.8691 C -795.9681 1753.0345 -766.43424 1753.1999 -736.90039 1753.3652 C -722.57357 1728.0293 -708.24674 1702.6934 -693.91992 1677.3574 C -708.95443 1651.638 -723.98893 1625.9186 -739.02344 1600.1992 C -768.17839 1599.75 -797.33333 1599.3008 -826.48828 1598.8516 C -841.04948 1624.429 -855.61068 1650.0065 -870.17188 1675.584 z "
         id="path867-06" />
      <path
         style="opacity:1;fill:none;fill-opacity:1;stroke:#ffffff;stroke-width:5;stroke-miterlimit:4;stroke-dasharray:5, 20;stroke-dashoffset:0;stroke-opacity:1"
         d="M -736.89844 1753.3652 C -721.95898 1779.0924 -707.01953 1804.8197 -692.08008 1830.5469 C -662.59701 1830.8613 -633.11393 1831.1758 -603.63086 1831.4902 C -589.39453 1806.3477 -575.1582 1781.2051 -560.92188 1756.0625 C -576.14062 1730.4902 -591.35938 1704.918 -606.57812 1679.3457 C -635.69141 1678.6829 -664.80469 1678.0202 -693.91797 1677.3574 C -708.24479 1702.6934 -722.57161 1728.0293 -736.89844 1753.3652 z "
         id="path867-0-46" />
      <path
         transform="rotate(0.00764528,-646.81738,1598.1643)"
         style="opacity:1;fill:none;fill-opacity:1;stroke:#ffffff;stroke-width:5;stroke-miterlimit:4;stroke-dasharray:5, 20;stroke-dashoffset:0;stroke-opacity:1"
         d="M -739.02344 1600.1992 C -723.98828 1625.9186 -708.95312 1651.638 -693.91797 1677.3574 C -664.80469 1678.0202 -635.69141 1678.6829 -606.57812 1679.3457 C -592.86719 1654.8001 -579.15625 1630.2546 -565.44531 1605.709 C -581.01888 1579.7865 -596.59245 1553.8639 -612.16602 1527.9414 C -640.71875 1526.8822 -669.27148 1525.8229 -697.82422 1524.7637 C -711.55729 1549.9089 -725.29036 1575.054 -739.02344 1600.1992 z "
         id="path867-8-25" />
      <path
         style="opacity:1;fill:none;fill-opacity:1;stroke:#ffffff;stroke-width:5;stroke-miterlimit:4;stroke-dasharray:5, 20;stroke-dashoffset:0;stroke-opacity:1"
         d="M -869.88477 1829.9668 C -855.01042 1855.7188 -840.13607 1881.4707 -825.26172 1907.2227 C -795.55404 1907.2507 -765.84635 1907.2786 -736.13867 1907.3066 C -721.45313 1881.7201 -706.76758 1856.1335 -692.08203 1830.5469 C -707.02148 1804.8197 -721.96094 1779.0924 -736.90039 1753.3652 C -766.43424 1753.1999 -795.9681 1753.0345 -825.50195 1752.8691 C -840.29622 1778.5684 -855.09049 1804.2676 -869.88477 1829.9668 z "
         id="path867-85-86" />
      <path
         style="opacity:1;fill:none;fill-opacity:1;stroke:#ffffff;stroke-width:5;stroke-miterlimit:4;stroke-dasharray:5, 20;stroke-dashoffset:0;stroke-opacity:1"
         d="M -736.13672 1907.3066 C -721.24805 1933.0488 -706.35937 1958.791 -691.4707 1984.5332 C -661.77539 1984.599 -632.08008 1984.6647 -602.38477 1984.7305 C -587.71745 1959.2747 -573.05013 1933.819 -558.38281 1908.3633 C -573.46549 1882.7383 -588.54818 1857.1133 -603.63086 1831.4883 C -633.11393 1831.1738 -662.59701 1830.8594 -692.08008 1830.5449 C -706.76562 1856.1322 -721.45117 1881.7194 -736.13672 1907.3066 z "
         id="path867-09-2" />
      <path
         style="opacity:1;fill:none;fill-opacity:1;stroke:#ffffff;stroke-width:5;stroke-miterlimit:4;stroke-dasharray:5, 20;stroke-dashoffset:0;stroke-opacity:1"
         d="M -603.62891 1831.4902 C -588.54622 1857.1146 -573.46354 1882.7389 -558.38086 1908.3633 C -528.7168 1908.7031 -499.05273 1909.043 -469.38867 1909.3828 C -454.98437 1884.5905 -440.58008 1859.7982 -426.17578 1835.0059 C -441.78385 1809.5449 -457.39193 1784.084 -473 1758.623 C -502.30664 1757.7695 -531.61328 1756.916 -560.91992 1756.0625 C -575.15625 1781.2051 -589.39258 1806.3477 -603.62891 1831.4902 z "
         id="path867-6-8" />
      <path
         transform="rotate(0.00134905,-512.9834,1675.4112)"
         style="opacity:1;fill:none;fill-opacity:1;stroke:#ffffff;stroke-width:5;stroke-miterlimit:4;stroke-dasharray:5, 20;stroke-dashoffset:0;stroke-opacity:1"
         d="M -606.57617 1679.3457 C -591.35742 1704.918 -576.13867 1730.4902 -560.91992 1756.0625 C -531.61328 1756.916 -502.30664 1757.7695 -473 1758.623 C -459.46029 1734.235 -445.92057 1709.847 -432.38086 1685.459 C -447.75521 1659.8138 -463.12956 1634.1686 -478.50391 1608.5234 C -507.48372 1607.5859 -536.46354 1606.6484 -565.44336 1605.7109 C -579.1543 1630.2559 -592.86523 1654.8008 -606.57617 1679.3457 z "
         id="path867-3-4" />
      <path
         transform="rotate(0.02051243,-512.9834,1520.8781)"
         style="opacity:1;fill:none;fill-opacity:1;stroke:#ffffff;stroke-width:5;stroke-miterlimit:4;stroke-dasharray:5, 20;stroke-dashoffset:0;stroke-opacity:1"
         d="M -612.16992 1527.9434 C -596.5931 1553.8652 -581.01628 1579.7871 -565.43945 1605.709 C -536.45964 1606.6471 -507.47982 1607.5853 -478.5 1608.5234 C -464.95378 1583.9036 -451.40755 1559.2839 -437.86133 1534.6641 C -453.14714 1508.0723 -468.43294 1481.4805 -483.71875 1454.8887 C -513.13216 1453.849 -542.54557 1452.8092 -571.95898 1451.7695 C -585.36263 1477.1608 -598.76628 1502.5521 -612.16992 1527.9434 z "
         id="path867-856-7" />
      <path
         transform="rotate(0.0055054,-379.14941,1598.1288)"
         style="opacity:1;fill:none;fill-opacity:1;stroke:#ffffff;stroke-width:5;stroke-miterlimit:4;stroke-dasharray:5, 20;stroke-dashoffset:0;stroke-opacity:1"
         d="M -478.50195 1608.5234 C -463.1276 1634.1686 -447.75326 1659.8138 -432.37891 1685.459 C -401.63411 1687.265 -370.88932 1689.071 -340.14453 1690.877 C -326.08268 1666.6556 -312.02083 1642.4342 -297.95898 1618.2129 C -315.89714 1591.5645 -333.83529 1564.916 -351.77344 1538.2676 C -380.4707 1537.0664 -409.16797 1535.8652 -437.86523 1534.6641 C -451.41081 1559.2839 -464.95638 1583.9036 -478.50195 1608.5234 z "
         id="path867-1-24" />
      <path
         style="opacity:1;fill:none;fill-opacity:1;stroke:#ffffff;stroke-width:5;stroke-miterlimit:4;stroke-dasharray:5, 20;stroke-dashoffset:0;stroke-opacity:1"
         d="M -473 1758.623 C -457.39128 1784.084 -441.78255 1809.5449 -426.17383 1835.0059 C -396.19792 1835.61 -366.22201 1836.2142 -336.24609 1836.8184 C -321.52279 1812.6654 -306.79948 1788.5124 -292.07617 1764.3594 C -308.09896 1739.8652 -324.12174 1715.3711 -340.14453 1690.877 C -370.88932 1689.071 -401.63411 1687.265 -432.37891 1685.459 C -445.91927 1709.847 -459.45964 1734.235 -473 1758.623 z "
         id="path867-15-0" />
      <path
         transform="rotate(0.00119104,-111.4814,516.37914)"
         style="opacity:1;fill:none;fill-opacity:1;stroke:#ffffff;stroke-width:5;stroke-miterlimit:4;stroke-dasharray:5, 20;stroke-dashoffset:0;stroke-opacity:1"
         d="M -200.70117 516 C -185.7806 541.44727 -170.86003 566.89453 -155.93945 592.3418 C -126.2207 592.40495 -96.501953 592.4681 -66.783203 592.53125 C -51.92513 567.05534 -37.067057 541.57943 -22.208984 516.10352 C -37.091797 490.42383 -51.974609 464.74414 -66.857422 439.06445 C -96.602214 439.05924 -126.34701 439.05404 -156.0918 439.04883 C -170.96159 464.69922 -185.83138 490.34961 -200.70117 516 z "
         id="path867-62" />
      <path
         style="opacity:1;fill:none;fill-opacity:1;stroke:#ffffff;stroke-width:5;stroke-miterlimit:4;stroke-dasharray:5, 20;stroke-dashoffset:0;stroke-opacity:1"
         d="M -22.208984 516.10352 C -37.067057 541.57943 -51.92513 567.05534 -66.783203 592.53125 C -51.96875 617.57292 -37.154297 642.61458 -22.339844 667.65625 C 7.3808594 667.5957 37.101562 667.53516 66.822266 667.47461 C 81.72526 642.44531 96.628255 617.41602 111.53125 592.38672 C 96.677734 566.95768 81.824219 541.52865 66.970703 516.09961 C 37.244141 516.10091 7.5175781 516.10221 -22.208984 516.10352 z "
         id="path867-0-9" />
      <path
         style="opacity:1;fill:none;fill-opacity:1;stroke:#ffffff;stroke-width:5;stroke-miterlimit:4;stroke-dasharray:5, 20;stroke-dashoffset:0;stroke-opacity:1"
         d="M -66.857422 439.06445 C -51.974609 464.74414 -37.091797 490.42383 -22.208984 516.10352 C 7.5175781 516.10221 37.244141 516.10091 66.970703 516.09961 C 81.839193 490.43555 96.707682 464.77148 111.57617 439.10742 C 96.705729 413.35221 81.835286 387.59701 66.964844 361.8418 C 37.223958 361.8418 7.4830729 361.8418 -22.257812 361.8418 C -37.124349 387.58268 -51.990885 413.32357 -66.857422 439.06445 z "
         id="path867-8-9" />
      <path
         transform="rotate(0.01185592,-111.4814,670.91804)"
         style="opacity:1;fill:none;fill-opacity:1;stroke:#ffffff;stroke-width:5;stroke-miterlimit:4;stroke-dasharray:5, 20;stroke-dashoffset:0;stroke-opacity:1"
         d="M -200.11523 667.0957 C -185.12174 691.56055 -170.12826 716.02539 -155.13477 740.49023 C -125.63151 740.65234 -96.128255 740.81445 -66.625 740.97656 C -51.863932 716.53646 -37.102865 692.09635 -22.341797 667.65625 C -37.155599 642.61458 -51.969401 617.57292 -66.783203 592.53125 C -96.501953 592.4681 -126.2207 592.40495 -155.93945 592.3418 C -170.66471 617.25977 -185.38997 642.17773 -200.11523 667.0957 z "
         id="path867-85-08" />
      <path
         transform="rotate(0.00318861,22.352581,748.18807)"
         style="opacity:1;fill:none;fill-opacity:1;stroke:#ffffff;stroke-width:5;stroke-miterlimit:4;stroke-dasharray:5, 20;stroke-dashoffset:0;stroke-opacity:1"
         d="M -22.339844 667.65625 C -37.101562 692.09701 -51.863281 716.53776 -66.625 740.97852 C -51.783854 764.99414 -36.942708 789.00977 -22.101562 813.02539 C 7.5924479 813.17578 37.286458 813.32617 66.980469 813.47656 C 81.910156 789.36523 96.839844 765.25391 111.76953 741.14258 C 96.787109 716.58659 81.804687 692.0306 66.822266 667.47461 C 37.101563 667.53516 7.3808594 667.5957 -22.339844 667.65625 z "
         id="path867-09-1" />
      <path
         style="opacity:1;fill:none;fill-opacity:1;stroke:#ffffff;stroke-width:5;stroke-miterlimit:4;stroke-dasharray:5, 20;stroke-dashoffset:0;stroke-opacity:1"
         d="M 66.822266 667.47461 C 81.804688 692.0306 96.787109 716.58659 111.76953 741.14258 C 141.87044 741.46419 171.97135 741.78581 202.07227 742.10742 C 216.72917 717.4668 231.38607 692.82617 246.04297 668.18555 C 230.98698 642.9401 215.93099 617.69466 200.875 592.44922 C 171.09375 592.42839 141.3125 592.40755 111.53125 592.38672 C 96.628255 617.41602 81.72526 642.44531 66.822266 667.47461 z "
         id="path867-6-3" />
      <path
         style="opacity:1;fill:none;fill-opacity:1;stroke:#ffffff;stroke-width:5;stroke-miterlimit:4;stroke-dasharray:5, 20;stroke-dashoffset:0;stroke-opacity:1"
         d="M 111.57617 439.10742 C 96.707682 464.77148 81.839193 490.43555 66.970703 516.09961 C 81.824219 541.52865 96.677734 566.95768 111.53125 592.38672 C 141.3125 592.40755 171.09375 592.42839 200.875 592.44922 C 215.73047 567.0026 230.58594 541.55599 245.44141 516.10938 C 230.56055 490.44076 215.67969 464.77214 200.79883 439.10352 C 171.05794 439.10482 141.31706 439.10612 111.57617 439.10742 z "
         id="path867-3-11" />
      <path
         style="opacity:1;fill:none;fill-opacity:1;stroke:#ffffff;stroke-width:5;stroke-miterlimit:4;stroke-dasharray:5, 20;stroke-dashoffset:0;stroke-opacity:1"
         d="M 66.964844 361.8418 C 81.835286 387.59701 96.705729 413.35221 111.57617 439.10742 C 141.31706 439.10612 171.05794 439.10482 200.79883 439.10352 C 215.66927 413.34961 230.53971 387.5957 245.41016 361.8418 C 230.53971 336.08529 215.66927 310.32878 200.79883 284.57227 C 171.05794 284.57227 141.31706 284.57227 111.57617 284.57227 C 96.705729 310.32878 81.835286 336.08529 66.964844 361.8418 z "
         id="path867-856-0" />
      <path
         style="opacity:1;fill:none;fill-opacity:1;stroke:#ffffff;stroke-width:5;stroke-miterlimit:4;stroke-dasharray:5, 20;stroke-dashoffset:0;stroke-opacity:1"
         d="M 200.79883 439.10352 C 215.67969 464.77214 230.56055 490.44076 245.44141 516.10938 C 275.18555 516.14714 304.92969 516.1849 334.67383 516.22266 C 349.52995 490.51888 364.38607 464.8151 379.24219 439.11133 C 364.3724 413.35482 349.5026 387.59831 334.63281 361.8418 C 304.89193 361.8418 275.15104 361.8418 245.41016 361.8418 C 230.53971 387.5957 215.66927 413.34961 200.79883 439.10352 z "
         id="path867-1-34" />
      <path
         style="opacity:1;fill:none;fill-opacity:1;stroke:#ffffff;stroke-width:5;stroke-miterlimit:4;stroke-dasharray:5, 20;stroke-dashoffset:0;stroke-opacity:1"
         d="M 200.875 592.44922 C 215.93099 617.69466 230.98698 642.9401 246.04297 668.18555 C 275.86198 668.51562 305.68099 668.8457 335.5 669.17578 C 350.16602 643.83333 364.83203 618.49089 379.49805 593.14844 C 364.55664 567.50651 349.61523 541.86458 334.67383 516.22266 C 304.92969 516.1849 275.18555 516.14714 245.44141 516.10938 C 230.58594 541.55599 215.73047 567.0026 200.875 592.44922 z "
         id="path867-15-03" />
      <path
         transform="rotate(0.02123698,-646.81732,516.38178)"
         style="opacity:1;fill:none;fill-opacity:1;stroke:#ffffff;stroke-width:5;stroke-miterlimit:4;stroke-dasharray:5, 20;stroke-dashoffset:0;stroke-opacity:1"
         d="M -736.03906 516.38086 C -721.21354 542.08008 -706.38802 567.7793 -691.5625 593.47852 C -661.88802 593.32552 -632.21354 593.17253 -602.53906 593.01953 C -587.57943 567.41016 -572.61979 541.80078 -557.66016 516.19141 C -572.50846 490.49805 -587.35677 464.80469 -602.20508 439.11133 C -631.94596 439.11133 -661.68685 439.11133 -691.42773 439.11133 C -706.29818 464.86784 -721.16862 490.62435 -736.03906 516.38086 z "
         id="path867-9" />
      <path
         transform="rotate(0.03882432,-512.98334,593.64951)"
         style="opacity:1;fill:none;fill-opacity:1;stroke:#ffffff;stroke-width:5;stroke-miterlimit:4;stroke-dasharray:5, 20;stroke-dashoffset:0;stroke-opacity:1"
         d="M -557.66016 516.19141 C -572.61914 541.80013 -587.57812 567.40885 -602.53711 593.01758 C -587.96875 618.16016 -573.40039 643.30273 -558.83203 668.44531 C -529.00065 667.9974 -499.16927 667.54948 -469.33789 667.10156 C -454.20964 642.04753 -439.08138 616.99349 -423.95312 591.93945 C -438.77669 566.63802 -453.60026 541.33659 -468.42383 516.03516 C -498.16927 516.08724 -527.91471 516.13932 -557.66016 516.19141 z "
         id="path867-0-19" />
      <path
         transform="rotate(0.0097007,-512.98334,439.11484)"
         style="opacity:1;fill:none;fill-opacity:1;stroke:#ffffff;stroke-width:5;stroke-miterlimit:4;stroke-dasharray:5, 20;stroke-dashoffset:0;stroke-opacity:1"
         d="M -602.20508 439.11133 C -587.35677 464.80469 -572.50846 490.49805 -557.66016 516.19141 C -527.91471 516.13932 -498.16927 516.08724 -468.42383 516.03516 C -453.53581 490.38477 -438.64779 464.73438 -423.75977 439.08398 C -438.63021 413.33659 -453.50065 387.58919 -468.37109 361.8418 C -498.11198 361.8418 -527.85286 361.8418 -557.59375 361.8418 C -572.46419 387.59831 -587.33464 413.35482 -602.20508 439.11133 z "
         id="path867-8-6" />
      <path
         transform="rotate(0.05463225,-646.81732,670.91839)"
         style="opacity:1;fill:none;fill-opacity:1;stroke:#ffffff;stroke-width:5;stroke-miterlimit:4;stroke-dasharray:5, 20;stroke-dashoffset:0;stroke-opacity:1"
         d="M -691.5625 593.47656 C -706.50456 619.18294 -721.44661 644.88932 -736.38867 670.5957 C -721.94857 696.00456 -707.50846 721.41341 -693.06836 746.82227 C -663.67643 746.19401 -634.28451 745.56576 -604.89258 744.9375 C -589.53906 719.4375 -574.18555 693.9375 -558.83203 668.4375 C -573.40104 643.29753 -587.97005 618.15755 -602.53906 593.01758 C -632.21354 593.17057 -661.88802 593.32357 -691.5625 593.47656 z "
         id="path867-85-93" />
      <path
         transform="rotate(0.07449989,-512.98334,748.18752)"
         style="opacity:1;fill:none;fill-opacity:1;stroke:#ffffff;stroke-width:5;stroke-miterlimit:4;stroke-dasharray:5, 20;stroke-dashoffset:0;stroke-opacity:1"
         d="M -558.83008 668.43945 C -574.18359 693.93945 -589.53711 719.43945 -604.89062 744.93945 C -591.01888 769.74154 -577.14714 794.54362 -563.27539 819.3457 C -533.31836 817.95443 -503.36133 816.56315 -473.4043 815.17188 C -457.37695 790.20768 -441.34961 765.24349 -425.32227 740.2793 C -439.99349 715.88607 -454.66471 691.49284 -469.33594 667.09961 C -499.16732 667.54622 -528.9987 667.99284 -558.83008 668.43945 z "
         id="path867-09-3" />
      <path
         transform="rotate(0.0473512,-379.14935,670.91839)"
         style="opacity:1;fill:none;fill-opacity:1;stroke:#ffffff;stroke-width:5;stroke-miterlimit:4;stroke-dasharray:5, 20;stroke-dashoffset:0;stroke-opacity:1"
         d="M -423.95312 591.94141 C -439.08008 616.99674 -454.20703 642.05208 -469.33398 667.10742 C -454.66406 691.50195 -439.99414 715.89648 -425.32422 740.29102 C -394.99674 740.05729 -364.66927 739.82357 -334.3418 739.58984 C -319.40365 715.22721 -304.46549 690.86458 -289.52734 666.50195 C -304.52279 641.61393 -319.51823 616.72591 -334.51367 591.83789 C -364.32682 591.8724 -394.13997 591.9069 -423.95312 591.94141 z "
         id="path867-6-80" />
      <path
         transform="rotate(0.01724176,-379.14935,516.37893)"
         style="opacity:1;fill:none;fill-opacity:1;stroke:#ffffff;stroke-width:5;stroke-miterlimit:4;stroke-dasharray:5, 20;stroke-dashoffset:0;stroke-opacity:1"
         d="M -423.75977 439.08398 C -438.64779 464.73437 -453.53581 490.38477 -468.42383 516.03516 C -453.60026 541.33724 -438.77669 566.63932 -423.95312 591.94141 C -394.13997 591.90755 -364.32682 591.8737 -334.51367 591.83984 C -319.65299 566.53971 -304.79232 541.23958 -289.93164 515.93945 C -304.80143 490.31966 -319.67122 464.69987 -334.54102 439.08008 C -364.2806 439.08138 -394.02018 439.08268 -423.75977 439.08398 z "
         id="path867-3-5" />
      <path
         transform="rotate(8.0390194e-4,-379.14935,361.83991)"
         style="opacity:1;fill:none;fill-opacity:1;stroke:#ffffff;stroke-width:5;stroke-miterlimit:4;stroke-dasharray:5, 20;stroke-dashoffset:0;stroke-opacity:1"
         d="M -468.37109 361.8418 C -453.50065 387.58919 -438.63021 413.33659 -423.75977 439.08398 C -394.02018 439.08268 -364.2806 439.08138 -334.54102 439.08008 C -319.66927 413.33398 -304.79753 387.58789 -289.92578 361.8418 C -304.79622 336.08529 -319.66667 310.32878 -334.53711 284.57227 C -364.27799 284.57227 -394.01888 284.57227 -423.75977 284.57227 C -438.63021 310.32878 -453.50065 336.08529 -468.37109 361.8418 z "
         id="path867-856-6" />
      <path
         transform="rotate(0.00196937,-245.31537,439.10711)"
         style="opacity:1;fill:none;fill-opacity:1;stroke:#ffffff;stroke-width:5;stroke-miterlimit:4;stroke-dasharray:5, 20;stroke-dashoffset:0;stroke-opacity:1"
         d="M -334.54102 439.08008 C -319.67122 464.69987 -304.80143 490.31966 -289.93164 515.93945 C -260.18815 515.95964 -230.44466 515.97982 -200.70117 516 C -185.83138 490.34961 -170.96159 464.69922 -156.0918 439.04883 C -170.96224 413.31315 -185.83268 387.57747 -200.70312 361.8418 C -230.44401 361.8418 -260.1849 361.8418 -289.92578 361.8418 C -304.79753 387.58789 -319.66927 413.33398 -334.54102 439.08008 z "
         id="path867-1-6" />
      <path
         transform="rotate(0.01820439,-245.31537,593.6495)"
         style="opacity:1;fill:none;fill-opacity:1;stroke:#ffffff;stroke-width:5;stroke-miterlimit:4;stroke-dasharray:5, 20;stroke-dashoffset:0;stroke-opacity:1"
         d="M -334.51367 591.83984 C -319.52018 616.72786 -304.52669 641.61589 -289.5332 666.50391 C -259.72721 666.70052 -229.92122 666.89714 -200.11523 667.09375 C -185.38997 642.17643 -170.66471 617.25911 -155.93945 592.3418 C -170.86003 566.89453 -185.7806 541.44727 -200.70117 516 C -230.44466 515.97982 -260.18815 515.95964 -289.93164 515.93945 C -304.79232 541.23958 -319.65299 566.53971 -334.51367 591.83984 z "
         id="path867-15-40" />
      <path
         transform="rotate(0.02127717,-1048.3193,902.72626)"
         style="opacity:1;fill:none;fill-opacity:1;stroke:#ffffff;stroke-width:5;stroke-miterlimit:4;stroke-dasharray:5, 20;stroke-dashoffset:0;stroke-opacity:1"
         d="M -1137.541 902.72461 C -1122.6706 928.48112 -1107.8001 954.23763 -1092.9297 979.99414 C -1063.1895 979.99414 -1033.4492 979.99414 -1003.709 979.99414 C -988.83984 954.23763 -973.9707 928.48112 -959.10156 902.72461 C -973.9707 876.96875 -988.83984 851.21289 -1003.709 825.45703 C -1033.4492 825.45703 -1063.1895 825.45703 -1092.9297 825.45703 C -1107.8001 851.21289 -1122.6706 876.96875 -1137.541 902.72461 z "
         id="path867-04" />
      <path
         transform="rotate(0.05317966,-914.48529,979.99446)"
         style="opacity:1;fill:none;fill-opacity:1;stroke:#ffffff;stroke-width:5;stroke-miterlimit:4;stroke-dasharray:5, 20;stroke-dashoffset:0;stroke-opacity:1"
         d="M -959.09961 902.72461 C -973.96875 928.48112 -988.83789 954.23763 -1003.707 979.99414 C -988.86589 1005.7376 -974.02474 1031.4811 -959.18359 1057.2246 C -929.74609 1057.1133 -900.30859 1057.002 -870.87109 1056.8906 C -856.15299 1031.1178 -841.4349 1005.3451 -826.7168 979.57227 C -841.21875 953.92904 -855.7207 928.28581 -870.22266 902.64258 C -899.84831 902.66992 -929.47396 902.69727 -959.09961 902.72461 z "
         id="path867-0-6" />
      <path
         transform="rotate(0.04265497,-914.48529,825.45657)"
         style="opacity:1;fill:none;fill-opacity:1;stroke:#ffffff;stroke-width:5;stroke-miterlimit:4;stroke-dasharray:5, 20;stroke-dashoffset:0;stroke-opacity:1"
         d="M -959.0957 748.1875 C -973.96615 773.94401 -988.83659 799.70052 -1003.707 825.45703 C -988.83789 851.21289 -973.96875 876.96875 -959.09961 902.72461 C -929.47396 902.69727 -899.84831 902.66992 -870.22266 902.64258 C -855.41667 876.8418 -840.61068 851.04102 -825.80469 825.24023 C -840.50651 799.55013 -855.20833 773.86003 -869.91016 748.16992 C -899.63867 748.17578 -929.36719 748.18164 -959.0957 748.1875 z "
         id="path867-8-26" />
      <path
         transform="rotate(0.02326212,-1048.3193,1057.2629)"
         style="opacity:1;fill:none;fill-opacity:1;stroke:#ffffff;stroke-width:5;stroke-miterlimit:4;stroke-dasharray:5, 20;stroke-dashoffset:0;stroke-opacity:1"
         d="M -1137.541 1057.2637 C -1122.6706 1083.0202 -1107.8001 1108.7767 -1092.9297 1134.5332 C -1063.2077 1134.5267 -1033.4857 1134.5202 -1003.7637 1134.5137 C -988.9043 1108.7507 -974.04492 1082.9876 -959.18555 1057.2246 C -974.02669 1031.4811 -988.86784 1005.7376 -1003.709 979.99414 C -1033.4492 979.99414 -1063.1895 979.99414 -1092.9297 979.99414 C -1107.8001 1005.7507 -1122.6706 1031.5072 -1137.541 1057.2637 z "
         id="path867-85-7" />
      <path
         transform="rotate(0.04883543,-914.48529,1134.5324)"
         style="opacity:1;fill:none;fill-opacity:1;stroke:#ffffff;stroke-width:5;stroke-miterlimit:4;stroke-dasharray:5, 20;stroke-dashoffset:0;stroke-opacity:1"
         d="M -959.18359 1057.2246 C -974.04297 1082.9876 -988.90234 1108.7507 -1003.7617 1134.5137 C -989.01953 1160.2474 -974.27734 1185.9811 -959.53516 1211.7148 C -930.36589 1211.5827 -901.19661 1211.4505 -872.02734 1211.3184 C -857.40755 1185.4056 -842.78776 1159.4928 -828.16797 1133.5801 C -842.40299 1108.0169 -856.63802 1082.4538 -870.87305 1056.8906 C -900.3099 1057.002 -929.74674 1057.1133 -959.18359 1057.2246 z "
         id="path867-09-56" />
      <path
         transform="rotate(0.08276053,-780.65131,1057.2635)"
         style="opacity:1;fill:none;fill-opacity:1;stroke:#ffffff;stroke-width:5;stroke-miterlimit:4;stroke-dasharray:5, 20;stroke-dashoffset:0;stroke-opacity:1"
         d="M -826.7207 979.57422 C -841.4375 1005.3464 -856.1543 1031.1185 -870.87109 1056.8906 C -856.63477 1082.4538 -842.39844 1108.0169 -828.16211 1133.5801 C -799.82227 1133.1751 -771.48242 1132.7702 -743.14258 1132.3652 C -728.6556 1106.4388 -714.16862 1080.5124 -699.68164 1054.5859 C -713.31901 1029.2253 -726.95638 1003.8646 -740.59375 978.50391 C -769.30273 978.86068 -798.01172 979.21745 -826.7207 979.57422 z "
         id="path867-6-98" />
      <path
         transform="rotate(0.07831549,-780.65131,902.72545)"
         style="opacity:1;fill:none;fill-opacity:1;stroke:#ffffff;stroke-width:5;stroke-miterlimit:4;stroke-dasharray:5, 20;stroke-dashoffset:0;stroke-opacity:1"
         d="M -825.80469 825.24023 C -840.61068 851.04102 -855.41667 876.8418 -870.22266 902.64258 C -855.72005 928.28711 -841.21745 953.93164 -826.71484 979.57617 C -798.00326 979.2194 -769.29167 978.86263 -740.58008 978.50586 C -725.80534 952.54883 -711.0306 926.5918 -696.25586 900.63477 C -710.20052 875.22917 -724.14518 849.82357 -738.08984 824.41797 C -767.32812 824.69206 -796.56641 824.96615 -825.80469 825.24023 z "
         id="path867-3-72" />
      <path
         transform="rotate(0.05618322,-780.65131,748.18739)"
         style="opacity:1;fill:none;fill-opacity:1;stroke:#ffffff;stroke-width:5;stroke-miterlimit:4;stroke-dasharray:5, 20;stroke-dashoffset:0;stroke-opacity:1"
         d="M -825.29883 670.89453 C -840.16927 696.65299 -855.03971 722.41146 -869.91016 748.16992 C -855.20703 773.86003 -840.50391 799.55013 -825.80078 825.24023 C -796.56315 824.9668 -767.32552 824.69336 -738.08789 824.41992 C -723.08138 798.55273 -708.07487 772.68555 -693.06836 746.81836 C -707.50846 721.41081 -721.94857 696.00326 -736.38867 670.5957 C -766.02539 670.69531 -795.66211 670.79492 -825.29883 670.89453 z "
         id="path867-856-82" />
      <path
         transform="rotate(0.08674792,-646.81732,825.4564)"
         style="opacity:1;fill:none;fill-opacity:1;stroke:#ffffff;stroke-width:5;stroke-miterlimit:4;stroke-dasharray:5, 20;stroke-dashoffset:0;stroke-opacity:1"
         d="M -693.06836 746.81836 C -708.07487 772.68555 -723.08138 798.55273 -738.08789 824.41992 C -724.13997 849.82682 -710.19206 875.23372 -696.24414 900.64062 C -667.59635 899.67643 -638.94857 898.71224 -610.30078 897.74805 C -594.62695 871.61068 -578.95312 845.47331 -563.2793 819.33594 C -577.15169 794.53516 -591.02409 769.73438 -604.89648 744.93359 C -634.28711 745.56185 -663.67773 746.1901 -693.06836 746.81836 z "
         id="path867-1-99" />
      <path
         transform="rotate(0.108,-646.81732,979.9945)"
         style="opacity:1;fill:none;fill-opacity:1;stroke:#ffffff;stroke-width:5;stroke-miterlimit:4;stroke-dasharray:5, 20;stroke-dashoffset:0;stroke-opacity:1"
         d="M -696.25391 900.63477 C -711.0319 926.59245 -725.8099 952.55013 -740.58789 978.50781 C -726.94661 1003.8698 -713.30534 1029.2318 -699.66406 1054.5938 C -671.61263 1053.9414 -643.5612 1053.2891 -615.50977 1052.6367 C -600.62174 1026.1673 -585.73372 999.69792 -570.8457 973.22852 C -584.00065 948.06706 -597.1556 922.9056 -610.31055 897.74414 C -638.95833 898.70768 -667.60612 899.67122 -696.25391 900.63477 z "
         id="path867-15-60" />
      <path
         style="opacity:1;fill:none;fill-opacity:1;stroke:#ffffff;stroke-width:5;stroke-miterlimit:4;stroke-dasharray:5, 20;stroke-dashoffset:0;stroke-opacity:1"
         d="M 252.58789 1604.4648 C 236.69401 1631.0169 220.80013 1657.569 204.90625 1684.1211 C 219.02539 1708.9232 233.14453 1733.7253 247.26367 1758.5273 C 277.2793 1757.9525 307.29492 1757.3776 337.31055 1756.8027 C 352.79492 1730.6035 368.2793 1704.4043 383.76367 1678.2051 C 369.61068 1652.8132 355.45768 1627.4212 341.30469 1602.0293 C 311.73242 1602.8411 282.16016 1603.653 252.58789 1604.4648 z "
         id="path867-27" />
      <path
         style="opacity:1;fill:none;fill-opacity:1;stroke:#ffffff;stroke-width:5;stroke-miterlimit:4;stroke-dasharray:5, 20;stroke-dashoffset:0;stroke-opacity:1"
         d="M 383.76562 1678.2051 C 368.2806 1704.4043 352.79557 1730.6035 337.31055 1756.8027 C 351.74089 1781.9596 366.17122 1807.1165 380.60156 1832.2734 C 410.29036 1831.9056 439.97917 1831.5378 469.66797 1831.1699 C 484.68555 1805.3138 499.70312 1779.4577 514.7207 1753.6016 C 500.34245 1727.9648 485.96419 1702.3281 471.58594 1676.6914 C 442.3125 1677.196 413.03906 1677.7005 383.76562 1678.2051 z "
         id="path867-0-61" />
      <path
         style="opacity:1;fill:none;fill-opacity:1;stroke:#ffffff;stroke-width:5;stroke-miterlimit:4;stroke-dasharray:5, 20;stroke-dashoffset:0;stroke-opacity:1"
         d="M 387.23828 1522.5156 C 371.92708 1549.0202 356.61589 1575.5247 341.30469 1602.0293 C 355.45833 1627.4212 369.61198 1652.8132 383.76562 1678.2051 C 413.03906 1677.7005 442.3125 1677.196 471.58594 1676.6914 C 486.41602 1650.7038 501.24609 1624.7161 516.07617 1598.7285 C 501.82227 1573.0007 487.56836 1547.2728 473.31445 1521.5449 C 444.6224 1521.8685 415.93034 1522.1921 387.23828 1522.5156 z "
         id="path867-8-3" />
      <path
         style="opacity:1;fill:none;fill-opacity:1;stroke:#ffffff;stroke-width:5;stroke-miterlimit:4;stroke-dasharray:5, 20;stroke-dashoffset:0;stroke-opacity:1"
         d="M 247.26367 1758.5273 C 232.01693 1783.7839 216.77018 1809.0404 201.52344 1834.2969 C 216.23568 1859.3314 230.94792 1884.3659 245.66016 1909.4004 C 275.47461 1909.2337 305.28906 1909.0671 335.10352 1908.9004 C 350.26888 1883.3574 365.43424 1857.8145 380.59961 1832.2715 C 366.16992 1807.1152 351.74023 1781.959 337.31055 1756.8027 C 307.29492 1757.3776 277.2793 1757.9525 247.26367 1758.5273 z "
         id="path867-85-2" />
      <path
         style="opacity:1;fill:none;fill-opacity:1;stroke:#ffffff;stroke-width:5;stroke-miterlimit:4;stroke-dasharray:5, 20;stroke-dashoffset:0;stroke-opacity:1"
         d="M 380.60156 1832.2715 C 365.43555 1857.8145 350.26953 1883.3574 335.10352 1908.9004 C 349.88477 1934.3125 364.66602 1959.7246 379.44727 1985.1367 C 409.1862 1985.0391 438.92513 1984.9414 468.66406 1984.8438 C 483.61979 1959.14 498.57552 1933.4362 513.53125 1907.7324 C 498.91016 1882.2109 484.28906 1856.6895 469.66797 1831.168 C 439.97917 1831.5358 410.29036 1831.9036 380.60156 1832.2715 z "
         id="path867-09-15" />
      <path
         style="opacity:1;fill:none;fill-opacity:1;stroke:#ffffff;stroke-width:5;stroke-miterlimit:4;stroke-dasharray:5, 20;stroke-dashoffset:0;stroke-opacity:1"
         d="M 514.72266 1753.6016 C 499.70443 1779.457 484.6862 1805.3125 469.66797 1831.168 C 484.28971 1856.6895 498.91146 1882.2109 513.5332 1907.7324 C 543.19076 1907.6152 572.84831 1907.498 602.50586 1907.3809 C 617.39714 1881.6159 632.28841 1855.8509 647.17969 1830.0859 C 632.48633 1804.3958 617.79297 1778.7057 603.09961 1753.0156 C 573.64063 1753.2109 544.18164 1753.4063 514.72266 1753.6016 z "
         id="path867-6-99" />
      <path
         style="opacity:1;fill:none;fill-opacity:1;stroke:#ffffff;stroke-width:5;stroke-miterlimit:4;stroke-dasharray:5, 20;stroke-dashoffset:0;stroke-opacity:1"
         d="M 516.07812 1598.7285 C 501.2474 1624.7161 486.41667 1650.7038 471.58594 1676.6914 C 485.96484 1702.3281 500.34375 1727.9648 514.72266 1753.6016 C 544.18164 1753.4062 573.64063 1753.2109 603.09961 1753.0156 C 617.92708 1727.1921 632.75456 1701.3685 647.58203 1675.5449 C 632.9362 1649.7943 618.29036 1624.0436 603.64453 1598.293 C 574.45573 1598.4382 545.26693 1598.5833 516.07812 1598.7285 z "
         id="path867-3-14" />
      <path
         style="opacity:1;fill:none;fill-opacity:1;stroke:#ffffff;stroke-width:5;stroke-miterlimit:4;stroke-dasharray:5, 20;stroke-dashoffset:0;stroke-opacity:1"
         d="M 516.85352 1443.8691 C 502.34049 1469.7611 487.82747 1495.653 473.31445 1521.5449 C 487.56901 1547.2728 501.82357 1573.0007 516.07812 1598.7285 C 545.26693 1598.5833 574.45573 1598.4382 603.64453 1598.293 C 618.36133 1572.5007 633.07812 1546.7083 647.79492 1520.916 C 633.16927 1495.1784 618.54362 1469.4408 603.91797 1443.7031 C 574.89648 1443.7585 545.875 1443.8138 516.85352 1443.8691 z "
         id="path867-856-9" />
      <path
         style="opacity:1;fill:none;fill-opacity:1;stroke:#ffffff;stroke-width:5;stroke-miterlimit:4;stroke-dasharray:5, 20;stroke-dashoffset:0;stroke-opacity:1"
         d="M 647.79492 1520.916 C 633.07812 1546.7083 618.36133 1572.5007 603.64453 1598.293 C 618.29036 1624.0436 632.9362 1649.7943 647.58203 1675.5449 C 677.14583 1675.5085 706.70964 1675.472 736.27344 1675.4355 C 751.11003 1649.6738 765.94661 1623.9121 780.7832 1598.1504 C 765.95573 1572.3926 751.12826 1546.6348 736.30078 1520.877 C 706.79883 1520.89 677.29688 1520.903 647.79492 1520.916 z "
         id="path867-1-1" />
      <path
         style="opacity:1;fill:none;fill-opacity:1;stroke:#ffffff;stroke-width:5;stroke-miterlimit:4;stroke-dasharray:5, 20;stroke-dashoffset:0;stroke-opacity:1"
         d="M 647.58203 1675.5449 C 632.75456 1701.3685 617.92708 1727.1921 603.09961 1753.0156 C 617.79297 1778.7064 632.48633 1804.3971 647.17969 1830.0879 C 676.84245 1830.0475 706.50521 1830.0072 736.16797 1829.9668 C 751.0306 1804.2064 765.89323 1778.446 780.75586 1752.6855 C 765.92839 1726.9355 751.10091 1701.1855 736.27344 1675.4355 C 706.70964 1675.472 677.14583 1675.5085 647.58203 1675.5449 z "
         id="path867-15-07" />
      <path
         style="opacity:1;fill:none;fill-opacity:1;stroke:#ffffff;stroke-width:5;stroke-miterlimit:4;stroke-dasharray:5, 20;stroke-dashoffset:0;stroke-opacity:1"
         d="M 219.78906 1049.5117 C 235.03906 1076.5234 250.28906 1103.5352 265.53906 1130.5469 C 293.18424 1131.1432 320.82943 1131.7396 348.47461 1132.3359 C 362.0612 1106.6257 375.64779 1080.9154 389.23438 1055.2051 C 374.57096 1028.776 359.90755 1002.347 345.24414 975.91797 C 316.57487 974.65625 287.9056 973.39453 259.23633 972.13281 C 246.08724 997.92578 232.93815 1023.7188 219.78906 1049.5117 z "
         id="path867-5" />
      <path
         style="opacity:1;fill:none;fill-opacity:1;stroke:#ffffff;stroke-width:5;stroke-miterlimit:4;stroke-dasharray:5, 20;stroke-dashoffset:0;stroke-opacity:1"
         d="M 348.47656 1132.3359 C 362.68034 1158.4141 376.88411 1184.4922 391.08789 1210.5703 C 418.96484 1210.7793 446.8418 1210.9883 474.71875 1211.1973 C 488.78125 1185.4232 502.84375 1159.6491 516.90625 1133.875 C 502.54297 1108.0091 488.17969 1082.1432 473.81641 1056.2773 C 445.6224 1055.9199 417.42839 1055.5625 389.23438 1055.2051 C 375.64844 1080.9154 362.0625 1106.6257 348.47656 1132.3359 z "
         id="path867-0-8" />
      <path
         style="opacity:1;fill:none;fill-opacity:1;stroke:#ffffff;stroke-width:5;stroke-miterlimit:4;stroke-dasharray:5, 20;stroke-dashoffset:0;stroke-opacity:1"
         d="M 345.24609 975.91797 C 359.90885 1002.347 374.57161 1028.776 389.23438 1055.2051 C 417.42839 1055.5625 445.6224 1055.9199 473.81641 1056.2773 C 487.84375 1030.64 501.87109 1005.0026 515.89844 979.36523 C 501.19596 953.42578 486.49349 927.48633 471.79102 901.54688 C 443.04102 900.83333 414.29102 900.11979 385.54102 899.40625 C 372.10937 924.91016 358.67773 950.41406 345.24609 975.91797 z "
         id="path867-8-7" />
      <path
         style="opacity:1;fill:none;fill-opacity:1;stroke:#ffffff;stroke-width:5;stroke-miterlimit:4;stroke-dasharray:5, 20;stroke-dashoffset:0;stroke-opacity:1"
         d="M 226.09961 1208.6758 C 239.45768 1236.1641 252.81576 1263.6523 266.17383 1291.1406 C 293.92643 1291.013 321.67904 1290.8854 349.43164 1290.7578 C 363.31641 1264.028 377.20117 1237.2982 391.08594 1210.5684 C 376.88216 1184.4909 362.67839 1158.4134 348.47461 1132.3359 C 320.82943 1131.7396 293.18424 1131.1432 265.53906 1130.5469 C 252.39258 1156.5898 239.24609 1182.6328 226.09961 1208.6758 z "
         id="path867-85-04" />
      <path
         style="opacity:1;fill:none;fill-opacity:1;stroke:#ffffff;stroke-width:5;stroke-miterlimit:4;stroke-dasharray:5, 20;stroke-dashoffset:0;stroke-opacity:1"
         d="M 349.43359 1290.7578 C 362.80339 1316.4648 376.17318 1342.1719 389.54297 1367.8789 C 417.7526 1367.4661 445.96224 1367.0534 474.17188 1366.6406 C 488.49674 1340.7279 502.82161 1314.8151 517.14648 1288.9023 C 503.00391 1263 488.86133 1237.0977 474.71875 1211.1953 C 446.84115 1210.9863 418.96354 1210.7773 391.08594 1210.5684 C 377.20182 1237.2982 363.31771 1264.028 349.43359 1290.7578 z "
         id="path867-09-80" />
      <path
         style="opacity:1;fill:none;fill-opacity:1;stroke:#ffffff;stroke-width:5;stroke-miterlimit:4;stroke-dasharray:5, 20;stroke-dashoffset:0;stroke-opacity:1"
         d="M 474.7207 1211.1953 C 488.86328 1237.0977 503.00586 1263 517.14844 1288.9023 C 546.08073 1288.9154 575.01302 1288.9284 603.94531 1288.9414 C 618.5319 1263.1732 633.11849 1237.4049 647.70508 1211.6367 C 632.96875 1185.8275 618.23242 1160.0182 603.49609 1134.209 C 574.63346 1134.0977 545.77083 1133.9863 516.9082 1133.875 C 502.8457 1159.6484 488.7832 1185.4219 474.7207 1211.1953 z "
         id="path867-6-42" />
      <path
         style="opacity:1;fill:none;fill-opacity:1;stroke:#ffffff;stroke-width:5;stroke-miterlimit:4;stroke-dasharray:5, 20;stroke-dashoffset:0;stroke-opacity:1"
         d="M 473.81836 1056.2773 C 488.18164 1082.1432 502.54492 1108.0091 516.9082 1133.875 C 545.77083 1133.9863 574.63346 1134.0977 603.49609 1134.209 C 618.10026 1108.513 632.70443 1082.8171 647.30859 1057.1211 C 632.55469 1031.3626 617.80078 1005.6042 603.04688 979.8457 C 573.99805 979.68555 544.94922 979.52539 515.90039 979.36523 C 501.87305 1005.0026 487.8457 1030.64 473.81836 1056.2773 z "
         id="path867-3-96" />
      <path
         style="opacity:1;fill:none;fill-opacity:1;stroke:#ffffff;stroke-width:5;stroke-miterlimit:4;stroke-dasharray:5, 20;stroke-dashoffset:0;stroke-opacity:1"
         d="M 471.79297 901.54688 C 486.49544 927.48633 501.19792 953.42578 515.90039 979.36523 C 544.94922 979.52539 573.99805 979.68555 603.04688 979.8457 C 617.73372 954.12826 632.42057 928.41081 647.10742 902.69336 C 632.28776 876.91276 617.4681 851.13216 602.64844 825.35156 C 573.24219 825.19401 543.83594 825.03646 514.42969 824.87891 C 500.21745 850.4349 486.00521 875.99089 471.79297 901.54688 z "
         id="path867-856-10" />
      <path
         style="opacity:1;fill:none;fill-opacity:1;stroke:#ffffff;stroke-width:5;stroke-miterlimit:4;stroke-dasharray:5, 20;stroke-dashoffset:0;stroke-opacity:1"
         d="M 603.04688 979.8457 C 617.80078 1005.6042 632.55469 1031.3626 647.30859 1057.1211 C 676.93359 1057.1595 706.55859 1057.1979 736.18359 1057.2363 C 751.03711 1031.4889 765.89062 1005.7415 780.74414 979.99414 C 765.8737 954.23828 751.00326 928.48242 736.13281 902.72656 C 706.45768 902.71549 676.78255 902.70443 647.10742 902.69336 C 632.42057 928.41081 617.73372 954.12826 603.04688 979.8457 z "
         id="path867-1-4" />
      <path
         style="opacity:1;fill:none;fill-opacity:1;stroke:#ffffff;stroke-width:5;stroke-miterlimit:4;stroke-dasharray:5, 20;stroke-dashoffset:0;stroke-opacity:1"
         d="M 603.49609 1134.209 C 618.23242 1160.0189 632.96875 1185.8288 647.70508 1211.6387 C 677.23958 1211.6849 706.77409 1211.7311 736.30859 1211.7773 C 751.13346 1186.0254 765.95833 1160.2734 780.7832 1134.5215 C 765.91667 1108.7598 751.05013 1082.998 736.18359 1057.2363 C 706.55859 1057.1979 676.93359 1057.1595 647.30859 1057.1211 C 632.70443 1082.8171 618.10026 1108.513 603.49609 1134.209 z "
         id="path867-15-2" />
      <path
         style="opacity:1;fill:none;fill-opacity:1;stroke:#ffffff;stroke-width:5;stroke-miterlimit:4;stroke-dasharray:5, 20;stroke-dashoffset:0;stroke-opacity:1"
         d="M -334.77148 1986.0879 C -319.82812 2011.4688 -304.88477 2036.8496 -289.94141 2062.2305 C -260.20052 2062.2448 -230.45964 2062.2591 -200.71875 2062.2734 C -185.81185 2036.9479 -170.90495 2011.6224 -155.99805 1986.2969 C -170.88542 1961.3822 -185.77279 1936.4674 -200.66016 1911.5527 C -230.5918 1911.4661 -260.52344 1911.3796 -290.45508 1911.293 C -305.22721 1936.2246 -319.99935 1961.1563 -334.77148 1986.0879 z "
         id="path867-22" />
      <path
         style="opacity:1;fill:none;fill-opacity:1;stroke:#ffffff;stroke-width:5;stroke-miterlimit:4;stroke-dasharray:5, 20;stroke-dashoffset:0;stroke-opacity:1"
         d="M -155.99609 1986.2969 C -170.90299 2011.6224 -185.8099 2036.9479 -200.7168 2062.2734 C -185.8431 2087.873 -170.9694 2113.4727 -156.0957 2139.0723 C -126.35352 2139.0723 -96.611328 2139.0723 -66.869141 2139.0723 C -51.979818 2113.4323 -37.090495 2087.7923 -22.201172 2062.1523 C -37.029297 2036.7799 -51.857422 2011.4076 -66.685547 1986.0352 C -96.455729 1986.1224 -126.22591 1986.2096 -155.99609 1986.2969 z "
         id="path867-0-05" />
      <path
         style="opacity:1;fill:none;fill-opacity:1;stroke:#ffffff;stroke-width:5;stroke-miterlimit:4;stroke-dasharray:5, 20;stroke-dashoffset:0;stroke-opacity:1"
         d="M -155.66211 1837.9492 C -170.66081 1862.4837 -185.65951 1887.0182 -200.6582 1911.5527 C -185.77083 1936.4674 -170.88346 1961.3822 -155.99609 1986.2969 C -126.22591 1986.2096 -96.455729 1986.1224 -66.685547 1986.0352 C -51.695964 1960.9154 -36.70638 1935.7956 -21.716797 1910.6758 C -36.334635 1886.2572 -50.952474 1861.8385 -65.570312 1837.4199 C -95.600911 1837.5964 -125.63151 1837.7728 -155.66211 1837.9492 z "
         id="path867-8-52" />
      <path
         style="opacity:1;fill:none;fill-opacity:1;stroke:#ffffff;stroke-width:5;stroke-miterlimit:4;stroke-dasharray:5, 20;stroke-dashoffset:0;stroke-opacity:1"
         d="M -334.53516 2139.0547 C -319.66536 2164.8027 -304.79557 2190.5508 -289.92578 2216.2988 C -260.18555 2216.2988 -230.44531 2216.2988 -200.70508 2216.2988 C -185.83594 2190.556 -170.9668 2164.8132 -156.09766 2139.0703 C -170.97135 2113.4714 -185.84505 2087.8724 -200.71875 2062.2734 C -230.45964 2062.2591 -260.20052 2062.2448 -289.94141 2062.2305 C -304.80599 2087.8385 -319.67057 2113.4466 -334.53516 2139.0547 z "
         id="path867-85-90" />
      <path
         style="opacity:1;fill:none;fill-opacity:1;stroke:#ffffff;stroke-width:5;stroke-miterlimit:4;stroke-dasharray:5, 20;stroke-dashoffset:0;stroke-opacity:1"
         d="M -200.70312 2216.2988 C -185.83268 2242.0553 -170.96224 2267.8118 -156.0918 2293.5684 C -126.35091 2293.5684 -96.610026 2293.5684 -66.869141 2293.5684 C -51.999349 2267.8118 -37.129557 2242.0553 -22.259766 2216.2988 C -37.129557 2190.556 -51.999349 2164.8132 -66.869141 2139.0703 C -96.611328 2139.0703 -126.35352 2139.0703 -156.0957 2139.0703 C -170.96484 2164.8132 -185.83398 2190.556 -200.70312 2216.2988 z "
         id="path867-09-28" />
      <path
         style="opacity:1;fill:none;fill-opacity:1;stroke:#ffffff;stroke-width:5;stroke-miterlimit:4;stroke-dasharray:5, 20;stroke-dashoffset:0;stroke-opacity:1"
         d="M -22.199219 2062.1523 C -37.089193 2087.7917 -51.979167 2113.431 -66.869141 2139.0703 C -51.998698 2164.8132 -37.128255 2190.556 -22.257812 2216.2988 C 7.4830729 2216.2988 37.223958 2216.2988 66.964844 2216.2988 C 81.833333 2190.5436 96.701823 2164.7884 111.57031 2139.0332 C 96.713542 2113.3789 81.856771 2087.7246 67 2062.0703 C 37.266927 2062.0977 7.5338542 2062.125 -22.199219 2062.1523 z "
         id="path867-6-38" />
      <path
         style="opacity:1;fill:none;fill-opacity:1;stroke:#ffffff;stroke-width:5;stroke-miterlimit:4;stroke-dasharray:5, 20;stroke-dashoffset:0;stroke-opacity:1"
         d="M -21.714844 1910.6758 C -36.705078 1935.7956 -51.695313 1960.9154 -66.685547 1986.0352 C -51.856771 2011.4076 -37.027995 2036.7799 -22.199219 2062.1523 C 7.5338542 2062.125 37.266927 2062.0977 67 2062.0703 C 81.888021 2036.5885 96.776042 2011.1068 111.66406 1985.625 C 96.889323 1960.4577 82.114583 1935.2904 67.339844 1910.123 C 37.654948 1910.3073 7.9700521 1910.4915 -21.714844 1910.6758 z "
         id="path867-3-0" />
      <path
         style="opacity:1;fill:none;fill-opacity:1;stroke:#ffffff;stroke-width:5;stroke-miterlimit:4;stroke-dasharray:5, 20;stroke-dashoffset:0;stroke-opacity:1"
         d="M -19.193359 1764.3184 C -34.652344 1788.6855 -50.111328 1813.0527 -65.570312 1837.4199 C -50.951823 1861.8385 -36.333333 1886.2572 -21.714844 1910.6758 C 7.9700521 1910.4915 37.654948 1910.3073 67.339844 1910.123 C 82.338542 1885.0944 97.33724 1860.0658 112.33594 1835.0371 C 97.98112 1810.6517 83.626302 1786.2663 69.271484 1761.8809 C 39.783203 1762.6934 10.294922 1763.5059 -19.193359 1764.3184 z "
         id="path867-856-4" />
      <path
         style="opacity:1;fill:none;fill-opacity:1;stroke:#ffffff;stroke-width:5;stroke-miterlimit:4;stroke-dasharray:5, 20;stroke-dashoffset:0;stroke-opacity:1"
         d="M 112.33789 1835.0371 C 97.338542 1860.0658 82.339193 1885.0944 67.339844 1910.123 C 82.115234 1935.2904 96.890625 1960.4577 111.66602 1985.625 C 141.3776 1985.5755 171.08919 1985.526 200.80078 1985.4766 C 215.75326 1960.1178 230.70573 1934.7591 245.6582 1909.4004 C 230.94596 1884.3659 216.23372 1859.3314 201.52148 1834.2969 C 171.79362 1834.5436 142.06576 1834.7904 112.33789 1835.0371 z "
         id="path867-1-09" />
      <path
         style="opacity:1;fill:none;fill-opacity:1;stroke:#ffffff;stroke-width:5;stroke-miterlimit:4;stroke-dasharray:5, 20;stroke-dashoffset:0;stroke-opacity:1"
         d="M 111.66602 1985.625 C 96.777344 2011.1068 81.888672 2036.5885 67 2062.0703 C 81.857422 2087.7253 96.714844 2113.3802 111.57227 2139.0352 C 141.3112 2139.0443 171.05013 2139.0534 200.78906 2139.0625 C 215.65625 2113.3926 230.52344 2087.7227 245.39062 2062.0527 C 230.52734 2036.5273 215.66406 2011.002 200.80078 1985.4766 C 171.08919 1985.526 141.3776 1985.5755 111.66602 1985.625 z "
         id="path867-15-1" />
      <path
         style="opacity:1;fill:none;fill-opacity:1;stroke:#ffffff;stroke-width:5;stroke-miterlimit:4;stroke-dasharray:5, 20;stroke-dashoffset:0;stroke-opacity:1"
         d="M -736.03906 2061.7617 C -721.16862 2087.5176 -706.29818 2113.2734 -691.42773 2139.0293 C -661.68685 2139.0293 -631.94596 2139.0293 -602.20508 2139.0293 C -587.34961 2113.3047 -572.49414 2087.5801 -557.63867 2061.8555 C -572.55339 2036.1471 -587.4681 2010.4388 -602.38281 1984.7305 C -632.07878 1984.6647 -661.77474 1984.599 -691.4707 1984.5332 C -706.32682 2010.276 -721.18294 2036.0189 -736.03906 2061.7617 z "
         id="path867-96" />
      <path
         style="opacity:1;fill:none;fill-opacity:1;stroke:#ffffff;stroke-width:5;stroke-miterlimit:4;stroke-dasharray:5, 20;stroke-dashoffset:0;stroke-opacity:1"
         d="M -602.20508 2139.0293 C -587.33464 2164.7858 -572.46419 2190.5423 -557.59375 2216.2988 C -527.85286 2216.2988 -498.11198 2216.2988 -468.37109 2216.2988 C -453.50195 2190.5508 -438.63281 2164.8027 -423.76367 2139.0547 C -438.6543 2113.3691 -453.54492 2087.6836 -468.43555 2061.998 C -498.16992 2061.9505 -527.9043 2061.903 -557.63867 2061.8555 C -572.49414 2087.5801 -587.34961 2113.3047 -602.20508 2139.0293 z "
         id="path867-0-2" />
      <path
         style="opacity:1;fill:none;fill-opacity:1;stroke:#ffffff;stroke-width:5;stroke-miterlimit:4;stroke-dasharray:5, 20;stroke-dashoffset:0;stroke-opacity:1"
         d="M -602.38281 1984.7305 C -587.4681 2010.4388 -572.55339 2036.1471 -557.63867 2061.8555 C -527.9043 2061.903 -498.16992 2061.9505 -468.43555 2061.998 C -453.64974 2036.5339 -438.86393 2011.0697 -424.07812 1985.6055 C -439.18099 1960.1979 -454.28385 1934.7904 -469.38672 1909.3828 C -499.05143 1909.043 -528.71615 1908.7031 -558.38086 1908.3633 C -573.04818 1933.819 -587.71549 1959.2747 -602.38281 1984.7305 z "
         id="path867-8-54" />
      <path
         style="opacity:1;fill:none;fill-opacity:1;stroke:#ffffff;stroke-width:5;stroke-miterlimit:4;stroke-dasharray:5, 20;stroke-dashoffset:0;stroke-opacity:1"
         d="M -736.03906 2216.2988 C -721.16862 2242.0553 -706.29818 2267.8118 -691.42773 2293.5684 C -661.68685 2293.5684 -631.94596 2293.5684 -602.20508 2293.5684 C -587.33464 2267.8118 -572.46419 2242.0553 -557.59375 2216.2988 C -572.46419 2190.5423 -587.33464 2164.7858 -602.20508 2139.0293 C -631.94596 2139.0293 -661.68685 2139.0293 -691.42773 2139.0293 C -706.29818 2164.7858 -721.16862 2190.5423 -736.03906 2216.2988 z "
         id="path867-85-49" />
      <path
         d="m -423.76072,2293.5681 -44.61131,77.2691 h -89.22262 l -44.61131,-77.2691 44.61131,-77.269 h 89.22262 z"
         inkscape:randomized="0"
         inkscape:rounded="0"
         inkscape:flatsided="true"
         sodipodi:arg2="0.52359878"
         sodipodi:arg1="0"
         sodipodi:r2="77.269058"
         sodipodi:r1="89.222618"
         sodipodi:cy="2293.5681"
         sodipodi:cx="-512.98334"
         sodipodi:sides="6"
         id="path867-09-9"
         style="opacity:1;fill:none;fill-opacity:1;stroke:#ffffff;stroke-width:5;stroke-miterlimit:4;stroke-dasharray:5, 20;stroke-dashoffset:0;stroke-opacity:1"
         sodipodi:type="star" />
      <path
         style="opacity:1;fill:none;fill-opacity:1;stroke:#ffffff;stroke-width:5;stroke-miterlimit:4;stroke-dasharray:5, 20;stroke-dashoffset:0;stroke-opacity:1"
         d="M -468.37109 2216.2988 C -453.50065 2242.0553 -438.63021 2267.8118 -423.75977 2293.5684 C -394.01888 2293.5684 -364.27799 2293.5684 -334.53711 2293.5684 C -319.66667 2267.8118 -304.79622 2242.0553 -289.92578 2216.2988 C -304.79557 2190.5508 -319.66536 2164.8027 -334.53516 2139.0547 C -364.27799 2139.0547 -394.02083 2139.0547 -423.76367 2139.0547 C -438.63281 2164.8027 -453.50195 2190.5508 -468.37109 2216.2988 z "
         id="path867-6-36" />
      <path
         style="opacity:1;fill:none;fill-opacity:1;stroke:#ffffff;stroke-width:5;stroke-miterlimit:4;stroke-dasharray:5, 20;stroke-dashoffset:0;stroke-opacity:1"
         d="M -468.43555 2061.998 C -453.54492 2087.6836 -438.6543 2113.3691 -423.76367 2139.0547 C -394.02083 2139.0547 -364.27799 2139.0547 -334.53516 2139.0547 C -319.67057 2113.4466 -304.80599 2087.8385 -289.94141 2062.2305 C -304.88477 2036.8496 -319.82813 2011.4688 -334.77148 1986.0879 C -364.54036 1985.9271 -394.30924 1985.7663 -424.07812 1985.6055 C -438.86393 2011.0697 -453.64974 2036.5339 -468.43555 2061.998 z "
         id="path867-3-05" />
      <path
         style="opacity:1;fill:none;fill-opacity:1;stroke:#ffffff;stroke-width:5;stroke-miterlimit:4;stroke-dasharray:5, 20;stroke-dashoffset:0;stroke-opacity:1"
         d="M -469.38672 1909.3828 C -454.28385 1934.7904 -439.18099 1960.1979 -424.07812 1985.6055 C -394.30924 1985.7663 -364.54036 1985.9271 -334.77148 1986.0879 C -319.99935 1961.1562 -305.22721 1936.2246 -290.45508 1911.293 C -305.7181 1886.4674 -320.98112 1861.6419 -336.24414 1836.8164 C -366.2207 1836.2122 -396.19727 1835.6081 -426.17383 1835.0039 C -440.57813 1859.7969 -454.98242 1884.5898 -469.38672 1909.3828 z "
         id="path867-856-02" />
      <path
         style="opacity:1;fill:none;fill-opacity:1;stroke:#ffffff;stroke-width:5;stroke-miterlimit:4;stroke-dasharray:5, 20;stroke-dashoffset:0;stroke-opacity:1"
         d="M -334.77148 1986.0879 C -319.82812 2011.4688 -304.88477 2036.8496 -289.94141 2062.2305 C -260.19987 2062.2448 -230.45833 2062.2591 -200.7168 2062.2734 C -185.8099 2036.9479 -170.90299 2011.6224 -155.99609 1986.2969 C -170.88346 1961.3822 -185.77083 1936.4674 -200.6582 1911.5527 C -230.59049 1911.4661 -260.52279 1911.3796 -290.45508 1911.293 C -305.22721 1936.2246 -319.99935 1961.1563 -334.77148 1986.0879 z "
         id="path867-1-94" />
      <path
         style="opacity:1;fill:none;fill-opacity:1;stroke:#ffffff;stroke-width:5;stroke-miterlimit:4;stroke-dasharray:5, 20;stroke-dashoffset:0;stroke-opacity:1"
         d="M -334.53516 2139.0547 C -319.66536 2164.8027 -304.79557 2190.5508 -289.92578 2216.2988 C -260.1849 2216.2988 -230.44401 2216.2988 -200.70312 2216.2988 C -185.83398 2190.556 -170.96484 2164.8132 -156.0957 2139.0703 C -170.9694 2113.4714 -185.8431 2087.8724 -200.7168 2062.2734 C -230.45833 2062.2591 -260.19987 2062.2448 -289.94141 2062.2305 C -304.80599 2087.8385 -319.67057 2113.4466 -334.53516 2139.0547 z "
         id="path867-15-35" />
    </g>
  </g>
</svg>
