<?xml version="1.0" encoding="UTF-8" standalone="no"?>
<!-- Created with Inkscape (http://www.inkscape.org/) -->

<svg
   xmlns:dc="http://purl.org/dc/elements/1.1/"
   xmlns:cc="http://creativecommons.org/ns#"
   xmlns:rdf="http://www.w3.org/1999/02/22-rdf-syntax-ns#"
   xmlns:svg="http://www.w3.org/2000/svg"
   xmlns="http://www.w3.org/2000/svg"
   xmlns:sodipodi="http://sodipodi.sourceforge.net/DTD/sodipodi-0.dtd"
   xmlns:inkscape="http://www.inkscape.org/namespaces/inkscape"
   width="210mm"
   height="297mm"
   viewBox="0 0 210 297"
   version="1.1"
   id="svg1121"
   inkscape:version="0.92.4 5da689c313, 2019-01-14"
   sodipodi:docname="drawing.svg">
  <defs
     id="defs1115" />
  <sodipodi:namedview
     id="base"
     pagecolor="#ffffff"
     bordercolor="#666666"
     borderopacity="1.0"
     inkscape:pageopacity="0.0"
     inkscape:pageshadow="2"
     inkscape:zoom="0.35"
     inkscape:cx="-661.42857"
     inkscape:cy="674.28571"
     inkscape:document-units="mm"
     inkscape:current-layer="layer1"
     showgrid="false"
     inkscape:window-width="3840"
     inkscape:window-height="2025"
     inkscape:window-x="0"
     inkscape:window-y="0"
     inkscape:window-maximized="1" />
  <metadata
     id="metadata1118">
    <rdf:RDF>
      <cc:Work
         rdf:about="">
        <dc:format>image/svg+xml</dc:format>
        <dc:type
           rdf:resource="http://purl.org/dc/dcmitype/StillImage" />
        <dc:title></dc:title>
      </cc:Work>
    </rdf:RDF>
  </metadata>
  <g
     inkscape:label="Layer 1"
     inkscape:groupmode="layer"
     id="layer1">
    <rect
       style="opacity:1;fill:#020202;fill-opacity:1;stroke:#ffffff;stroke-width:0.54780912;stroke-miterlimit:4;stroke-dasharray:none;stroke-dashoffset:0;stroke-opacity:1"
       id="rect859-1"
       width="570.12726"
       height="496.49667"
       x="-165.28323"
       y="-68.028473"
       transform="rotate(0.108)" />
    <g
       id="g1816"
       transform="matrix(0.26458333,0,0,0.26458333,151.87406,-162.38984)"
       style="fill:none">
      <path
         transform="rotate(0.10082353,-512.98334,902.72559)"
         style="opacity:1;fill:none;fill-opacity:1;stroke:#ffffff;stroke-width:5;stroke-miterlimit:4;stroke-dasharray:5, 20;stroke-dashoffset:0;stroke-opacity:1"
         d="M -557.68555 825.38672 C -572.5612 851.14779 -587.43685 876.90885 -602.3125 902.66992 C -587.47982 928.41406 -572.64714 954.1582 -557.81445 979.90234 C -528.11784 979.87174 -498.42122 979.84115 -468.72461 979.81055 C -453.83398 954.03255 -438.94336 928.25456 -424.05273 902.47656 C -438.87891 876.75195 -453.70508 851.02734 -468.53125 825.30273 C -498.24935 825.33073 -527.96745 825.35872 -557.68555 825.38672 z "
         id="path867" />
      <path
         transform="rotate(0.09203895,-379.14935,979.99462)"
         style="opacity:1;fill:none;fill-opacity:1;stroke:#ffffff;stroke-width:5;stroke-miterlimit:4;stroke-dasharray:5, 20;stroke-dashoffset:0;stroke-opacity:1"
         d="M -424.05273 902.47461 C -438.94336 928.25326 -453.83398 954.0319 -468.72461 979.81055 C -453.90885 1005.569 -439.0931 1031.3275 -424.27734 1057.0859 C -394.57617 1057.0417 -364.875 1056.9974 -335.17383 1056.9531 C -320.24805 1031.1322 -305.32227 1005.3112 -290.39648 979.49023 C -305.22005 953.76888 -320.04362 928.04753 -334.86719 902.32617 C -364.5957 902.37565 -394.32422 902.42513 -424.05273 902.47461 z "
         id="path867-0" />
      <path
         transform="rotate(0.07687252,-379.14935,825.45656)"
         style="opacity:1;fill:none;fill-opacity:1;stroke:#ffffff;stroke-width:5;stroke-miterlimit:4;stroke-dasharray:5, 20;stroke-dashoffset:0;stroke-opacity:1"
         d="M -423.86133 748.04883 C -438.7513 773.80013 -453.64128 799.55143 -468.53125 825.30273 C -453.70508 851.02734 -438.87891 876.75195 -424.05273 902.47656 C -394.32422 902.42773 -364.5957 902.37891 -334.86719 902.33008 C -319.95182 876.57747 -305.03646 850.82487 -290.12109 825.07227 C -304.96549 799.36849 -319.8099 773.66471 -334.6543 747.96094 C -364.38997 747.99023 -394.12565 748.01953 -423.86133 748.04883 z "
         id="path867-8" />
      <path
         transform="rotate(0.108,-512.98334,1057.2637)"
         style="opacity:1;fill:none;fill-opacity:1;stroke:#ffffff;stroke-width:5;stroke-miterlimit:4;stroke-dasharray:5, 20;stroke-dashoffset:0;stroke-opacity:1"
         d="M -557.81641 979.90234 C -572.67969 1005.6751 -587.54297 1031.4479 -602.40625 1057.2207 C -587.57096 1082.985 -572.73568 1108.7493 -557.90039 1134.5137 C -528.2194 1134.5072 -498.53841 1134.5007 -468.85742 1134.4941 C -453.9974 1108.6914 -439.13737 1082.8887 -424.27734 1057.0859 C -439.0931 1031.3275 -453.90885 1005.569 -468.72461 979.81055 C -498.42188 979.84115 -528.11914 979.87174 -557.81641 979.90234 z "
         id="path867-85" />
      <path
         transform="rotate(0.08581722,-379.14935,1134.5327)"
         style="opacity:1;fill:none;fill-opacity:1;stroke:#ffffff;stroke-width:5;stroke-miterlimit:4;stroke-dasharray:5, 20;stroke-dashoffset:0;stroke-opacity:1"
         d="M -424.27734 1057.0859 C -439.13737 1082.8887 -453.9974 1108.6914 -468.85742 1134.4941 C -454.01367 1160.2943 -439.16992 1186.0944 -424.32617 1211.8945 C -394.63672 1211.9199 -364.94727 1211.9453 -335.25781 1211.9707 C -320.41602 1186.1152 -305.57422 1160.2598 -290.73242 1134.4043 C -305.54622 1108.5872 -320.36003 1082.7702 -335.17383 1056.9531 C -364.875 1056.9974 -394.57617 1057.0417 -424.27734 1057.0859 z "
         id="path867-09" />
      <path
         transform="rotate(0.0643696,-245.31537,1057.2637)"
         style="opacity:1;fill:none;fill-opacity:1;stroke:#ffffff;stroke-width:5;stroke-miterlimit:4;stroke-dasharray:5, 20;stroke-dashoffset:0;stroke-opacity:1"
         d="M -290.39648 979.49023 C -305.32227 1005.3112 -320.24805 1031.1322 -335.17383 1056.9531 C -320.36003 1082.7695 -305.54622 1108.5859 -290.73242 1134.4023 C -261.01107 1134.3483 -231.28971 1134.2943 -201.56836 1134.2402 C -186.50716 1108.3008 -171.44596 1082.3613 -156.38477 1056.4219 C -171.26237 1030.7096 -186.13997 1004.9974 -201.01758 979.28516 C -230.81055 979.35352 -260.60352 979.42188 -290.39648 979.49023 z "
         id="path867-6" />
      <path
         transform="rotate(0.06059901,-245.31537,902.7256)"
         style="opacity:1;fill:none;fill-opacity:1;stroke:#ffffff;stroke-width:5;stroke-miterlimit:4;stroke-dasharray:5, 20;stroke-dashoffset:0;stroke-opacity:1"
         d="M -290.12109 825.07227 C -305.03581 850.82487 -319.95052 876.57747 -334.86523 902.33008 C -320.04232 928.05013 -305.2194 953.77018 -290.39648 979.49023 C -260.60417 979.42187 -230.81185 979.35352 -201.01953 979.28516 C -186.07422 953.54557 -171.12891 927.80599 -156.18359 902.06641 C -171.06185 876.36914 -185.9401 850.67188 -200.81836 824.97461 C -230.58594 825.00716 -260.35352 825.03971 -290.12109 825.07227 z "
         id="path867-3" />
      <path
         transform="rotate(0.04200416,-245.31537,748.18744)"
         style="opacity:1;fill:none;fill-opacity:1;stroke:#ffffff;stroke-width:5;stroke-miterlimit:4;stroke-dasharray:5, 20;stroke-dashoffset:0;stroke-opacity:1"
         d="M -289.97852 670.76367 C -304.87044 696.49609 -319.76237 722.22852 -334.6543 747.96094 C -319.8099 773.66471 -304.96549 799.36849 -290.12109 825.07227 C -260.35352 825.03971 -230.58594 825.00716 -200.81836 824.97461 C -185.91992 799.26172 -171.02148 773.54883 -156.12305 747.83594 C -170.99414 722.13086 -185.86523 696.42578 -200.73633 670.7207 C -230.48372 670.73503 -260.23112 670.74935 -289.97852 670.76367 z "
         id="path867-856" />
      <path
         transform="rotate(0.02579175,-111.48139,825.45642)"
         style="opacity:1;fill:none;fill-opacity:1;stroke:#ffffff;stroke-width:5;stroke-miterlimit:4;stroke-dasharray:5, 20;stroke-dashoffset:0;stroke-opacity:1"
         d="M -200.81836 824.97461 C -185.9401 850.67188 -171.06185 876.36914 -156.18359 902.06641 C -126.36784 902.07096 -96.552083 902.07552 -66.736328 902.08008 C -51.865234 876.38281 -36.994141 850.68555 -22.123047 824.98828 C -37.023438 799.27214 -51.923828 773.55599 -66.824219 747.83984 C -96.590495 747.83854 -126.35677 747.83724 -156.12305 747.83594 C -171.02148 773.54883 -185.91992 799.26172 -200.81836 824.97461 z "
         id="path867-1" />
      <path
         transform="rotate(0.03360149,-111.48139,979.99459)"
         style="opacity:1;fill:none;fill-opacity:1;stroke:#ffffff;stroke-width:5;stroke-miterlimit:4;stroke-dasharray:5, 20;stroke-dashoffset:0;stroke-opacity:1"
         d="M -201.01953 979.28516 C -186.14128 1004.9974 -171.26302 1030.7096 -156.38477 1056.4219 C -126.41341 1056.4388 -96.442057 1056.4557 -66.470703 1056.4727 C -51.61263 1030.7552 -36.754557 1005.0378 -21.896484 979.32031 C -36.843099 953.57292 -51.789714 927.82552 -66.736328 902.07812 C -96.552083 902.07357 -126.36784 902.06901 -156.18359 902.06445 C -171.12891 927.80469 -186.07422 953.54492 -201.01953 979.28516 z "
         id="path867-15" />
      <path
         transform="rotate(0.06109013,-379.14941,1289.0708)"
         style="opacity:1;fill:none;fill-opacity:1;stroke:#ffffff;stroke-width:5;stroke-miterlimit:4;stroke-dasharray:5, 20;stroke-dashoffset:0;stroke-opacity:1"
         d="M -468.78906 1289.2227 C -453.90495 1315.013 -439.02083 1340.8034 -424.13672 1366.5938 C -394.41536 1366.6465 -364.69401 1366.6992 -334.97266 1366.752 C -320.15885 1341.0085 -305.34505 1315.265 -290.53125 1289.5215 C -305.44141 1263.6706 -320.35156 1237.8197 -335.26172 1211.9688 C -364.94987 1211.944 -394.63802 1211.9193 -424.32617 1211.8945 C -439.14714 1237.6706 -453.9681 1263.4466 -468.78906 1289.2227 z "
         id="path867-857" />
      <path
         transform="rotate(0.0283208,-245.31544,1366.3397)"
         style="opacity:1;fill:none;fill-opacity:1;stroke:#ffffff;stroke-width:5;stroke-miterlimit:4;stroke-dasharray:5, 20;stroke-dashoffset:0;stroke-opacity:1"
         d="M -334.9707 1366.752 C -320.04753 1392.5228 -305.12435 1418.2936 -290.20117 1444.0645 C -260.42513 1444.1068 -230.64909 1444.1491 -200.87305 1444.1914 C -185.99089 1418.4909 -171.10872 1392.7904 -156.22656 1367.0898 C -171.20443 1341.3216 -186.18229 1315.5534 -201.16016 1289.7852 C -230.95052 1289.6973 -260.74089 1289.6094 -290.53125 1289.5215 C -305.3444 1315.265 -320.15755 1341.0085 -334.9707 1366.752 z "
         id="path867-0-4" />
      <path
         transform="rotate(0.05138715,-245.31544,1211.8018)"
         style="opacity:1;fill:none;fill-opacity:1;stroke:#ffffff;stroke-width:5;stroke-miterlimit:4;stroke-dasharray:5, 20;stroke-dashoffset:0;stroke-opacity:1"
         d="M -290.73242 1134.4023 C -305.57487 1160.2578 -320.41732 1186.1133 -335.25977 1211.9688 C -320.35026 1237.8197 -305.44076 1263.6706 -290.53125 1289.5215 C -260.74089 1289.6087 -230.95052 1289.696 -201.16016 1289.7832 C -186.32031 1264.0391 -171.48047 1238.2949 -156.64062 1212.5508 C -171.61719 1186.4473 -186.59375 1160.3437 -201.57031 1134.2402 C -231.29102 1134.2943 -261.01172 1134.3483 -290.73242 1134.4023 z "
         id="path867-8-1" />
      <path
         transform="rotate(0.02935243,-379.14941,1443.6088)"
         style="opacity:1;fill:none;fill-opacity:1;stroke:#ffffff;stroke-width:5;stroke-miterlimit:4;stroke-dasharray:5, 20;stroke-dashoffset:0;stroke-opacity:1"
         d="M -468.5957 1443.791 C -453.70378 1469.5501 -438.81185 1495.3092 -423.91992 1521.0684 C -394.18555 1521.1048 -364.45117 1521.1413 -334.7168 1521.1777 C -319.87891 1495.4733 -305.04102 1469.7689 -290.20312 1444.0645 C -305.1263 1418.2936 -320.04948 1392.5228 -334.97266 1366.752 C -364.69401 1366.6992 -394.41536 1366.6465 -424.13672 1366.5938 C -438.95638 1392.3262 -453.77604 1418.0586 -468.5957 1443.791 z "
         id="path867-85-8" />
      <path
         transform="rotate(0.00729628,-245.31544,1520.8887)"
         style="opacity:1;fill:none;fill-opacity:1;stroke:#ffffff;stroke-width:5;stroke-miterlimit:4;stroke-dasharray:5, 20;stroke-dashoffset:0;stroke-opacity:1"
         d="M -334.71484 1521.1777 C -319.81576 1546.9121 -304.91667 1572.6465 -290.01758 1598.3809 C -260.26497 1598.4004 -230.51237 1598.4199 -200.75977 1598.4395 C -185.88672 1572.7402 -171.01367 1547.041 -156.14062 1521.3418 C -171.05143 1495.625 -185.96224 1469.9082 -200.87305 1444.1914 C -230.64909 1444.1491 -260.42513 1444.1068 -290.20117 1444.0645 C -305.03906 1469.7689 -319.87695 1495.4733 -334.71484 1521.1777 z "
         id="path867-09-5" />
      <path
         transform="rotate(0.00475143,-111.48144,1443.6043)"
         style="opacity:1;fill:none;fill-opacity:1;stroke:#ffffff;stroke-width:5;stroke-miterlimit:4;stroke-dasharray:5, 20;stroke-dashoffset:0;stroke-opacity:1"
         d="M -156.22461 1367.0898 C -171.10677 1392.7904 -185.98893 1418.4909 -200.87109 1444.1914 C -185.96029 1469.9082 -171.04948 1495.625 -156.13867 1521.3418 C -126.36068 1521.3398 -96.582682 1521.3379 -66.804688 1521.3359 C -51.891276 1495.6146 -36.977865 1469.8932 -22.064453 1444.1719 C -36.936849 1418.472 -51.809245 1392.7721 -66.681641 1367.0723 C -96.529297 1367.0781 -126.37695 1367.084 -156.22461 1367.0898 z "
         id="path867-6-9" />
      <path
         transform="rotate(0.01808555,-111.48144,1289.0705)"
         style="opacity:1;fill:none;fill-opacity:1;stroke:#ffffff;stroke-width:5;stroke-miterlimit:4;stroke-dasharray:5, 20;stroke-dashoffset:0;stroke-opacity:1"
         d="M -156.64062 1212.5508 C -171.47982 1238.2949 -186.31901 1264.0391 -201.1582 1289.7832 C -186.18034 1315.5521 -171.20247 1341.321 -156.22461 1367.0898 C -126.37695 1367.084 -96.529297 1367.0781 -66.681641 1367.0723 C -51.705078 1341.2923 -36.728516 1315.5124 -21.751953 1289.7324 C -36.567708 1263.9661 -51.383464 1238.1999 -66.199219 1212.4336 C -96.346354 1212.4727 -126.49349 1212.5117 -156.64062 1212.5508 z "
         id="path867-3-7" />
      <path
         transform="rotate(0.03035668,-111.48144,1134.5326)"
         style="opacity:1;fill:none;fill-opacity:1;stroke:#ffffff;stroke-width:5;stroke-miterlimit:4;stroke-dasharray:5, 20;stroke-dashoffset:0;stroke-opacity:1"
         d="M -201.56836 1134.2402 C -186.59245 1160.3444 -171.61654 1186.4486 -156.64062 1212.5527 C -126.49349 1212.5137 -96.346354 1212.4746 -66.199219 1212.4355 C -51.263672 1186.3867 -36.328125 1160.3379 -21.392578 1134.2891 C -36.419271 1108.3509 -51.445964 1082.4128 -66.472656 1056.4746 C -96.443359 1056.457 -126.41406 1056.4395 -156.38477 1056.4219 C -171.44596 1082.3613 -186.50716 1108.3008 -201.56836 1134.2402 z "
         id="path867-856-5" />
      <path
         transform="rotate(0.00548697,22.352512,1211.8028)"
         style="opacity:1;fill:none;fill-opacity:1;stroke:#ffffff;stroke-width:5;stroke-miterlimit:4;stroke-dasharray:5, 20;stroke-dashoffset:0;stroke-opacity:1"
         d="M -66.197266 1212.4336 C -51.382161 1238.1999 -36.567057 1263.9661 -21.751953 1289.7324 C 8.0214844 1289.6491 37.794922 1289.5658 67.568359 1289.4824 C 82.469401 1263.6387 97.370443 1237.7949 112.27148 1211.9512 C 97.430339 1186.1068 82.589193 1160.2624 67.748047 1134.418 C 38.034505 1134.375 8.3209635 1134.332 -21.392578 1134.2891 C -36.327474 1160.3372 -51.26237 1186.3854 -66.197266 1212.4336 z "
         id="path867-1-3" />
      <path
         transform="rotate(7.2251636e-4,22.352512,1366.338)"
         style="opacity:1;fill:none;fill-opacity:1;stroke:#ffffff;stroke-width:5;stroke-miterlimit:4;stroke-dasharray:5, 20;stroke-dashoffset:0;stroke-opacity:1"
         d="M -21.751953 1289.7324 C -36.727865 1315.5124 -51.703776 1341.2923 -66.679688 1367.0723 C -51.807943 1392.7721 -36.936198 1418.472 -22.064453 1444.1719 C 7.7057292 1444.127 37.475911 1444.082 67.246094 1444.0371 C 82.165365 1418.2643 97.084635 1392.4915 112.00391 1366.7188 C 97.192057 1340.9733 82.380208 1315.2279 67.568359 1289.4824 C 37.794922 1289.5658 8.0214844 1289.6491 -21.751953 1289.7324 z "
         id="path867-15-8" />
      <path
         transform="rotate(0.00808004,22.352535,902.72539)"
         style="opacity:1;fill:none;fill-opacity:1;stroke:#ffffff;stroke-width:5;stroke-miterlimit:4;stroke-dasharray:5, 20;stroke-dashoffset:0;stroke-opacity:1"
         d="M -66.736328 902.08008 C -51.789714 927.82682 -36.843099 953.57357 -21.896484 979.32031 C 7.8828125 979.38932 37.662109 979.45833 67.441406 979.52734 C 82.261719 953.80404 97.082031 928.08073 111.90234 902.35742 C 96.989583 876.60286 82.076823 850.84831 67.164062 825.09375 C 37.401693 825.05859 7.6393229 825.02344 -22.123047 824.98828 C -36.994141 850.68555 -51.865234 876.38281 -66.736328 902.08008 z "
         id="path867-83" />
      <path
         style="opacity:1;fill:none;fill-opacity:1;stroke:#ffffff;stroke-width:5;stroke-miterlimit:4;stroke-dasharray:5, 20;stroke-dashoffset:0;stroke-opacity:1"
         d="M 67.443359 979.52734 C 82.361328 1005.3457 97.279297 1031.1641 112.19727 1056.9824 C 141.89388 1057.0228 171.59049 1057.0632 201.28711 1057.1035 C 216.10417 1031.3457 230.92122 1005.5879 245.73828 979.83008 C 230.85091 954.05273 215.96354 928.27539 201.07617 902.49805 C 171.35221 902.45052 141.62826 902.40299 111.9043 902.35547 C 97.083984 928.07943 82.263672 953.80339 67.443359 979.52734 z "
         id="path867-0-1" />
      <path
         style="opacity:1;fill:none;fill-opacity:1;stroke:#ffffff;stroke-width:5;stroke-miterlimit:4;stroke-dasharray:5, 20;stroke-dashoffset:0;stroke-opacity:1"
         d="M 67.166016 825.09375 C 82.078776 850.84766 96.991536 876.60156 111.9043 902.35547 C 141.62826 902.40299 171.35221 902.45052 201.07617 902.49805 C 215.90299 876.77214 230.72982 851.04622 245.55664 825.32031 C 230.66862 799.56771 215.7806 773.8151 200.89258 748.0625 C 171.15951 748.03451 141.42643 748.00651 111.69336 747.97852 C 96.850911 773.68359 82.008464 799.38867 67.166016 825.09375 z "
         id="path867-8-8" />
      <path
         transform="rotate(0.00922011,22.352535,1057.263)"
         style="opacity:1;fill:none;fill-opacity:1;stroke:#ffffff;stroke-width:5;stroke-miterlimit:4;stroke-dasharray:5, 20;stroke-dashoffset:0;stroke-opacity:1"
         d="M -66.470703 1056.4727 C -51.44401 1082.4115 -36.417318 1108.3503 -21.390625 1134.2891 C 8.3222656 1134.332 38.035156 1134.375 67.748047 1134.418 C 82.563802 1108.6061 97.379557 1082.7943 112.19531 1056.9824 C 97.277344 1031.1641 82.359375 1005.3457 67.441406 979.52734 C 37.662109 979.45833 7.8828125 979.38932 -21.896484 979.32031 C -36.754557 1005.0378 -51.61263 1030.7552 -66.470703 1056.4727 z "
         id="path867-85-9" />
      <path
         style="opacity:1;fill:none;fill-opacity:1;stroke:#ffffff;stroke-width:5;stroke-miterlimit:4;stroke-dasharray:5, 20;stroke-dashoffset:0;stroke-opacity:1"
         d="M 67.75 1134.418 C 82.591146 1160.263 97.432292 1186.1081 112.27344 1211.9531 C 141.95964 1211.931 171.64583 1211.9089 201.33203 1211.8867 C 216.17513 1186.0911 231.01823 1160.2956 245.86133 1134.5 C 231.00326 1108.7012 216.14518 1082.9023 201.28711 1057.1035 C 171.59049 1057.0632 141.89388 1057.0228 112.19727 1056.9824 C 97.38151 1082.7943 82.565755 1108.6061 67.75 1134.418 z "
         id="path867-09-6" />
      <path
         style="opacity:1;fill:none;fill-opacity:1;stroke:#ffffff;stroke-width:5;stroke-miterlimit:4;stroke-dasharray:5, 20;stroke-dashoffset:0;stroke-opacity:1"
         d="M 201.28906 1057.1035 C 216.14714 1082.9023 231.00521 1108.7012 245.86328 1134.5 C 275.54427 1134.5052 305.22526 1134.5104 334.90625 1134.5156 C 349.74349 1108.7526 364.58073 1082.9896 379.41797 1057.2266 C 364.55469 1031.4557 349.69141 1005.6849 334.82812 979.91406 C 305.13216 979.88607 275.4362 979.85807 245.74023 979.83008 C 230.92318 1005.5879 216.10612 1031.3457 201.28906 1057.1035 z "
         id="path867-6-4" />
      <path
         style="opacity:1;fill:none;fill-opacity:1;stroke:#ffffff;stroke-width:5;stroke-miterlimit:4;stroke-dasharray:5, 20;stroke-dashoffset:0;stroke-opacity:1"
         d="M 201.07812 902.5 C 215.96549 928.27669 230.85286 954.05339 245.74023 979.83008 C 275.4362 979.85807 305.13216 979.88607 334.82812 979.91406 C 349.66276 954.16927 364.4974 928.42448 379.33203 902.67969 C 364.45768 876.91927 349.58333 851.15885 334.70898 825.39844 C 304.99219 825.3724 275.27539 825.34635 245.55859 825.32031 C 230.73177 851.04688 215.90495 876.77344 201.07812 902.5 z "
         id="path867-3-3" />
      <path
         style="opacity:1;fill:none;fill-opacity:1;stroke:#ffffff;stroke-width:5;stroke-miterlimit:4;stroke-dasharray:5, 20;stroke-dashoffset:0;stroke-opacity:1"
         d="M 200.89453 748.0625 C 215.78255 773.8151 230.67057 799.56771 245.55859 825.32031 C 275.27539 825.34635 304.99219 825.3724 334.70898 825.39844 C 349.55859 799.65755 364.4082 773.91667 379.25781 748.17578 C 364.38411 722.42057 349.51042 696.66536 334.63672 670.91016 C 304.90365 670.90039 275.17057 670.89062 245.4375 670.88086 C 230.58984 696.60807 215.74219 722.33529 200.89453 748.0625 z "
         id="path867-856-3" />
      <path
         style="opacity:1;fill:none;fill-opacity:1;stroke:#ffffff;stroke-width:5;stroke-miterlimit:4;stroke-dasharray:5, 20;stroke-dashoffset:0;stroke-opacity:1"
         d="M 334.71094 825.39844 C 349.58464 851.1582 364.45833 876.91797 379.33203 902.67773 C 409.05013 902.6901 438.76823 902.70247 468.48633 902.71484 C 483.34961 876.96224 498.21289 851.20964 513.07617 825.45703 C 498.20573 799.70052 483.33529 773.94401 468.46484 748.1875 C 438.72917 748.18359 408.99349 748.17969 379.25781 748.17578 C 364.40885 773.91667 349.5599 799.65755 334.71094 825.39844 z "
         id="path867-1-38" />
      <path
         style="opacity:1;fill:none;fill-opacity:1;stroke:#ffffff;stroke-width:5;stroke-miterlimit:4;stroke-dasharray:5, 20;stroke-dashoffset:0;stroke-opacity:1"
         d="M 334.83008 979.91406 C 349.69271 1005.6849 364.55534 1031.4557 379.41797 1057.2266 C 409.12044 1057.2357 438.82292 1057.2448 468.52539 1057.2539 C 483.38021 1031.4993 498.23503 1005.7448 513.08984 979.99023 C 498.22201 954.23177 483.35417 928.47331 468.48633 902.71484 C 438.76823 902.70247 409.05013 902.6901 379.33203 902.67773 C 364.49805 928.42318 349.66406 954.16862 334.83008 979.91406 z "
         id="path867-15-6" />
      <path
         style="opacity:1;fill:none;fill-opacity:1;stroke:#ffffff;stroke-width:5;stroke-miterlimit:4;stroke-dasharray:5, 20;stroke-dashoffset:0;stroke-opacity:1"
         d="M 112.27344 1211.9512 C 97.372396 1237.7949 82.471354 1263.6387 67.570312 1289.4824 C 82.382161 1315.2279 97.19401 1340.9733 112.00586 1366.7188 C 141.72266 1366.6686 171.43945 1366.6185 201.15625 1366.5684 C 216.03646 1340.7806 230.91667 1314.9928 245.79688 1289.2051 C 230.97526 1263.4316 216.15365 1237.6582 201.33203 1211.8848 C 171.64583 1211.9069 141.95964 1211.929 112.27344 1211.9512 z "
         id="path867-2" />
      <path
         style="opacity:1;fill:none;fill-opacity:1;stroke:#ffffff;stroke-width:5;stroke-miterlimit:4;stroke-dasharray:5, 20;stroke-dashoffset:0;stroke-opacity:1"
         d="M 245.79883 1289.2051 C 230.91862 1314.9928 216.03841 1340.7806 201.1582 1366.5684 C 215.97852 1392.3027 230.79883 1418.0371 245.61914 1443.7715 C 275.32943 1443.7422 305.03971 1443.7129 334.75 1443.6836 C 349.62174 1417.9193 364.49349 1392.1549 379.36523 1366.3906 C 364.53255 1340.6393 349.69987 1314.888 334.86719 1289.1367 C 305.17773 1289.1595 275.48828 1289.1823 245.79883 1289.2051 z "
         id="path867-0-5" />
      <path
         style="opacity:1;fill:none;fill-opacity:1;stroke:#ffffff;stroke-width:5;stroke-miterlimit:4;stroke-dasharray:5, 20;stroke-dashoffset:0;stroke-opacity:1"
         d="M 201.33398 1211.8848 C 216.1556 1237.6582 230.97721 1263.4316 245.79883 1289.2051 C 275.48828 1289.1823 305.17773 1289.1595 334.86719 1289.1367 C 349.72266 1263.3646 364.57812 1237.5924 379.43359 1211.8203 C 364.59115 1186.0521 349.7487 1160.2839 334.90625 1134.5156 C 305.22526 1134.5104 275.54427 1134.5052 245.86328 1134.5 C 231.02018 1160.2949 216.17708 1186.0898 201.33398 1211.8848 z "
         id="path867-8-4" />
      <path
         style="opacity:1;fill:none;fill-opacity:1;stroke:#ffffff;stroke-width:5;stroke-miterlimit:4;stroke-dasharray:5, 20;stroke-dashoffset:0;stroke-opacity:1"
         d="M 112.00586 1366.7188 C 97.086589 1392.4915 82.167318 1418.2643 67.248047 1444.0371 C 82.083984 1469.7428 96.919922 1495.4486 111.75586 1521.1543 C 141.48698 1521.1185 171.2181 1521.0827 200.94922 1521.0469 C 215.83854 1495.2884 230.72786 1469.5299 245.61719 1443.7715 C 230.79688 1418.0371 215.97656 1392.3027 201.15625 1366.5684 C 171.43945 1366.6185 141.72266 1366.6686 112.00586 1366.7188 z "
         id="path867-85-0" />
      <path
         style="opacity:1;fill:none;fill-opacity:1;stroke:#ffffff;stroke-width:5;stroke-miterlimit:4;stroke-dasharray:5, 20;stroke-dashoffset:0;stroke-opacity:1"
         d="M 245.61914 1443.7715 C 230.72982 1469.5299 215.84049 1495.2884 200.95117 1521.0469 C 215.79102 1546.7708 230.63086 1572.4948 245.4707 1598.2188 C 275.19857 1598.2018 304.92643 1598.1849 334.6543 1598.168 C 349.5293 1572.4128 364.4043 1546.6576 379.2793 1520.9023 C 364.4362 1495.1628 349.5931 1469.4232 334.75 1443.6836 C 305.03971 1443.7129 275.32943 1443.7422 245.61914 1443.7715 z "
         id="path867-09-59" />
      <path
         style="opacity:1;fill:none;fill-opacity:1;stroke:#ffffff;stroke-width:5;stroke-miterlimit:4;stroke-dasharray:5, 20;stroke-dashoffset:0;stroke-opacity:1"
         d="M 379.36719 1366.3906 C 364.49544 1392.1549 349.6237 1417.9193 334.75195 1443.6836 C 349.59505 1469.4232 364.43815 1495.1628 379.28125 1520.9023 C 409.01042 1520.8945 438.73958 1520.8867 468.46875 1520.8789 C 483.33854 1495.1224 498.20833 1469.3659 513.07812 1443.6094 C 498.2194 1417.8568 483.36068 1392.1042 468.50195 1366.3516 C 438.79036 1366.3646 409.07878 1366.3776 379.36719 1366.3906 z "
         id="path867-6-46" />
      <path
         style="opacity:1;fill:none;fill-opacity:1;stroke:#ffffff;stroke-width:5;stroke-miterlimit:4;stroke-dasharray:5, 20;stroke-dashoffset:0;stroke-opacity:1"
         d="M 379.43555 1211.8203 C 364.58008 1237.5924 349.72461 1263.3646 334.86914 1289.1367 C 349.70182 1314.888 364.53451 1340.6393 379.36719 1366.3906 C 409.07878 1366.3776 438.79036 1366.3646 468.50195 1366.3516 C 483.36719 1340.5924 498.23242 1314.8333 513.09766 1289.0742 C 498.24349 1263.3184 483.38932 1237.5625 468.53516 1211.8066 C 438.83529 1211.8112 409.13542 1211.8158 379.43555 1211.8203 z "
         id="path867-3-9" />
      <path
         style="opacity:1;fill:none;fill-opacity:1;stroke:#ffffff;stroke-width:5;stroke-miterlimit:4;stroke-dasharray:5, 20;stroke-dashoffset:0;stroke-opacity:1"
         d="M 334.9082 1134.5156 C 349.75065 1160.2839 364.5931 1186.0521 379.43555 1211.8203 C 409.13542 1211.8158 438.83529 1211.8112 468.53516 1211.8066 C 483.39193 1186.0482 498.2487 1160.2897 513.10547 1134.5312 C 498.24609 1108.7721 483.38672 1083.013 468.52734 1057.2539 C 438.82487 1057.2448 409.1224 1057.2357 379.41992 1057.2266 C 364.58268 1082.9896 349.74544 1108.7526 334.9082 1134.5156 z "
         id="path867-856-2" />
      <path
         style="opacity:1;fill:none;fill-opacity:1;stroke:#ffffff;stroke-width:5;stroke-miterlimit:4;stroke-dasharray:5, 20;stroke-dashoffset:0;stroke-opacity:1"
         d="M 468.53516 1211.8066 C 483.38997 1237.5625 498.24479 1263.3184 513.09961 1289.0742 C 542.83268 1289.0729 572.56576 1289.0716 602.29883 1289.0703 C 617.16927 1263.3138 632.03971 1237.5573 646.91016 1211.8008 C 632.03971 1186.0449 617.16927 1160.2891 602.29883 1134.5332 C 572.56836 1134.5326 542.83789 1134.5319 513.10742 1134.5312 C 498.25 1160.2897 483.39258 1186.0482 468.53516 1211.8066 z "
         id="path867-1-2" />
      <path
         style="opacity:1;fill:none;fill-opacity:1;stroke:#ffffff;stroke-width:5;stroke-miterlimit:4;stroke-dasharray:5, 20;stroke-dashoffset:0;stroke-opacity:1"
         d="M 513.09961 1289.0742 C 498.23372 1314.8333 483.36784 1340.5924 468.50195 1366.3516 C 483.36133 1392.1042 498.2207 1417.8568 513.08008 1443.6094 C 542.81966 1443.6094 572.55924 1443.6094 602.29883 1443.6094 C 617.16927 1417.8529 632.03971 1392.0964 646.91016 1366.3398 C 632.03971 1340.5833 617.16927 1314.8268 602.29883 1289.0703 C 572.56576 1289.0716 542.83268 1289.0729 513.09961 1289.0742 z "
         id="path867-15-4" />
      <path
         style="opacity:1;fill:none;fill-opacity:1;stroke:#ffffff;stroke-width:5;stroke-miterlimit:4;stroke-dasharray:5, 20;stroke-dashoffset:0;stroke-opacity:1"
         d="M -334.58008 1675.5176 C -319.69922 1701.2546 -304.81836 1726.9915 -289.9375 1752.7285 C -260.19596 1752.735 -230.45443 1752.7415 -200.71289 1752.748 C -185.84375 1727.0273 -170.97461 1701.3066 -156.10547 1675.5859 C -170.99023 1649.8704 -185.875 1624.1549 -200.75977 1598.4395 C -230.51237 1598.4199 -260.26497 1598.4004 -290.01758 1598.3809 C -304.87174 1624.0931 -319.72591 1649.8053 -334.58008 1675.5176 z "
         id="path867-7" />
      <path
         style="opacity:1;fill:none;fill-opacity:1;stroke:#ffffff;stroke-width:5;stroke-miterlimit:4;stroke-dasharray:5, 20;stroke-dashoffset:0;stroke-opacity:1"
         d="M -156.10352 1675.5859 C -170.97266 1701.3066 -185.8418 1727.0273 -200.71094 1752.748 C -185.83789 1778.4863 -170.96484 1804.2246 -156.0918 1829.9629 C -126.35156 1829.9629 -96.611328 1829.9629 -66.871094 1829.9629 C -51.997396 1804.2233 -37.123698 1778.4837 -22.25 1752.7441 C -37.117839 1727.0241 -51.985677 1701.304 -66.853516 1675.584 C -96.603516 1675.5846 -126.35352 1675.5853 -156.10352 1675.5859 z "
         id="path867-0-7" />
      <path
         style="opacity:1;fill:none;fill-opacity:1;stroke:#ffffff;stroke-width:5;stroke-miterlimit:4;stroke-dasharray:5, 20;stroke-dashoffset:0;stroke-opacity:1"
         d="M -156.13867 1521.3398 C -171.01172 1547.0397 -185.88477 1572.7396 -200.75781 1598.4395 C -185.87305 1624.1549 -170.98828 1649.8704 -156.10352 1675.5859 C -126.35352 1675.5853 -96.603516 1675.5846 -66.853516 1675.584 C -51.967448 1649.8665 -37.08138 1624.1491 -22.195312 1598.4316 C -37.065104 1572.7324 -51.934896 1547.0332 -66.804688 1521.334 C -96.582682 1521.3359 -126.36068 1521.3379 -156.13867 1521.3398 z "
         id="path867-8-5" />
      <path
         style="opacity:1;fill:none;fill-opacity:1;stroke:#ffffff;stroke-width:5;stroke-miterlimit:4;stroke-dasharray:5, 20;stroke-dashoffset:0;stroke-opacity:1"
         d="M -334.53711 1829.9531 C -319.66667 1855.7096 -304.79622 1881.4661 -289.92578 1907.2227 C -260.18555 1907.2227 -230.44531 1907.2227 -200.70508 1907.2227 C -185.83464 1881.4694 -170.96419 1855.7161 -156.09375 1829.9629 C -170.9668 1804.2246 -185.83984 1778.4863 -200.71289 1752.748 C -230.45443 1752.7415 -260.19596 1752.735 -289.9375 1752.7285 C -304.80404 1778.4701 -319.67057 1804.2116 -334.53711 1829.9531 z "
         id="path867-85-4" />
      <path
         style="opacity:1;fill:none;fill-opacity:1;stroke:#ffffff;stroke-width:5;stroke-miterlimit:4;stroke-dasharray:5, 20;stroke-dashoffset:0;stroke-opacity:1"
         d="M -200.70312 1907.2227 C -185.83268 1932.9792 -170.96224 1958.7357 -156.0918 1984.4922 C -126.35156 1984.4922 -96.611328 1984.4922 -66.871094 1984.4922 C -52.000651 1958.7357 -37.130208 1932.9792 -22.259766 1907.2227 C -37.130208 1881.4694 -52.000651 1855.7161 -66.871094 1829.9629 C -96.611328 1829.9629 -126.35156 1829.9629 -156.0918 1829.9629 C -170.96224 1855.7161 -185.83268 1881.4694 -200.70312 1907.2227 z "
         id="path867-09-8" />
      <path
         style="opacity:1;fill:none;fill-opacity:1;stroke:#ffffff;stroke-width:5;stroke-miterlimit:4;stroke-dasharray:5, 20;stroke-dashoffset:0;stroke-opacity:1"
         d="M -22.248047 1752.7441 C -37.121745 1778.4837 -51.995443 1804.2233 -66.869141 1829.9629 C -51.998698 1855.7161 -37.128255 1881.4694 -22.257812 1907.2227 C 7.4830729 1907.2227 37.223958 1907.2227 66.964844 1907.2227 C 81.834635 1881.4661 96.704427 1855.7096 111.57422 1829.9531 C 96.708333 1804.2103 81.842448 1778.4674 66.976562 1752.7246 C 37.235026 1752.7311 7.4934896 1752.7376 -22.248047 1752.7441 z "
         id="path867-6-1" />
      <path
         style="opacity:1;fill:none;fill-opacity:1;stroke:#ffffff;stroke-width:5;stroke-miterlimit:4;stroke-dasharray:5, 20;stroke-dashoffset:0;stroke-opacity:1"
         d="M -22.193359 1598.4316 C -37.079427 1624.1491 -51.965495 1649.8665 -66.851562 1675.584 C -51.983724 1701.304 -37.115885 1727.0241 -22.248047 1752.7441 C 7.4934896 1752.7376 37.235026 1752.7311 66.976562 1752.7246 C 81.85612 1726.9857 96.735677 1701.2467 111.61523 1675.5078 C 96.763021 1649.7943 81.910807 1624.0807 67.058594 1598.3672 C 37.307943 1598.3887 7.5572917 1598.4102 -22.193359 1598.4316 z "
         id="path867-3-2" />
      <path
         style="opacity:1;fill:none;fill-opacity:1;stroke:#ffffff;stroke-width:5;stroke-miterlimit:4;stroke-dasharray:5, 20;stroke-dashoffset:0;stroke-opacity:1"
         d="M -22.0625 1444.1719 C -36.975911 1469.8926 -51.889323 1495.6133 -66.802734 1521.334 C -51.932943 1547.0332 -37.063151 1572.7324 -22.193359 1598.4316 C 7.5572917 1598.4102 37.307943 1598.3887 67.058594 1598.3672 C 81.957031 1572.6296 96.855469 1546.8919 111.75391 1521.1543 C 96.91862 1495.4486 82.083333 1469.7428 67.248047 1444.0371 C 37.477865 1444.082 7.7076823 1444.127 -22.0625 1444.1719 z "
         id="path867-856-8" />
      <path
         style="opacity:1;fill:none;fill-opacity:1;stroke:#ffffff;stroke-width:5;stroke-miterlimit:4;stroke-dasharray:5, 20;stroke-dashoffset:0;stroke-opacity:1"
         d="M 111.75586 1521.1543 C 96.856771 1546.8919 81.957682 1572.6296 67.058594 1598.3672 C 81.911458 1624.0807 96.764323 1649.7943 111.61719 1675.5078 C 141.35286 1675.4922 171.08854 1675.4766 200.82422 1675.4609 C 215.70573 1649.7135 230.58724 1623.9661 245.46875 1598.2188 C 230.62891 1572.4948 215.78906 1546.7708 200.94922 1521.0469 C 171.2181 1521.0827 141.48698 1521.1185 111.75586 1521.1543 z "
         id="path867-1-9" />
      <path
         style="opacity:1;fill:none;fill-opacity:1;stroke:#ffffff;stroke-width:5;stroke-miterlimit:4;stroke-dasharray:5, 20;stroke-dashoffset:0;stroke-opacity:1"
         d="M 111.61719 1675.5078 C 96.736979 1701.2467 81.856771 1726.9857 66.976562 1752.7246 C 81.843099 1778.4674 96.709635 1804.2103 111.57617 1829.9531 C 141.31641 1829.9531 171.05664 1829.9531 200.79688 1829.9531 C 215.66732 1804.1979 230.53776 1778.4427 245.4082 1752.6875 C 230.54688 1726.9453 215.68555 1701.2031 200.82422 1675.4609 C 171.08854 1675.4766 141.35286 1675.4922 111.61719 1675.5078 z "
         id="path867-15-3" />
      <path
         d="m -825.26267,1289.0707 -44.61131,77.269 h -89.22262 l -44.6113,-77.269 44.6113,-77.2691 89.22262,0 z"
         inkscape:randomized="0"
         inkscape:rounded="0"
         inkscape:flatsided="true"
         sodipodi:arg2="0.52359878"
         sodipodi:arg1="0"
         sodipodi:r2="77.269058"
         sodipodi:r1="89.222618"
         sodipodi:cy="1289.0707"
         sodipodi:cx="-914.48529"
         sodipodi:sides="6"
         id="path867-68"
         style="opacity:1;fill:none;fill-opacity:1;stroke:#ffffff;stroke-width:5;stroke-miterlimit:4;stroke-dasharray:5, 20;stroke-dashoffset:0;stroke-opacity:1"
         sodipodi:type="star"
         transform="rotate(0.03197677,-914.48529,1289.0701)" />
      <path
         transform="rotate(0.03956803,-780.65131,1366.3396)"
         style="opacity:1;fill:none;fill-opacity:1;stroke:#ffffff;stroke-width:5;stroke-miterlimit:4;stroke-dasharray:5, 20;stroke-dashoffset:0;stroke-opacity:1"
         d="M -869.87305 1366.3398 C -855.0026 1392.0964 -840.13216 1417.8529 -825.26172 1443.6094 C -795.52279 1443.61 -765.78385 1443.6107 -736.04492 1443.6113 C -721.1888 1417.86 -706.33268 1392.1087 -691.47656 1366.3574 C -706.34115 1340.597 -721.20573 1314.8366 -736.07031 1289.0762 C -765.80078 1289.0742 -795.53125 1289.0723 -825.26172 1289.0703 C -840.13216 1314.8268 -855.0026 1340.5833 -869.87305 1366.3398 z "
         id="path867-0-0" />
      <path
         transform="rotate(0.06740038,-780.65131,1211.8017)"
         style="opacity:1;fill:none;fill-opacity:1;stroke:#ffffff;stroke-width:5;stroke-miterlimit:4;stroke-dasharray:5, 20;stroke-dashoffset:0;stroke-opacity:1"
         d="M -825.26172 1134.5332 C -840.13216 1160.2891 -855.0026 1186.0449 -869.87305 1211.8008 C -855.0026 1237.5573 -840.13216 1263.3138 -825.26172 1289.0703 C -795.53125 1289.0723 -765.80078 1289.0742 -736.07031 1289.0762 C -721.21875 1263.3203 -706.36719 1237.5645 -691.51562 1211.8086 C -706.37109 1186.0495 -721.22656 1160.2904 -736.08203 1134.5312 C -765.80859 1134.5319 -795.53516 1134.5326 -825.26172 1134.5332 z "
         id="path867-8-2" />
      <path
         d="m -825.26267,1443.6088 -44.61131,77.269 h -89.22262 l -44.6113,-77.269 44.6113,-77.2691 89.22262,0 z"
         inkscape:randomized="0"
         inkscape:rounded="0"
         inkscape:flatsided="true"
         sodipodi:arg2="0.52359878"
         sodipodi:arg1="0"
         sodipodi:r2="77.269058"
         sodipodi:r1="89.222618"
         sodipodi:cy="1443.6088"
         sodipodi:cx="-914.48529"
         sodipodi:sides="6"
         id="path867-85-1"
         style="opacity:1;fill:none;fill-opacity:1;stroke:#ffffff;stroke-width:5;stroke-miterlimit:4;stroke-dasharray:5, 20;stroke-dashoffset:0;stroke-opacity:1"
         sodipodi:type="star"
         transform="rotate(0.01191307,-914.48529,1443.6041)" />
      <path
         transform="rotate(0.01268976,-780.65131,1520.8711)"
         style="opacity:1;fill:none;fill-opacity:1;stroke:#ffffff;stroke-width:5;stroke-miterlimit:4;stroke-dasharray:5, 20;stroke-dashoffset:0;stroke-opacity:1"
         d="M -869.87305 1520.877 C -855.0026 1546.6335 -840.13216 1572.39 -825.26172 1598.1465 C -795.52083 1598.1465 -765.77995 1598.1465 -736.03906 1598.1465 C -721.17057 1572.3913 -706.30208 1546.6361 -691.43359 1520.8809 C -706.30404 1495.1243 -721.17448 1469.3678 -736.04492 1443.6113 C -765.78385 1443.6107 -795.52279 1443.61 -825.26172 1443.6094 C -840.13216 1469.3652 -855.0026 1495.1211 -869.87305 1520.877 z "
         id="path867-09-0" />
      <path
         transform="rotate(0.03480105,-646.81732,1443.6085)"
         style="opacity:1;fill:none;fill-opacity:1;stroke:#ffffff;stroke-width:5;stroke-miterlimit:4;stroke-dasharray:5, 20;stroke-dashoffset:0;stroke-opacity:1"
         d="M -736.04492 1443.6113 C -721.17448 1469.3678 -706.30404 1495.1243 -691.43359 1520.8809 C -661.70573 1520.8906 -631.97786 1520.9004 -602.25 1520.9102 C -587.41016 1495.1725 -572.57031 1469.4349 -557.73047 1443.6973 C -572.60352 1417.9316 -587.47656 1392.166 -602.34961 1366.4004 C -632.05859 1366.3861 -661.76758 1366.3717 -691.47656 1366.3574 C -706.33268 1392.1087 -721.1888 1417.86 -736.04492 1443.6113 z "
         id="path867-6-5" />
      <path
         transform="rotate(0.0696246,-646.81732,1289.0707)"
         style="opacity:1;fill:none;fill-opacity:1;stroke:#ffffff;stroke-width:5;stroke-miterlimit:4;stroke-dasharray:5, 20;stroke-dashoffset:0;stroke-opacity:1"
         d="M -736.07031 1289.0762 C -721.20573 1314.8366 -706.34115 1340.597 -691.47656 1366.3574 C -661.76758 1366.3717 -632.05859 1366.3861 -602.34961 1366.4004 C -587.51888 1340.6491 -572.68815 1314.8978 -557.85742 1289.1465 C -572.71354 1263.3724 -587.56966 1237.5983 -602.42578 1211.8242 C -632.1224 1211.819 -661.81901 1211.8138 -691.51562 1211.8086 C -706.36719 1237.5645 -721.21875 1263.3203 -736.07031 1289.0762 z "
         id="path867-3-1" />
      <path
         transform="rotate(0.0964172,-646.81732,1134.5326)"
         style="opacity:1;fill:none;fill-opacity:1;stroke:#ffffff;stroke-width:5;stroke-miterlimit:4;stroke-dasharray:5, 20;stroke-dashoffset:0;stroke-opacity:1"
         d="M -691.50586 1057.25 C -706.36458 1083.0104 -721.22331 1108.7708 -736.08203 1134.5312 C -721.22656 1160.2904 -706.37109 1186.0495 -691.51562 1211.8086 C -661.81836 1211.8138 -632.12109 1211.819 -602.42383 1211.8242 C -587.58268 1186.054 -572.74154 1160.2839 -557.90039 1134.5137 C -572.73568 1108.7493 -587.57096 1082.985 -602.40625 1057.2207 C -632.10612 1057.2305 -661.80599 1057.2402 -691.50586 1057.25 z "
         id="path867-856-1" />
      <path
         transform="rotate(0.08789207,-512.98334,1211.8018)"
         style="opacity:1;fill:none;fill-opacity:1;stroke:#ffffff;stroke-width:5;stroke-miterlimit:4;stroke-dasharray:5, 20;stroke-dashoffset:0;stroke-opacity:1"
         d="M -557.90039 1134.5137 C -572.74219 1160.2839 -587.58398 1186.054 -602.42578 1211.8242 C -587.56966 1237.5983 -572.71354 1263.3724 -557.85742 1289.1465 C -528.16797 1289.1719 -498.47852 1289.1973 -468.78906 1289.2227 C -453.9681 1263.4466 -439.14714 1237.6706 -424.32617 1211.8945 C -439.17057 1186.0944 -454.01497 1160.2943 -468.85938 1134.4941 C -498.53971 1134.5007 -528.22005 1134.5072 -557.90039 1134.5137 z "
         id="path867-1-0" />
      <path
         transform="rotate(0.0543985,-512.98334,1366.3398)"
         style="opacity:1;fill:none;fill-opacity:1;stroke:#ffffff;stroke-width:5;stroke-miterlimit:4;stroke-dasharray:5, 20;stroke-dashoffset:0;stroke-opacity:1"
         d="M -602.34961 1366.4004 C -587.47656 1392.166 -572.60352 1417.9316 -557.73047 1443.6973 C -528.01888 1443.7285 -498.30729 1443.7598 -468.5957 1443.791 C -453.77604 1418.0586 -438.95638 1392.3262 -424.13672 1366.5938 C -439.02083 1340.8034 -453.90495 1315.013 -468.78906 1289.2227 C -498.47852 1289.1973 -528.16797 1289.1719 -557.85742 1289.1465 C -572.68815 1314.8978 -587.51888 1340.6491 -602.34961 1366.4004 z "
         id="path867-15-85" />
      <path
         d="m -691.42875,1675.4163 -44.61131,77.269 h -89.22262 l -44.61131,-77.269 44.61131,-77.2691 89.22262,0 z"
         inkscape:randomized="0"
         inkscape:rounded="0"
         inkscape:flatsided="true"
         sodipodi:arg2="0.52359878"
         sodipodi:arg1="0"
         sodipodi:r2="77.269058"
         sodipodi:r1="89.222618"
         sodipodi:cy="1675.4163"
         sodipodi:cx="-780.65137"
         sodipodi:sides="6"
         id="path867-06"
         style="opacity:1;fill:none;fill-opacity:1;stroke:#ffffff;stroke-width:5;stroke-miterlimit:4;stroke-dasharray:5, 20;stroke-dashoffset:0;stroke-opacity:1"
         sodipodi:type="star"
         transform="rotate(1.1793321e-4,-780.65137,1675.3838)" />
      <path
         style="opacity:1;fill:none;fill-opacity:1;stroke:#ffffff;stroke-width:5;stroke-miterlimit:4;stroke-dasharray:5, 20;stroke-dashoffset:0;stroke-opacity:1"
         d="M -736.03906 1752.6855 C -721.16862 1778.4421 -706.29818 1804.1986 -691.42773 1829.9551 C -661.6875 1829.9551 -631.94727 1829.9551 -602.20703 1829.9551 C -587.33659 1804.1986 -572.46615 1778.4421 -557.5957 1752.6855 C -572.46615 1726.929 -587.33659 1701.1725 -602.20703 1675.416 C -631.94727 1675.416 -661.6875 1675.416 -691.42773 1675.416 C -706.29818 1701.1725 -721.16862 1726.929 -736.03906 1752.6855 z "
         id="path867-0-46" />
      <path
         transform="rotate(0.00764528,-646.81738,1598.1643)"
         style="opacity:1;fill:none;fill-opacity:1;stroke:#ffffff;stroke-width:5;stroke-miterlimit:4;stroke-dasharray:5, 20;stroke-dashoffset:0;stroke-opacity:1"
         d="M -736.03906 1598.1465 C -721.16862 1623.903 -706.29818 1649.6595 -691.42773 1675.416 C -661.6875 1675.416 -631.94727 1675.416 -602.20703 1675.416 C -587.34635 1649.6693 -572.48568 1623.9225 -557.625 1598.1758 C -572.5013 1572.4206 -587.3776 1546.6654 -602.25391 1520.9102 C -631.98047 1520.9004 -661.70703 1520.8906 -691.43359 1520.8809 C -706.30208 1546.6361 -721.17057 1572.3913 -736.03906 1598.1465 z "
         id="path867-8-25" />
      <path
         d="m -691.42875,1829.9542 -44.61131,77.2691 h -89.22262 l -44.61131,-77.2691 44.61131,-77.269 89.22262,0 z"
         inkscape:randomized="0"
         inkscape:rounded="0"
         inkscape:flatsided="true"
         sodipodi:arg2="0.52359878"
         sodipodi:arg1="0"
         sodipodi:r2="77.269058"
         sodipodi:r1="89.222618"
         sodipodi:cy="1829.9542"
         sodipodi:cx="-780.65137"
         sodipodi:sides="6"
         id="path867-85-86"
         style="opacity:1;fill:none;fill-opacity:1;stroke:#ffffff;stroke-width:5;stroke-miterlimit:4;stroke-dasharray:5, 20;stroke-dashoffset:0;stroke-opacity:1"
         sodipodi:type="star" />
      <path
         d="m -557.59476,1907.2231 -44.61131,77.2691 h -89.22262 l -44.61131,-77.2691 44.61131,-77.269 89.22262,0 z"
         inkscape:randomized="0"
         inkscape:rounded="0"
         inkscape:flatsided="true"
         sodipodi:arg2="0.52359878"
         sodipodi:arg1="0"
         sodipodi:r2="77.269058"
         sodipodi:r1="89.222618"
         sodipodi:cy="1907.2231"
         sodipodi:cx="-646.81738"
         sodipodi:sides="6"
         id="path867-09-2"
         style="opacity:1;fill:none;fill-opacity:1;stroke:#ffffff;stroke-width:5;stroke-miterlimit:4;stroke-dasharray:5, 20;stroke-dashoffset:0;stroke-opacity:1"
         sodipodi:type="star" />
      <path
         style="opacity:1;fill:none;fill-opacity:1;stroke:#ffffff;stroke-width:5;stroke-miterlimit:4;stroke-dasharray:5, 20;stroke-dashoffset:0;stroke-opacity:1"
         d="M -602.20508 1829.9551 C -587.33464 1855.7109 -572.46419 1881.4668 -557.59375 1907.2227 C -527.85352 1907.2227 -498.11328 1907.2227 -468.37305 1907.2227 C -453.5026 1881.4668 -438.63216 1855.7109 -423.76172 1829.9551 C -438.63281 1804.1999 -453.50391 1778.4447 -468.375 1752.6895 C -498.11458 1752.6882 -527.85417 1752.6868 -557.59375 1752.6855 C -572.46419 1778.4421 -587.33464 1804.1986 -602.20508 1829.9551 z "
         id="path867-6-8" />
      <path
         transform="rotate(0.00134905,-512.9834,1675.4112)"
         style="opacity:1;fill:none;fill-opacity:1;stroke:#ffffff;stroke-width:5;stroke-miterlimit:4;stroke-dasharray:5, 20;stroke-dashoffset:0;stroke-opacity:1"
         d="M -602.20508 1675.416 C -587.33464 1701.1725 -572.46419 1726.929 -557.59375 1752.6855 C -527.85417 1752.6868 -498.11458 1752.6882 -468.375 1752.6895 C -453.51432 1726.9492 -438.65365 1701.209 -423.79297 1675.4688 C -438.67513 1649.7227 -453.55729 1623.9766 -468.43945 1598.2305 C -498.16732 1598.2122 -527.89518 1598.194 -557.62305 1598.1758 C -572.48372 1623.9225 -587.3444 1649.6693 -602.20508 1675.416 z "
         id="path867-3-4" />
      <path
         transform="rotate(0.02051243,-512.9834,1520.8781)"
         style="opacity:1;fill:none;fill-opacity:1;stroke:#ffffff;stroke-width:5;stroke-miterlimit:4;stroke-dasharray:5, 20;stroke-dashoffset:0;stroke-opacity:1"
         d="M -602.25195 1520.9121 C -587.37565 1546.6667 -572.49935 1572.4212 -557.62305 1598.1758 C -527.89518 1598.194 -498.16732 1598.2122 -468.43945 1598.2305 C -453.60026 1572.5098 -438.76107 1546.7891 -423.92188 1521.0684 C -438.8138 1495.3092 -453.70573 1469.5501 -468.59766 1443.791 C -498.30859 1443.7598 -528.01953 1443.7285 -557.73047 1443.6973 C -572.57096 1469.4355 -587.41146 1495.1738 -602.25195 1520.9121 z "
         id="path867-856-7" />
      <path
         transform="rotate(0.0055054,-379.14941,1598.1288)"
         style="opacity:1;fill:none;fill-opacity:1;stroke:#ffffff;stroke-width:5;stroke-miterlimit:4;stroke-dasharray:5, 20;stroke-dashoffset:0;stroke-opacity:1"
         d="M -468.4375 1598.2305 C -453.55534 1623.9766 -438.67318 1649.7227 -423.79102 1675.4688 C -394.05469 1675.485 -364.31836 1675.5013 -334.58203 1675.5176 C -319.72786 1649.8053 -304.8737 1624.0931 -290.01953 1598.3809 C -304.91862 1572.6458 -319.81771 1546.9108 -334.7168 1521.1758 C -364.45117 1521.1393 -394.18555 1521.1029 -423.91992 1521.0664 C -438.75911 1546.7878 -453.59831 1572.5091 -468.4375 1598.2305 z "
         id="path867-1-24" />
      <path
         style="opacity:1;fill:none;fill-opacity:1;stroke:#ffffff;stroke-width:5;stroke-miterlimit:4;stroke-dasharray:5, 20;stroke-dashoffset:0;stroke-opacity:1"
         d="M -468.37305 1752.6895 C -453.50195 1778.4447 -438.63086 1804.1999 -423.75977 1829.9551 C -394.01953 1829.9551 -364.2793 1829.9551 -334.53906 1829.9551 C -319.67253 1804.2129 -304.80599 1778.4707 -289.93945 1752.7285 C -304.82031 1726.9915 -319.70117 1701.2546 -334.58203 1675.5176 C -364.31836 1675.5013 -394.05469 1675.485 -423.79102 1675.4688 C -438.65169 1701.209 -453.51237 1726.9492 -468.37305 1752.6895 z "
         id="path867-15-0" />
      <path
         transform="rotate(0.00119104,-111.4814,516.37914)"
         style="opacity:1;fill:none;fill-opacity:1;stroke:#ffffff;stroke-width:5;stroke-miterlimit:4;stroke-dasharray:5, 20;stroke-dashoffset:0;stroke-opacity:1"
         d="M -200.70508 516.36328 C -185.83594 542.0944 -170.9668 567.82552 -156.09766 593.55664 C -126.35221 593.55729 -96.606771 593.55794 -66.861328 593.55859 C -51.992839 567.82682 -37.124349 542.09505 -22.255859 516.36328 C -37.126953 490.61263 -51.998047 464.86198 -66.869141 439.11133 C -96.610026 439.11133 -126.35091 439.11133 -156.0918 439.11133 C -170.96289 464.86198 -185.83398 490.61263 -200.70508 516.36328 z "
         id="path867-62" />
      <path
         style="opacity:1;fill:none;fill-opacity:1;stroke:#ffffff;stroke-width:5;stroke-miterlimit:4;stroke-dasharray:5, 20;stroke-dashoffset:0;stroke-opacity:1"
         d="M -66.861328 593.55859 C -51.98112 619.2819 -37.100911 645.00521 -22.220703 670.72852 C 7.5260417 670.74349 37.272786 670.75846 67.019531 670.77344 C 81.877604 645.05078 96.735677 619.32812 111.59375 593.60547 C 96.718099 567.86133 81.842448 542.11719 66.966797 516.37305 C 37.225911 516.36979 7.485026 516.36654 -22.255859 516.36328 C -37.124349 542.09505 -51.992839 567.82682 -66.861328 593.55859 z "
         id="path867-0-9" />
      <path
         style="opacity:1;fill:none;fill-opacity:1;stroke:#ffffff;stroke-width:5;stroke-miterlimit:4;stroke-dasharray:5, 20;stroke-dashoffset:0;stroke-opacity:1"
         d="M -66.869141 439.11133 C -51.998047 464.86198 -37.126953 490.61263 -22.255859 516.36328 C 7.485026 516.36654 37.225911 516.36979 66.966797 516.37305 C 81.836589 490.61914 96.70638 464.86523 111.57617 439.11133 C 96.705729 413.35482 81.835286 387.59831 66.964844 361.8418 C 37.223958 361.8418 7.4830729 361.8418 -22.257812 361.8418 C -37.128255 387.59831 -51.998698 413.35482 -66.869141 439.11133 z "
         id="path867-8-9" />
      <path
         transform="rotate(0.01185592,-111.4814,670.91804)"
         style="opacity:1;fill:none;fill-opacity:1;stroke:#ffffff;stroke-width:5;stroke-miterlimit:4;stroke-dasharray:5, 20;stroke-dashoffset:0;stroke-opacity:1"
         d="M -200.73633 670.7207 C -185.86523 696.42578 -170.99414 722.13086 -156.12305 747.83594 C -126.35677 747.83724 -96.590495 747.83854 -66.824219 747.83984 C -51.95638 722.13607 -37.088542 696.43229 -22.220703 670.72852 C -37.100911 645.00521 -51.98112 619.2819 -66.861328 593.55859 C -96.606771 593.55794 -126.35221 593.55729 -156.09766 593.55664 C -170.97721 619.27799 -185.85677 644.99935 -200.73633 670.7207 z "
         id="path867-85-08" />
      <path
         transform="rotate(0.00318861,22.352581,748.18807)"
         style="opacity:1;fill:none;fill-opacity:1;stroke:#ffffff;stroke-width:5;stroke-miterlimit:4;stroke-dasharray:5, 20;stroke-dashoffset:0;stroke-opacity:1"
         d="M -66.824219 747.83984 C -51.923828 773.55599 -37.023438 799.27214 -22.123047 824.98828 C 7.639974 825.02344 37.402995 825.05859 67.166016 825.09375 C 82.008464 799.38867 96.850911 773.68359 111.69336 747.97852 C 96.802083 722.24349 81.910807 696.50846 67.019531 670.77344 C 37.272786 670.75846 7.5260417 670.74349 -22.220703 670.72852 C -37.088542 696.43229 -51.95638 722.13607 -66.824219 747.83984 z "
         id="path867-09-1" />
      <path
         style="opacity:1;fill:none;fill-opacity:1;stroke:#ffffff;stroke-width:5;stroke-miterlimit:4;stroke-dasharray:5, 20;stroke-dashoffset:0;stroke-opacity:1"
         d="M 67.019531 670.77344 C 81.910807 696.50846 96.802083 722.24349 111.69336 747.97852 C 141.42708 748.00651 171.16081 748.03451 200.89453 748.0625 C 215.74219 722.33529 230.58984 696.60807 245.4375 670.88086 C 230.56055 645.13151 215.68359 619.38216 200.80664 593.63281 C 171.06901 593.6237 141.33138 593.61458 111.59375 593.60547 C 96.735677 619.32813 81.877604 645.05078 67.019531 670.77344 z "
         id="path867-6-3" />
      <path
         style="opacity:1;fill:none;fill-opacity:1;stroke:#ffffff;stroke-width:5;stroke-miterlimit:4;stroke-dasharray:5, 20;stroke-dashoffset:0;stroke-opacity:1"
         d="M 66.966797 516.37305 C 81.842448 542.11719 96.718099 567.86133 111.59375 593.60547 C 141.33138 593.61458 171.06901 593.6237 200.80664 593.63281 C 215.67448 567.88216 230.54232 542.13151 245.41016 516.38086 C 230.53971 490.62435 215.66927 464.86784 200.79883 439.11133 C 171.05794 439.11133 141.31706 439.11133 111.57617 439.11133 C 96.70638 464.86523 81.836589 490.61914 66.966797 516.37305 z "
         id="path867-3-11" />
      <path
         d="m 245.4092,361.84219 -44.61131,77.26906 h -89.22261 l -44.611314,-77.26906 44.611314,-77.26905 89.22261,0 z"
         inkscape:randomized="0"
         inkscape:rounded="0"
         inkscape:flatsided="true"
         sodipodi:arg2="0.52359878"
         sodipodi:arg1="0"
         sodipodi:r2="77.269058"
         sodipodi:r1="89.222618"
         sodipodi:cy="361.84219"
         sodipodi:cx="156.18658"
         sodipodi:sides="6"
         id="path867-856-0"
         style="opacity:1;fill:none;fill-opacity:1;stroke:#ffffff;stroke-width:5;stroke-miterlimit:4;stroke-dasharray:5, 20;stroke-dashoffset:0;stroke-opacity:1"
         sodipodi:type="star" />
      <path
         d="m 379.24316,439.11127 -44.61131,77.26905 h -89.22262 l -44.61131,-77.26905 44.61131,-77.26906 89.22262,0 z"
         inkscape:randomized="0"
         inkscape:rounded="0"
         inkscape:flatsided="true"
         sodipodi:arg2="0.52359878"
         sodipodi:arg1="0"
         sodipodi:r2="77.269058"
         sodipodi:r1="89.222618"
         sodipodi:cy="439.11127"
         sodipodi:cx="290.02054"
         sodipodi:sides="6"
         id="path867-1-34"
         style="opacity:1;fill:none;fill-opacity:1;stroke:#ffffff;stroke-width:5;stroke-miterlimit:4;stroke-dasharray:5, 20;stroke-dashoffset:0;stroke-opacity:1"
         sodipodi:type="star" />
      <path
         style="opacity:1;fill:none;fill-opacity:1;stroke:#ffffff;stroke-width:5;stroke-miterlimit:4;stroke-dasharray:5, 20;stroke-dashoffset:0;stroke-opacity:1"
         d="M 200.80664 593.63281 C 215.68359 619.38216 230.56055 645.13151 245.4375 670.88086 C 275.17122 670.89063 304.90495 670.90039 334.63867 670.91016 C 349.50651 645.15625 364.37435 619.40234 379.24219 593.64844 C 364.3724 567.89258 349.5026 542.13672 334.63281 516.38086 C 304.89193 516.38086 275.15104 516.38086 245.41016 516.38086 C 230.54232 542.13151 215.67448 567.88216 200.80664 593.63281 z "
         id="path867-15-03" />
      <path
         d="m -557.5947,516.38037 -44.61131,77.26905 h -89.22262 l -44.61131,-77.26905 44.61131,-77.26905 89.22262,0 z"
         inkscape:randomized="0"
         inkscape:rounded="0"
         inkscape:flatsided="true"
         sodipodi:arg2="0.52359878"
         sodipodi:arg1="0"
         sodipodi:r2="77.269058"
         sodipodi:r1="89.222618"
         sodipodi:cy="516.38037"
         sodipodi:cx="-646.81732"
         sodipodi:sides="6"
         id="path867-9"
         style="opacity:1;fill:none;fill-opacity:1;stroke:#ffffff;stroke-width:5;stroke-miterlimit:4;stroke-dasharray:5, 20;stroke-dashoffset:0;stroke-opacity:1"
         sodipodi:type="star"
         transform="rotate(0.02123698,-646.81732,516.38178)" />
      <path
         transform="rotate(0.03882432,-512.98334,593.64951)"
         style="opacity:1;fill:none;fill-opacity:1;stroke:#ffffff;stroke-width:5;stroke-miterlimit:4;stroke-dasharray:5, 20;stroke-dashoffset:0;stroke-opacity:1"
         d="M -602.20508 593.64844 C -587.33789 619.40104 -572.4707 645.15365 -557.60352 670.90625 C -527.87044 670.89453 -498.13737 670.88281 -468.4043 670.87109 C -453.52604 645.1237 -438.64779 619.3763 -423.76953 593.62891 C -438.63672 567.87956 -453.50391 542.13021 -468.37109 516.38086 C -498.11198 516.38086 -527.85286 516.38086 -557.59375 516.38086 C -572.46419 542.13672 -587.33464 567.89258 -602.20508 593.64844 z "
         id="path867-0-19" />
      <path
         d="m -423.76072,439.11133 -44.61131,77.26905 h -89.22262 l -44.61131,-77.26905 44.61131,-77.26906 89.22262,0 z"
         inkscape:randomized="0"
         inkscape:rounded="0"
         inkscape:flatsided="true"
         sodipodi:arg2="0.52359878"
         sodipodi:arg1="0"
         sodipodi:r2="77.269058"
         sodipodi:r1="89.222618"
         sodipodi:cy="439.11133"
         sodipodi:cx="-512.98334"
         sodipodi:sides="6"
         id="path867-8-6"
         style="opacity:1;fill:none;fill-opacity:1;stroke:#ffffff;stroke-width:5;stroke-miterlimit:4;stroke-dasharray:5, 20;stroke-dashoffset:0;stroke-opacity:1"
         sodipodi:type="star"
         transform="rotate(0.0097007,-512.98334,439.11484)" />
      <path
         transform="rotate(0.05463225,-646.81732,670.91839)"
         style="opacity:1;fill:none;fill-opacity:1;stroke:#ffffff;stroke-width:5;stroke-miterlimit:4;stroke-dasharray:5, 20;stroke-dashoffset:0;stroke-opacity:1"
         d="M -736.03906 670.91797 C -721.16862 696.67448 -706.29818 722.43099 -691.42773 748.1875 C -661.69401 748.18164 -631.96029 748.17578 -602.22656 748.16992 C -587.35221 722.41536 -572.47786 696.66081 -557.60352 670.90625 C -572.4707 645.15365 -587.33789 619.40104 -602.20508 593.64844 C -631.94596 593.64844 -661.68685 593.64844 -691.42773 593.64844 C -706.29818 619.40495 -721.16862 645.16146 -736.03906 670.91797 z "
         id="path867-85-93" />
      <path
         transform="rotate(0.07449989,-512.98334,748.18752)"
         style="opacity:1;fill:none;fill-opacity:1;stroke:#ffffff;stroke-width:5;stroke-miterlimit:4;stroke-dasharray:5, 20;stroke-dashoffset:0;stroke-opacity:1"
         d="M -557.60352 670.90625 C -572.47786 696.66081 -587.35221 722.41536 -602.22656 748.16992 C -587.37956 773.90885 -572.53255 799.64779 -557.68555 825.38672 C -527.96745 825.35872 -498.24935 825.33073 -468.53125 825.30273 C -453.64128 799.55143 -438.7513 773.80013 -423.86133 748.04883 C -438.70898 722.32292 -453.55664 696.59701 -468.4043 670.87109 C -498.13737 670.88281 -527.87044 670.89453 -557.60352 670.90625 z "
         id="path867-09-3" />
      <path
         transform="rotate(0.0473512,-379.14935,670.91839)"
         style="opacity:1;fill:none;fill-opacity:1;stroke:#ffffff;stroke-width:5;stroke-miterlimit:4;stroke-dasharray:5, 20;stroke-dashoffset:0;stroke-opacity:1"
         d="M -423.76953 593.62891 C -438.64779 619.37695 -453.52604 645.125 -468.4043 670.87305 C -453.55664 696.59831 -438.70898 722.32357 -423.86133 748.04883 C -394.12565 748.01953 -364.38997 747.99023 -334.6543 747.96094 C -319.76237 722.22852 -304.87044 696.49609 -289.97852 670.76367 C -304.83724 645.04232 -319.69596 619.32096 -334.55469 593.59961 C -364.29297 593.60937 -394.03125 593.61914 -423.76953 593.62891 z "
         id="path867-6-80" />
      <path
         transform="rotate(0.01724176,-379.14935,516.37893)"
         style="opacity:1;fill:none;fill-opacity:1;stroke:#ffffff;stroke-width:5;stroke-miterlimit:4;stroke-dasharray:5, 20;stroke-dashoffset:0;stroke-opacity:1"
         d="M -468.37109 516.38086 C -453.50391 542.13086 -438.63672 567.88086 -423.76953 593.63086 C -394.03125 593.62109 -364.29297 593.61133 -334.55469 593.60156 C -319.67904 567.85807 -304.80339 542.11458 -289.92773 516.37109 C -304.79753 490.61784 -319.66732 464.86458 -334.53711 439.11133 C -364.27799 439.11133 -394.01888 439.11133 -423.75977 439.11133 C -438.63021 464.86784 -453.50065 490.62435 -468.37109 516.38086 z "
         id="path867-3-5" />
      <path
         d="m -289.92673,361.84229 -44.61131,77.26905 h -89.22262 l -44.61131,-77.26905 44.61131,-77.26906 89.22262,0 z"
         inkscape:randomized="0"
         inkscape:rounded="0"
         inkscape:flatsided="true"
         sodipodi:arg2="0.52359878"
         sodipodi:arg1="0"
         sodipodi:r2="77.269058"
         sodipodi:r1="89.222618"
         sodipodi:cy="361.84229"
         sodipodi:cx="-379.14935"
         sodipodi:sides="6"
         id="path867-856-6"
         style="opacity:1;fill:none;fill-opacity:1;stroke:#ffffff;stroke-width:5;stroke-miterlimit:4;stroke-dasharray:5, 20;stroke-dashoffset:0;stroke-opacity:1"
         sodipodi:type="star"
         transform="rotate(8.0390194e-4,-379.14935,361.83991)" />
      <path
         transform="rotate(0.00196937,-245.31537,439.10711)"
         style="opacity:1;fill:none;fill-opacity:1;stroke:#ffffff;stroke-width:5;stroke-miterlimit:4;stroke-dasharray:5, 20;stroke-dashoffset:0;stroke-opacity:1"
         d="M -334.53711 439.11133 C -319.66732 464.86458 -304.79753 490.61784 -289.92773 516.37109 C -260.18685 516.36849 -230.44596 516.36589 -200.70508 516.36328 C -185.83398 490.61263 -170.96289 464.86198 -156.0918 439.11133 C -170.96224 413.35482 -185.83268 387.59831 -200.70312 361.8418 C -230.44401 361.8418 -260.1849 361.8418 -289.92578 361.8418 C -304.79622 387.59831 -319.66667 413.35482 -334.53711 439.11133 z "
         id="path867-1-6" />
      <path
         transform="rotate(0.01820439,-245.31537,593.6495)"
         style="opacity:1;fill:none;fill-opacity:1;stroke:#ffffff;stroke-width:5;stroke-miterlimit:4;stroke-dasharray:5, 20;stroke-dashoffset:0;stroke-opacity:1"
         d="M -289.92773 516.37109 C -304.80339 542.11458 -319.67904 567.85807 -334.55469 593.60156 C -319.69596 619.32227 -304.83724 645.04297 -289.97852 670.76367 C -260.23112 670.74935 -230.48372 670.73503 -200.73633 670.7207 C -185.85677 644.99935 -170.97721 619.27799 -156.09766 593.55664 C -170.9668 567.82552 -185.83594 542.0944 -200.70508 516.36328 C -230.44596 516.36589 -260.18685 516.36849 -289.92773 516.37109 z "
         id="path867-15-40" />
      <path
         d="m -959.09672,902.72546 -44.61128,77.26906 h -89.2226 l -44.6114,-77.26906 44.6114,-77.26905 h 89.2226 z"
         inkscape:randomized="0"
         inkscape:rounded="0"
         inkscape:flatsided="true"
         sodipodi:arg2="0.52359878"
         sodipodi:arg1="0"
         sodipodi:r2="77.269058"
         sodipodi:r1="89.222618"
         sodipodi:cy="902.72546"
         sodipodi:cx="-1048.3193"
         sodipodi:sides="6"
         id="path867-04"
         style="opacity:1;fill:none;fill-opacity:1;stroke:#ffffff;stroke-width:5;stroke-miterlimit:4;stroke-dasharray:5, 20;stroke-dashoffset:0;stroke-opacity:1"
         sodipodi:type="star"
         transform="rotate(0.02127717,-1048.3193,902.72626)" />
      <path
         d="m -825.26267,979.99451 -44.61131,77.26909 h -89.22262 l -44.6113,-77.26909 44.6113,-77.26906 h 89.22262 z"
         inkscape:randomized="0"
         inkscape:rounded="0"
         inkscape:flatsided="true"
         sodipodi:arg2="0.52359878"
         sodipodi:arg1="0"
         sodipodi:r2="77.269058"
         sodipodi:r1="89.222618"
         sodipodi:cy="979.99451"
         sodipodi:cx="-914.48529"
         sodipodi:sides="6"
         id="path867-0-6"
         style="opacity:1;fill:none;fill-opacity:1;stroke:#ffffff;stroke-width:5;stroke-miterlimit:4;stroke-dasharray:5, 20;stroke-dashoffset:0;stroke-opacity:1"
         sodipodi:type="star"
         transform="rotate(0.05317966,-914.48529,979.99446)" />
      <path
         d="m -825.26267,825.45642 -44.61131,77.26905 h -89.22262 l -44.6113,-77.26905 44.6113,-77.26905 h 89.22262 z"
         inkscape:randomized="0"
         inkscape:rounded="0"
         inkscape:flatsided="true"
         sodipodi:arg2="0.52359878"
         sodipodi:arg1="0"
         sodipodi:r2="77.269058"
         sodipodi:r1="89.222618"
         sodipodi:cy="825.45642"
         sodipodi:cx="-914.48529"
         sodipodi:sides="6"
         id="path867-8-26"
         style="opacity:1;fill:none;fill-opacity:1;stroke:#ffffff;stroke-width:5;stroke-miterlimit:4;stroke-dasharray:5, 20;stroke-dashoffset:0;stroke-opacity:1"
         sodipodi:type="star"
         transform="rotate(0.04265497,-914.48529,825.45657)" />
      <path
         d="m -959.09672,1057.2635 -44.61128,77.2691 h -89.2226 l -44.6114,-77.2691 44.6114,-77.269 h 89.2226 z"
         inkscape:randomized="0"
         inkscape:rounded="0"
         inkscape:flatsided="true"
         sodipodi:arg2="0.52359878"
         sodipodi:arg1="0"
         sodipodi:r2="77.269058"
         sodipodi:r1="89.222618"
         sodipodi:cy="1057.2635"
         sodipodi:cx="-1048.3193"
         sodipodi:sides="6"
         id="path867-85-7"
         style="opacity:1;fill:none;fill-opacity:1;stroke:#ffffff;stroke-width:5;stroke-miterlimit:4;stroke-dasharray:5, 20;stroke-dashoffset:0;stroke-opacity:1"
         sodipodi:type="star"
         transform="rotate(0.02326212,-1048.3193,1057.2629)" />
      <path
         transform="rotate(0.04883543,-914.48529,1134.5324)"
         style="opacity:1;fill:none;fill-opacity:1;stroke:#ffffff;stroke-width:5;stroke-miterlimit:4;stroke-dasharray:5, 20;stroke-dashoffset:0;stroke-opacity:1"
         d="M -1003.707 1134.5332 C -988.83659 1160.2891 -973.96615 1186.0449 -959.0957 1211.8008 C -929.35482 1211.8008 -899.61393 1211.8008 -869.87305 1211.8008 C -855.0026 1186.0449 -840.13216 1160.2891 -825.26172 1134.5332 C -840.13216 1108.7767 -855.0026 1083.0202 -869.87305 1057.2637 C -899.61393 1057.2637 -929.35482 1057.2637 -959.0957 1057.2637 C -973.96615 1083.0202 -988.83659 1108.7767 -1003.707 1134.5332 z "
         id="path867-09-56" />
      <path
         transform="rotate(0.08276053,-780.65131,1057.2635)"
         style="opacity:1;fill:none;fill-opacity:1;stroke:#ffffff;stroke-width:5;stroke-miterlimit:4;stroke-dasharray:5, 20;stroke-dashoffset:0;stroke-opacity:1"
         d="M -825.26172 979.99414 C -840.13216 1005.7507 -855.0026 1031.5072 -869.87305 1057.2637 C -855.0026 1083.0202 -840.13216 1108.7767 -825.26172 1134.5332 C -795.53516 1134.5326 -765.80859 1134.5319 -736.08203 1134.5312 C -721.22331 1108.7708 -706.36458 1083.0104 -691.50586 1057.25 C -706.35742 1031.4961 -721.20898 1005.7422 -736.06055 979.98828 C -765.79427 979.99023 -795.52799 979.99219 -825.26172 979.99414 z "
         id="path867-6-98" />
      <path
         transform="rotate(0.07831549,-780.65131,902.72545)"
         style="opacity:1;fill:none;fill-opacity:1;stroke:#ffffff;stroke-width:5;stroke-miterlimit:4;stroke-dasharray:5, 20;stroke-dashoffset:0;stroke-opacity:1"
         d="M -869.87305 902.72461 C -855.0026 928.48112 -840.13216 954.23763 -825.26172 979.99414 C -795.52799 979.99219 -765.79427 979.99023 -736.06055 979.98828 C -721.19336 954.22917 -706.32617 928.47005 -691.45898 902.71094 C -706.31901 876.95964 -721.17904 851.20833 -736.03906 825.45703 C -765.77995 825.45703 -795.52083 825.45703 -825.26172 825.45703 C -840.13216 851.21289 -855.0026 876.96875 -869.87305 902.72461 z "
         id="path867-3-72" />
      <path
         transform="rotate(0.05618322,-780.65131,748.18739)"
         style="opacity:1;fill:none;fill-opacity:1;stroke:#ffffff;stroke-width:5;stroke-miterlimit:4;stroke-dasharray:5, 20;stroke-dashoffset:0;stroke-opacity:1"
         d="M -869.87305 748.1875 C -855.0026 773.94401 -840.13216 799.70052 -825.26172 825.45703 C -795.52083 825.45703 -765.77995 825.45703 -736.03906 825.45703 C -721.16862 799.70052 -706.29818 773.94401 -691.42773 748.1875 C -706.29818 722.43099 -721.16862 696.67448 -736.03906 670.91797 C -765.77995 670.91797 -795.52083 670.91797 -825.26172 670.91797 C -840.13216 696.67448 -855.0026 722.43099 -869.87305 748.1875 z "
         id="path867-856-82" />
      <path
         transform="rotate(0.08674792,-646.81732,825.4564)"
         style="opacity:1;fill:none;fill-opacity:1;stroke:#ffffff;stroke-width:5;stroke-miterlimit:4;stroke-dasharray:5, 20;stroke-dashoffset:0;stroke-opacity:1"
         d="M -691.42773 748.1875 C -706.29818 773.94401 -721.16862 799.70052 -736.03906 825.45703 C -721.17904 851.20833 -706.31901 876.95964 -691.45898 902.71094 C -661.74349 902.69661 -632.02799 902.68229 -602.3125 902.66797 C -587.43685 876.90755 -572.5612 851.14714 -557.68555 825.38672 C -572.53255 799.64779 -587.37956 773.90885 -602.22656 748.16992 C -631.96029 748.17578 -661.69401 748.18164 -691.42773 748.1875 z "
         id="path867-1-99" />
      <path
         transform="rotate(0.108,-646.81732,979.9945)"
         style="opacity:1;fill:none;fill-opacity:1;stroke:#ffffff;stroke-width:5;stroke-miterlimit:4;stroke-dasharray:5, 20;stroke-dashoffset:0;stroke-opacity:1"
         d="M -691.45898 902.71094 C -706.32617 928.47005 -721.19336 954.22917 -736.06055 979.98828 C -721.20898 1005.7422 -706.35742 1031.4961 -691.50586 1057.25 C -661.80599 1057.2402 -632.10612 1057.2305 -602.40625 1057.2207 C -587.54297 1031.4479 -572.67969 1005.6751 -557.81641 979.90234 C -572.64844 954.15755 -587.48047 928.41276 -602.3125 902.66797 C -632.02799 902.68229 -661.74349 902.69661 -691.45898 902.71094 z "
         id="path867-15-60" />
      <path
         style="opacity:1;fill:none;fill-opacity:1;stroke:#ffffff;stroke-width:5;stroke-miterlimit:4;stroke-dasharray:5, 20;stroke-dashoffset:0;stroke-opacity:1"
         d="M 245.4707 1598.2188 C 230.58919 1623.9661 215.70768 1649.7135 200.82617 1675.4609 C 215.6875 1701.2031 230.54883 1726.9453 245.41016 1752.6875 C 275.15104 1752.6868 304.89193 1752.6862 334.63281 1752.6855 C 349.5026 1726.929 364.3724 1701.1725 379.24219 1675.416 C 364.38021 1649.6667 349.51823 1623.9173 334.65625 1598.168 C 304.92773 1598.1849 275.19922 1598.2018 245.4707 1598.2188 z "
         id="path867-27" />
      <path
         d="m 513.07714,1752.6851 -44.61131,77.269 h -89.22262 l -44.61131,-77.269 44.61131,-77.2691 89.22262,0 z"
         inkscape:randomized="0"
         inkscape:rounded="0"
         inkscape:flatsided="true"
         sodipodi:arg2="0.52359878"
         sodipodi:arg1="0"
         sodipodi:r2="77.269058"
         sodipodi:r1="89.222618"
         sodipodi:cy="1752.6851"
         sodipodi:cx="423.85452"
         sodipodi:sides="6"
         id="path867-0-61"
         style="opacity:1;fill:none;fill-opacity:1;stroke:#ffffff;stroke-width:5;stroke-miterlimit:4;stroke-dasharray:5, 20;stroke-dashoffset:0;stroke-opacity:1"
         sodipodi:type="star" />
      <path
         style="opacity:1;fill:none;fill-opacity:1;stroke:#ffffff;stroke-width:5;stroke-miterlimit:4;stroke-dasharray:5, 20;stroke-dashoffset:0;stroke-opacity:1"
         d="M 379.28125 1520.9023 C 364.40625 1546.6576 349.53125 1572.4128 334.65625 1598.168 C 349.51888 1623.9173 364.38151 1649.6667 379.24414 1675.416 C 408.98503 1675.416 438.72591 1675.416 468.4668 1675.416 C 483.33659 1649.6595 498.20638 1623.903 513.07617 1598.1465 C 498.20703 1572.3906 483.33789 1546.6348 468.46875 1520.8789 C 438.73958 1520.8867 409.01042 1520.8945 379.28125 1520.9023 z "
         id="path867-8-3" />
      <path
         style="opacity:1;fill:none;fill-opacity:1;stroke:#ffffff;stroke-width:5;stroke-miterlimit:4;stroke-dasharray:5, 20;stroke-dashoffset:0;stroke-opacity:1"
         d="M 245.41016 1752.6875 C 230.53971 1778.4427 215.66927 1804.1979 200.79883 1829.9531 C 215.66927 1855.7096 230.53971 1881.4661 245.41016 1907.2227 C 275.15104 1907.2227 304.89193 1907.2227 334.63281 1907.2227 C 349.5026 1881.4661 364.3724 1855.7096 379.24219 1829.9531 C 364.3724 1804.1973 349.5026 1778.4414 334.63281 1752.6855 C 304.89193 1752.6862 275.15104 1752.6868 245.41016 1752.6875 z "
         id="path867-85-2" />
      <path
         d="m 513.07714,1907.223 -44.61131,77.2691 h -89.22262 l -44.61131,-77.2691 44.61131,-77.269 89.22262,0 z"
         inkscape:randomized="0"
         inkscape:rounded="0"
         inkscape:flatsided="true"
         sodipodi:arg2="0.52359878"
         sodipodi:arg1="0"
         sodipodi:r2="77.269058"
         sodipodi:r1="89.222618"
         sodipodi:cy="1907.223"
         sodipodi:cx="423.85452"
         sodipodi:sides="6"
         id="path867-09-15"
         style="opacity:1;fill:none;fill-opacity:1;stroke:#ffffff;stroke-width:5;stroke-miterlimit:4;stroke-dasharray:5, 20;stroke-dashoffset:0;stroke-opacity:1"
         sodipodi:type="star" />
      <path
         d="m 646.91116,1829.954 -44.61131,77.269 h -89.22262 l -44.61131,-77.269 44.61131,-77.2691 89.22262,0 z"
         inkscape:randomized="0"
         inkscape:rounded="0"
         inkscape:flatsided="true"
         sodipodi:arg2="0.52359878"
         sodipodi:arg1="0"
         sodipodi:r2="77.269058"
         sodipodi:r1="89.222618"
         sodipodi:cy="1829.954"
         sodipodi:cx="557.68854"
         sodipodi:sides="6"
         id="path867-6-99"
         style="opacity:1;fill:none;fill-opacity:1;stroke:#ffffff;stroke-width:5;stroke-miterlimit:4;stroke-dasharray:5, 20;stroke-dashoffset:0;stroke-opacity:1"
         sodipodi:type="star" />
      <path
         d="m 646.91116,1675.4159 -44.61131,77.269 h -89.22262 l -44.61131,-77.269 44.61131,-77.2691 89.22262,0 z"
         inkscape:randomized="0"
         inkscape:rounded="0"
         inkscape:flatsided="true"
         sodipodi:arg2="0.52359878"
         sodipodi:arg1="0"
         sodipodi:r2="77.269058"
         sodipodi:r1="89.222618"
         sodipodi:cy="1675.4159"
         sodipodi:cx="557.68854"
         sodipodi:sides="6"
         id="path867-3-14"
         style="opacity:1;fill:none;fill-opacity:1;stroke:#ffffff;stroke-width:5;stroke-miterlimit:4;stroke-dasharray:5, 20;stroke-dashoffset:0;stroke-opacity:1"
         sodipodi:type="star" />
      <path
         style="opacity:1;fill:none;fill-opacity:1;stroke:#ffffff;stroke-width:5;stroke-miterlimit:4;stroke-dasharray:5, 20;stroke-dashoffset:0;stroke-opacity:1"
         d="M 468.46875 1520.8789 C 483.33854 1546.6348 498.20833 1572.3906 513.07812 1598.1465 C 542.81901 1598.1465 572.5599 1598.1465 602.30078 1598.1465 C 617.17122 1572.39 632.04167 1546.6335 646.91211 1520.877 C 632.04167 1495.1211 617.17122 1469.3652 602.30078 1443.6094 C 572.56055 1443.6094 542.82031 1443.6094 513.08008 1443.6094 C 498.20964 1469.3659 483.33919 1495.1224 468.46875 1520.8789 z "
         id="path867-856-9" />
      <path
         d="m 780.74508,1598.1469 -44.61131,77.269 h -89.22262 l -44.61131,-77.269 44.61131,-77.2691 89.22262,0 z"
         inkscape:randomized="0"
         inkscape:rounded="0"
         inkscape:flatsided="true"
         sodipodi:arg2="0.52359878"
         sodipodi:arg1="0"
         sodipodi:r2="77.269058"
         sodipodi:r1="89.222618"
         sodipodi:cy="1598.1469"
         sodipodi:cx="691.52246"
         sodipodi:sides="6"
         id="path867-1-1"
         style="opacity:1;fill:none;fill-opacity:1;stroke:#ffffff;stroke-width:5;stroke-miterlimit:4;stroke-dasharray:5, 20;stroke-dashoffset:0;stroke-opacity:1"
         sodipodi:type="star" />
      <path
         d="m 780.74508,1752.6851 -44.61131,77.269 h -89.22262 l -44.61131,-77.269 44.61131,-77.2691 89.22262,0 z"
         inkscape:randomized="0"
         inkscape:rounded="0"
         inkscape:flatsided="true"
         sodipodi:arg2="0.52359878"
         sodipodi:arg1="0"
         sodipodi:r2="77.269058"
         sodipodi:r1="89.222618"
         sodipodi:cy="1752.6851"
         sodipodi:cx="691.52246"
         sodipodi:sides="6"
         id="path867-15-07"
         style="opacity:1;fill:none;fill-opacity:1;stroke:#ffffff;stroke-width:5;stroke-miterlimit:4;stroke-dasharray:5, 20;stroke-dashoffset:0;stroke-opacity:1"
         sodipodi:type="star" />
      <path
         style="opacity:1;fill:none;fill-opacity:1;stroke:#ffffff;stroke-width:5;stroke-miterlimit:4;stroke-dasharray:5, 20;stroke-dashoffset:0;stroke-opacity:1"
         d="M 201.28906 1057.1035 C 216.14648 1082.9023 231.00391 1108.7012 245.86133 1134.5 C 275.54297 1134.5052 305.22461 1134.5104 334.90625 1134.5156 C 349.74349 1108.7526 364.58073 1082.9896 379.41797 1057.2266 C 364.55469 1031.4557 349.69141 1005.6849 334.82812 979.91406 C 305.13151 979.88607 275.4349 979.85807 245.73828 979.83008 C 230.92187 1005.5879 216.10547 1031.3457 201.28906 1057.1035 z "
         id="path867-5" />
      <path
         style="opacity:1;fill:none;fill-opacity:1;stroke:#ffffff;stroke-width:5;stroke-miterlimit:4;stroke-dasharray:5, 20;stroke-dashoffset:0;stroke-opacity:1"
         d="M 334.9082 1134.5156 C 349.75 1160.2845 364.5918 1186.0534 379.43359 1211.8223 C 409.13346 1211.8177 438.83333 1211.8132 468.5332 1211.8086 C 483.39062 1186.0495 498.24805 1160.2904 513.10547 1134.5312 C 498.24544 1108.7721 483.38542 1083.013 468.52539 1057.2539 C 438.82292 1057.2448 409.12044 1057.2357 379.41797 1057.2266 C 364.58138 1082.9896 349.74479 1108.7526 334.9082 1134.5156 z "
         id="path867-0-8" />
      <path
         style="opacity:1;fill:none;fill-opacity:1;stroke:#ffffff;stroke-width:5;stroke-miterlimit:4;stroke-dasharray:5, 20;stroke-dashoffset:0;stroke-opacity:1"
         d="M 334.83008 979.91406 C 349.69271 1005.6849 364.55534 1031.4557 379.41797 1057.2266 C 409.12044 1057.2357 438.82292 1057.2448 468.52539 1057.2539 C 483.38021 1031.4993 498.23503 1005.7448 513.08984 979.99023 C 498.22201 954.23242 483.35417 928.47461 468.48633 902.7168 C 438.76823 902.70443 409.05013 902.69206 379.33203 902.67969 C 364.49805 928.42448 349.66406 954.16927 334.83008 979.91406 z "
         id="path867-8-7" />
      <path
         style="opacity:1;fill:none;fill-opacity:1;stroke:#ffffff;stroke-width:5;stroke-miterlimit:4;stroke-dasharray:5, 20;stroke-dashoffset:0;stroke-opacity:1"
         d="M 201.33398 1211.8848 C 216.15495 1237.6582 230.97591 1263.4316 245.79688 1289.2051 C 275.48698 1289.1823 305.17708 1289.1595 334.86719 1289.1367 C 349.72266 1263.3646 364.57812 1237.5924 379.43359 1211.8203 C 364.59115 1186.0521 349.7487 1160.2839 334.90625 1134.5156 C 305.22461 1134.5104 275.54297 1134.5052 245.86133 1134.5 C 231.01888 1160.2949 216.17643 1186.0898 201.33398 1211.8848 z "
         id="path867-85-04" />
      <path
         style="opacity:1;fill:none;fill-opacity:1;stroke:#ffffff;stroke-width:5;stroke-miterlimit:4;stroke-dasharray:5, 20;stroke-dashoffset:0;stroke-opacity:1"
         d="M 379.43359 1211.8203 C 364.57878 1237.5924 349.72396 1263.3646 334.86914 1289.1367 C 349.70117 1314.888 364.5332 1340.6393 379.36523 1366.3906 C 409.07682 1366.3776 438.78841 1366.3646 468.5 1366.3516 C 483.36589 1340.5924 498.23177 1314.8333 513.09766 1289.0742 C 498.24284 1263.3184 483.38802 1237.5625 468.5332 1211.8066 C 438.83333 1211.8112 409.13346 1211.8158 379.43359 1211.8203 z "
         id="path867-09-80" />
      <path
         style="opacity:1;fill:none;fill-opacity:1;stroke:#ffffff;stroke-width:5;stroke-miterlimit:4;stroke-dasharray:5, 20;stroke-dashoffset:0;stroke-opacity:1"
         d="M 468.53516 1211.8066 C 483.38997 1237.5625 498.24479 1263.3184 513.09961 1289.0742 C 542.83268 1289.0729 572.56576 1289.0716 602.29883 1289.0703 C 617.16927 1263.3138 632.03971 1237.5573 646.91016 1211.8008 C 632.03971 1186.0449 617.16927 1160.2891 602.29883 1134.5332 C 572.56836 1134.5326 542.83789 1134.5319 513.10742 1134.5312 C 498.25 1160.2897 483.39258 1186.0482 468.53516 1211.8066 z "
         id="path867-6-42" />
      <path
         style="opacity:1;fill:none;fill-opacity:1;stroke:#ffffff;stroke-width:5;stroke-miterlimit:4;stroke-dasharray:5, 20;stroke-dashoffset:0;stroke-opacity:1"
         d="M 468.52734 1057.2539 C 483.38737 1083.013 498.2474 1108.7721 513.10742 1134.5312 C 542.83789 1134.5319 572.56836 1134.5326 602.29883 1134.5332 C 617.16927 1108.7767 632.03971 1083.0202 646.91016 1057.2637 C 632.03971 1031.5072 617.16927 1005.7507 602.29883 979.99414 C 572.56315 979.99284 542.82747 979.99154 513.0918 979.99023 C 498.23698 1005.7448 483.38216 1031.4993 468.52734 1057.2539 z "
         id="path867-3-96" />
      <path
         style="opacity:1;fill:none;fill-opacity:1;stroke:#ffffff;stroke-width:5;stroke-miterlimit:4;stroke-dasharray:5, 20;stroke-dashoffset:0;stroke-opacity:1"
         d="M 468.48828 902.7168 C 483.35612 928.47461 498.22396 954.23242 513.0918 979.99023 C 542.82747 979.99154 572.56315 979.99284 602.29883 979.99414 C 617.16927 954.23828 632.03971 928.48242 646.91016 902.72656 C 632.03971 876.97005 617.16927 851.21354 602.29883 825.45703 C 572.55859 825.45703 542.81836 825.45703 513.07812 825.45703 C 498.21484 851.21029 483.35156 876.96354 468.48828 902.7168 z "
         id="path867-856-10" />
      <path
         d="m 780.74502,979.99469 -44.61131,77.26901 h -89.22262 l -44.61131,-77.26901 44.61131,-77.26905 h 89.22262 z"
         inkscape:randomized="0"
         inkscape:rounded="0"
         inkscape:flatsided="true"
         sodipodi:arg2="0.52359878"
         sodipodi:arg1="0"
         sodipodi:r2="77.269058"
         sodipodi:r1="89.222618"
         sodipodi:cy="979.99469"
         sodipodi:cx="691.5224"
         sodipodi:sides="6"
         id="path867-1-4"
         style="opacity:1;fill:none;fill-opacity:1;stroke:#ffffff;stroke-width:5;stroke-miterlimit:4;stroke-dasharray:5, 20;stroke-dashoffset:0;stroke-opacity:1"
         sodipodi:type="star" />
      <path
         d="m 780.74502,1134.5327 -44.61131,77.2691 h -89.22262 l -44.61131,-77.2691 44.61131,-77.269 89.22262,0 z"
         inkscape:randomized="0"
         inkscape:rounded="0"
         inkscape:flatsided="true"
         sodipodi:arg2="0.52359878"
         sodipodi:arg1="0"
         sodipodi:r2="77.269058"
         sodipodi:r1="89.222618"
         sodipodi:cy="1134.5327"
         sodipodi:cx="691.5224"
         sodipodi:sides="6"
         id="path867-15-2"
         style="opacity:1;fill:none;fill-opacity:1;stroke:#ffffff;stroke-width:5;stroke-miterlimit:4;stroke-dasharray:5, 20;stroke-dashoffset:0;stroke-opacity:1"
         sodipodi:type="star" />
      <path
         d="m -156.0928,1984.4921 -44.61131,77.269 h -89.22261 l -44.61131,-77.269 44.61131,-77.2691 89.22261,0 z"
         inkscape:randomized="0"
         inkscape:rounded="0"
         inkscape:flatsided="true"
         sodipodi:arg2="0.52359878"
         sodipodi:arg1="0"
         sodipodi:r2="77.269058"
         sodipodi:r1="89.222618"
         sodipodi:cy="1984.4921"
         sodipodi:cx="-245.31541"
         sodipodi:sides="6"
         id="path867-22"
         style="opacity:1;fill:none;fill-opacity:1;stroke:#ffffff;stroke-width:5;stroke-miterlimit:4;stroke-dasharray:5, 20;stroke-dashoffset:0;stroke-opacity:1"
         sodipodi:type="star" />
      <path
         d="m -22.258804,2061.7612 -44.611309,77.2691 h -89.222617 l -44.61131,-77.2691 44.61131,-77.269 89.222617,0 z"
         inkscape:randomized="0"
         inkscape:rounded="0"
         inkscape:flatsided="true"
         sodipodi:arg2="0.52359878"
         sodipodi:arg1="0"
         sodipodi:r2="77.269058"
         sodipodi:r1="89.222618"
         sodipodi:cy="2061.7612"
         sodipodi:cx="-111.48142"
         sodipodi:sides="6"
         id="path867-0-05"
         style="opacity:1;fill:none;fill-opacity:1;stroke:#ffffff;stroke-width:5;stroke-miterlimit:4;stroke-dasharray:5, 20;stroke-dashoffset:0;stroke-opacity:1"
         sodipodi:type="star" />
      <path
         style="opacity:1;fill:none;fill-opacity:1;stroke:#ffffff;stroke-width:5;stroke-miterlimit:4;stroke-dasharray:5, 20;stroke-dashoffset:0;stroke-opacity:1"
         d="M -200.70312 1907.2227 C -185.83268 1932.9792 -170.96224 1958.7357 -156.0918 1984.4922 C -126.35091 1984.4922 -96.610026 1984.4922 -66.869141 1984.4922 C -51.999349 1958.7357 -37.129557 1932.9792 -22.259766 1907.2227 C -37.129557 1881.4694 -51.999349 1855.7161 -66.869141 1829.9629 C -96.610026 1829.9629 -126.35091 1829.9629 -156.0918 1829.9629 C -170.96224 1855.7161 -185.83268 1881.4694 -200.70312 1907.2227 z "
         id="path867-8-52" />
      <path
         d="m -156.0928,2139.03 -44.61131,77.2691 h -89.22261 l -44.61131,-77.2691 44.61131,-77.269 h 89.22261 z"
         inkscape:randomized="0"
         inkscape:rounded="0"
         inkscape:flatsided="true"
         sodipodi:arg2="0.52359878"
         sodipodi:arg1="0"
         sodipodi:r2="77.269058"
         sodipodi:r1="89.222618"
         sodipodi:cy="2139.03"
         sodipodi:cx="-245.31541"
         sodipodi:sides="6"
         id="path867-85-90"
         style="opacity:1;fill:none;fill-opacity:1;stroke:#ffffff;stroke-width:5;stroke-miterlimit:4;stroke-dasharray:5, 20;stroke-dashoffset:0;stroke-opacity:1"
         sodipodi:type="star" />
      <path
         d="m -22.258804,2216.2991 -44.611309,77.269 h -89.222617 l -44.61131,-77.269 44.61131,-77.2691 h 89.222617 z"
         inkscape:randomized="0"
         inkscape:rounded="0"
         inkscape:flatsided="true"
         sodipodi:arg2="0.52359878"
         sodipodi:arg1="0"
         sodipodi:r2="77.269058"
         sodipodi:r1="89.222618"
         sodipodi:cy="2216.2991"
         sodipodi:cx="-111.48142"
         sodipodi:sides="6"
         id="path867-09-28"
         style="opacity:1;fill:none;fill-opacity:1;stroke:#ffffff;stroke-width:5;stroke-miterlimit:4;stroke-dasharray:5, 20;stroke-dashoffset:0;stroke-opacity:1"
         sodipodi:type="star" />
      <path
         d="m 111.57519,2139.03 -44.611311,77.2691 h -89.222618 l -44.61131,-77.2691 44.61131,-77.269 h 89.222618 z"
         inkscape:randomized="0"
         inkscape:rounded="0"
         inkscape:flatsided="true"
         sodipodi:arg2="0.52359878"
         sodipodi:arg1="0"
         sodipodi:r2="77.269058"
         sodipodi:r1="89.222618"
         sodipodi:cy="2139.03"
         sodipodi:cx="22.35257"
         sodipodi:sides="6"
         id="path867-6-38"
         style="opacity:1;fill:none;fill-opacity:1;stroke:#ffffff;stroke-width:5;stroke-miterlimit:4;stroke-dasharray:5, 20;stroke-dashoffset:0;stroke-opacity:1"
         sodipodi:type="star" />
      <path
         d="m 111.57519,1984.4921 -44.611311,77.269 h -89.222618 l -44.61131,-77.269 44.61131,-77.2691 89.222618,0 z"
         inkscape:randomized="0"
         inkscape:rounded="0"
         inkscape:flatsided="true"
         sodipodi:arg2="0.52359878"
         sodipodi:arg1="0"
         sodipodi:r2="77.269058"
         sodipodi:r1="89.222618"
         sodipodi:cy="1984.4921"
         sodipodi:cx="22.35257"
         sodipodi:sides="6"
         id="path867-3-0"
         style="opacity:1;fill:none;fill-opacity:1;stroke:#ffffff;stroke-width:5;stroke-miterlimit:4;stroke-dasharray:5, 20;stroke-dashoffset:0;stroke-opacity:1"
         sodipodi:type="star" />
      <path
         style="opacity:1;fill:none;fill-opacity:1;stroke:#ffffff;stroke-width:5;stroke-miterlimit:4;stroke-dasharray:5, 20;stroke-dashoffset:0;stroke-opacity:1"
         d="M -22.248047 1752.7441 C -37.121745 1778.4837 -51.995443 1804.2233 -66.869141 1829.9629 C -51.998698 1855.7161 -37.128255 1881.4694 -22.257812 1907.2227 C 7.4830729 1907.2227 37.223958 1907.2227 66.964844 1907.2227 C 81.834635 1881.4661 96.704427 1855.7096 111.57422 1829.9531 C 96.708333 1804.2103 81.842448 1778.4674 66.976562 1752.7246 C 37.235026 1752.7311 7.4934896 1752.7376 -22.248047 1752.7441 z "
         id="path867-856-4" />
      <path
         style="opacity:1;fill:none;fill-opacity:1;stroke:#ffffff;stroke-width:5;stroke-miterlimit:4;stroke-dasharray:5, 20;stroke-dashoffset:0;stroke-opacity:1"
         d="M 66.964844 1907.2227 C 81.835286 1932.9792 96.705729 1958.7357 111.57617 1984.4922 C 141.31641 1984.4922 171.05664 1984.4922 200.79688 1984.4922 C 215.66732 1958.7357 230.53776 1932.9792 245.4082 1907.2227 C 230.53776 1881.4661 215.66732 1855.7096 200.79688 1829.9531 C 171.05664 1829.9531 141.31641 1829.9531 111.57617 1829.9531 C 96.705729 1855.7096 81.835286 1881.4661 66.964844 1907.2227 z "
         id="path867-1-09" />
      <path
         d="m 245.40914,2061.7612 -44.61131,77.2691 h -89.22262 l -44.611305,-77.2691 44.611305,-77.269 89.22262,0 z"
         inkscape:randomized="0"
         inkscape:rounded="0"
         inkscape:flatsided="true"
         sodipodi:arg2="0.52359878"
         sodipodi:arg1="0"
         sodipodi:r2="77.269058"
         sodipodi:r1="89.222618"
         sodipodi:cy="2061.7612"
         sodipodi:cx="156.18652"
         sodipodi:sides="6"
         id="path867-15-1"
         style="opacity:1;fill:none;fill-opacity:1;stroke:#ffffff;stroke-width:5;stroke-miterlimit:4;stroke-dasharray:5, 20;stroke-dashoffset:0;stroke-opacity:1"
         sodipodi:type="star" />
      <path
         d="m -557.5947,2061.761 -44.61131,77.269 h -89.22262 l -44.61131,-77.269 44.61131,-77.2691 89.22262,0 z"
         inkscape:randomized="0"
         inkscape:rounded="0"
         inkscape:flatsided="true"
         sodipodi:arg2="0.52359878"
         sodipodi:arg1="0"
         sodipodi:r2="77.269058"
         sodipodi:r1="89.222618"
         sodipodi:cy="2061.761"
         sodipodi:cx="-646.81732"
         sodipodi:sides="6"
         id="path867-96"
         style="opacity:1;fill:none;fill-opacity:1;stroke:#ffffff;stroke-width:5;stroke-miterlimit:4;stroke-dasharray:5, 20;stroke-dashoffset:0;stroke-opacity:1"
         sodipodi:type="star" />
      <path
         d="m -423.76072,2139.03 -44.61131,77.2691 h -89.22262 l -44.61131,-77.2691 44.61131,-77.269 h 89.22262 z"
         inkscape:randomized="0"
         inkscape:rounded="0"
         inkscape:flatsided="true"
         sodipodi:arg2="0.52359878"
         sodipodi:arg1="0"
         sodipodi:r2="77.269058"
         sodipodi:r1="89.222618"
         sodipodi:cy="2139.03"
         sodipodi:cx="-512.98334"
         sodipodi:sides="6"
         id="path867-0-2"
         style="opacity:1;fill:none;fill-opacity:1;stroke:#ffffff;stroke-width:5;stroke-miterlimit:4;stroke-dasharray:5, 20;stroke-dashoffset:0;stroke-opacity:1"
         sodipodi:type="star" />
      <path
         d="m -423.76072,1984.4919 -44.61131,77.2691 h -89.22262 l -44.61131,-77.2691 44.61131,-77.269 89.22262,0 z"
         inkscape:randomized="0"
         inkscape:rounded="0"
         inkscape:flatsided="true"
         sodipodi:arg2="0.52359878"
         sodipodi:arg1="0"
         sodipodi:r2="77.269058"
         sodipodi:r1="89.222618"
         sodipodi:cy="1984.4919"
         sodipodi:cx="-512.98334"
         sodipodi:sides="6"
         id="path867-8-54"
         style="opacity:1;fill:none;fill-opacity:1;stroke:#ffffff;stroke-width:5;stroke-miterlimit:4;stroke-dasharray:5, 20;stroke-dashoffset:0;stroke-opacity:1"
         sodipodi:type="star" />
      <path
         d="m -557.5947,2216.2993 -44.61131,77.2691 h -89.22262 l -44.61131,-77.2691 44.61131,-77.269 h 89.22262 z"
         inkscape:randomized="0"
         inkscape:rounded="0"
         inkscape:flatsided="true"
         sodipodi:arg2="0.52359878"
         sodipodi:arg1="0"
         sodipodi:r2="77.269058"
         sodipodi:r1="89.222618"
         sodipodi:cy="2216.2993"
         sodipodi:cx="-646.81732"
         sodipodi:sides="6"
         id="path867-85-49"
         style="opacity:1;fill:none;fill-opacity:1;stroke:#ffffff;stroke-width:5;stroke-miterlimit:4;stroke-dasharray:5, 20;stroke-dashoffset:0;stroke-opacity:1"
         sodipodi:type="star" />
      <path
         d="m -423.76072,2293.5681 -44.61131,77.2691 h -89.22262 l -44.61131,-77.2691 44.61131,-77.269 h 89.22262 z"
         inkscape:randomized="0"
         inkscape:rounded="0"
         inkscape:flatsided="true"
         sodipodi:arg2="0.52359878"
         sodipodi:arg1="0"
         sodipodi:r2="77.269058"
         sodipodi:r1="89.222618"
         sodipodi:cy="2293.5681"
         sodipodi:cx="-512.98334"
         sodipodi:sides="6"
         id="path867-09-9"
         style="opacity:1;fill:none;fill-opacity:1;stroke:#ffffff;stroke-width:5;stroke-miterlimit:4;stroke-dasharray:5, 20;stroke-dashoffset:0;stroke-opacity:1"
         sodipodi:type="star" />
      <path
         d="m -289.92673,2216.2993 -44.61131,77.2691 h -89.22262 l -44.61131,-77.2691 44.61131,-77.269 h 89.22262 z"
         inkscape:randomized="0"
         inkscape:rounded="0"
         inkscape:flatsided="true"
         sodipodi:arg2="0.52359878"
         sodipodi:arg1="0"
         sodipodi:r2="77.269058"
         sodipodi:r1="89.222618"
         sodipodi:cy="2216.2993"
         sodipodi:cx="-379.14935"
         sodipodi:sides="6"
         id="path867-6-36"
         style="opacity:1;fill:none;fill-opacity:1;stroke:#ffffff;stroke-width:5;stroke-miterlimit:4;stroke-dasharray:5, 20;stroke-dashoffset:0;stroke-opacity:1"
         sodipodi:type="star" />
      <path
         d="m -289.92673,2061.761 -44.61131,77.269 h -89.22262 l -44.61131,-77.269 44.61131,-77.2691 89.22262,0 z"
         inkscape:randomized="0"
         inkscape:rounded="0"
         inkscape:flatsided="true"
         sodipodi:arg2="0.52359878"
         sodipodi:arg1="0"
         sodipodi:r2="77.269058"
         sodipodi:r1="89.222618"
         sodipodi:cy="2061.761"
         sodipodi:cx="-379.14935"
         sodipodi:sides="6"
         id="path867-3-05"
         style="opacity:1;fill:none;fill-opacity:1;stroke:#ffffff;stroke-width:5;stroke-miterlimit:4;stroke-dasharray:5, 20;stroke-dashoffset:0;stroke-opacity:1"
         sodipodi:type="star" />
      <path
         style="opacity:1;fill:none;fill-opacity:1;stroke:#ffffff;stroke-width:5;stroke-miterlimit:4;stroke-dasharray:5, 20;stroke-dashoffset:0;stroke-opacity:1"
         d="M -468.37109 1907.2227 C -453.50065 1932.9792 -438.63021 1958.7357 -423.75977 1984.4922 C -394.01888 1984.4922 -364.27799 1984.4922 -334.53711 1984.4922 C -319.66667 1958.7357 -304.79622 1932.9792 -289.92578 1907.2227 C -304.79622 1881.4661 -319.66667 1855.7096 -334.53711 1829.9531 C -364.27799 1829.9531 -394.01888 1829.9531 -423.75977 1829.9531 C -438.63021 1855.7096 -453.50065 1881.4661 -468.37109 1907.2227 z "
         id="path867-856-02" />
      <path
         d="m -156.09277,1984.4919 -44.6113,77.2691 h -89.22262 l -44.61131,-77.2691 44.61131,-77.269 89.22262,0 z"
         inkscape:randomized="0"
         inkscape:rounded="0"
         inkscape:flatsided="true"
         sodipodi:arg2="0.52359878"
         sodipodi:arg1="0"
         sodipodi:r2="77.269058"
         sodipodi:r1="89.222618"
         sodipodi:cy="1984.4919"
         sodipodi:cx="-245.31538"
         sodipodi:sides="6"
         id="path867-1-94"
         style="opacity:1;fill:none;fill-opacity:1;stroke:#ffffff;stroke-width:5;stroke-miterlimit:4;stroke-dasharray:5, 20;stroke-dashoffset:0;stroke-opacity:1"
         sodipodi:type="star" />
      <path
         d="m -156.09277,2139.03 -44.6113,77.2691 h -89.22262 l -44.61131,-77.2691 44.61131,-77.269 h 89.22262 z"
         inkscape:randomized="0"
         inkscape:rounded="0"
         inkscape:flatsided="true"
         sodipodi:arg2="0.52359878"
         sodipodi:arg1="0"
         sodipodi:r2="77.269058"
         sodipodi:r1="89.222618"
         sodipodi:cy="2139.03"
         sodipodi:cx="-245.31538"
         sodipodi:sides="6"
         id="path867-15-35"
         style="opacity:1;fill:none;fill-opacity:1;stroke:#ffffff;stroke-width:5;stroke-miterlimit:4;stroke-dasharray:5, 20;stroke-dashoffset:0;stroke-opacity:1"
         sodipodi:type="star" />
    </g>
  </g>
</svg>
